Martel-Light.ufo
<glyph name="exclam" format="1">
  <advance width="345"/>
  <unicode hex="0021"/>
  <outline>
    <contour>
      <point x="121" y="869" type="line"/>
      <point x="143" y="222" type="line"/>
      <point x="188" y="222" type="line"/>
      <point x="214" y="869" type="line"/>
    </contour>
    <contour>
      <point x="147" y="90"/>
      <point x="117" y="67"/>
      <point x="117" y="36" type="curve" smooth="yes"/>
      <point x="117" y="7"/>
      <point x="141" y="-11"/>
      <point x="166" y="-11" type="curve" smooth="yes"/>
      <point x="195" y="-11"/>
      <point x="223" y="11"/>
      <point x="223" y="44" type="curve" smooth="yes"/>
      <point x="223" y="69"/>
      <point x="208" y="90"/>
      <point x="175" y="90" type="curve" smooth="yes"/>
    </contour>
  </outline>
</glyph>
<glyph name="numbersign" format="1">
  <advance width="699"/>
  <unicode hex="0023"/>
  <outline>
    <contour>
      <point x="167" y="0" type="line"/>
      <point x="228" y="0" type="line"/>
      <point x="246" y="178" type="line"/>
      <point x="431" y="178" type="line"/>
      <point x="417" y="0" type="line"/>
      <point x="477" y="0" type="line"/>
      <point x="493" y="178" type="line"/>
      <point x="609" y="178" type="line"/>
      <point x="608" y="226" type="line"/>
      <point x="495" y="226" type="line"/>
      <point x="515" y="453" type="line"/>
      <point x="625" y="453" type="line"/>
      <point x="625" y="500" type="line"/>
      <point x="518" y="500" type="line"/>
      <point x="532" y="662" type="line"/>
      <point x="470" y="662" type="line"/>
      <point x="456" y="500" type="line"/>
      <point x="271" y="500" type="line"/>
      <point x="284" y="662" type="line"/>
      <point x="222" y="662" type="line"/>
      <point x="208" y="500" type="line"/>
      <point x="84" y="500" type="line"/>
      <point x="84" y="453" type="line"/>
      <point x="205" y="453" type="line"/>
      <point x="185" y="226" type="line"/>
      <point x="73" y="226" type="line"/>
      <point x="73" y="178" type="line"/>
      <point x="183" y="178" type="line"/>
    </contour>
    <contour>
      <point x="248" y="226" type="line"/>
      <point x="268" y="453" type="line"/>
      <point x="452" y="453" type="line"/>
      <point x="433" y="226" type="line"/>
    </contour>
  </outline>
</glyph>
<glyph name="dollar" format="1">
  <advance width="620"/>
  <unicode hex="0024"/>
  <outline>
	<contour>
	  <point x="85" y="31" type="line"/>
	  <point x="110" y="15"/>
	  <point x="188" y="-5"/>
	  <point x="272" y="-10" type="curve"/>
	  <point x="270" y="-113" type="line"/>
	  <point x="328" y="-113" type="line"/>
	  <point x="332" y="-10" type="line"/>
	  <point x="458" y="-4"/>
	  <point x="560" y="58"/>
	  <point x="560" y="192" type="curve" smooth="yes"/>
	  <point x="560" y="307"/>
	  <point x="444" y="364"/>
	  <point x="336" y="415" type="curve" smooth="yes"/>
	  <point x="244" y="459"/>
	  <point x="157" y="503"/>
	  <point x="157" y="586" type="curve" smooth="yes"/>
	  <point x="157" y="689"/>
	  <point x="250" y="727"/>
	  <point x="321" y="727" type="curve" smooth="yes"/>
	  <point x="373" y="727"/>
	  <point x="424" y="718"/>
	  <point x="453" y="693" type="curve"/>
	  <point x="481" y="596" type="line"/>
	  <point x="515" y="596" type="line"/>
	  <point x="515" y="726" type="line"/>
	  <point x="489" y="742"/>
	  <point x="439" y="760"/>
	  <point x="355" y="764" type="curve"/>
	  <point x="358" y="845" type="line"/>
	  <point x="300" y="845" type="line"/>
	  <point x="297" y="763" type="line"/>
	  <point x="201" y="753"/>
	  <point x="90" y="698"/>
	  <point x="90" y="575" type="curve" smooth="yes"/>
	  <point x="90" y="464"/>
	  <point x="197" y="408"/>
	  <point x="300" y="358" type="curve" smooth="yes"/>
	  <point x="397" y="311"/>
	  <point x="492" y="263"/>
	  <point x="492" y="173" type="curve" smooth="yes"/>
	  <point x="492" y="66"/>
	  <point x="400" y="28"/>
	  <point x="317" y="28" type="curve" smooth="yes"/>
	  <point x="259" y="28"/>
	  <point x="184" y="38"/>
	  <point x="144" y="77" type="curve"/>
	  <point x="121" y="177" type="line"/>
	  <point x="85" y="177" type="line"/>
	</contour>
  </outline>
</glyph>
<glyph name="ampersand" format="1">
  <advance width="766"/>
  <unicode hex="0026"/>
  <outline>
	<contour>
	  <point x="239" y="761"/>
	  <point x="157" y="693"/>
	  <point x="159" y="575" type="curve" smooth="yes"/>
	  <point x="161" y="496"/>
	  <point x="212" y="428"/>
	  <point x="256" y="370" type="curve"/>
	  <point x="176" y="330"/>
	  <point x="92" y="279"/>
	  <point x="92" y="174" type="curve" smooth="yes"/>
	  <point x="92" y="19"/>
	  <point x="259" y="-16"/>
	  <point x="359" y="-16" type="curve" smooth="yes"/>
	  <point x="423" y="-16"/>
	  <point x="508" y="5"/>
	  <point x="559" y="49" type="curve"/>
	  <point x="595" y="24"/>
	  <point x="630" y="6"/>
	  <point x="662" y="3" type="curve" smooth="yes"/>
	  <point x="688" y="0"/>
	  <point x="708" y="0"/>
	  <point x="727" y="7" type="curve"/>
	  <point x="727" y="40" type="line"/>
	  <point x="684" y="42"/>
	  <point x="651" y="56"/>
	  <point x="604" y="92" type="curve"/>
	  <point x="639" y="139"/>
	  <point x="653" y="200"/>
	  <point x="653" y="254" type="curve" smooth="yes"/>
	  <point x="653" y="305"/>
	  <point x="642" y="339"/>
	  <point x="634" y="360" type="curve"/>
	  <point x="566" y="360" type="line"/>
	  <point x="572" y="350"/>
	  <point x="589" y="308"/>
	  <point x="589" y="240" type="curve" smooth="yes"/>
	  <point x="589" y="201"/>
	  <point x="583" y="161"/>
	  <point x="564" y="125" type="curve"/>
	  <point x="492" y="191"/>
	  <point x="388" y="313"/>
	  <point x="341" y="369" type="curve"/>
	  <point x="428" y="418"/>
	  <point x="506" y="503"/>
	  <point x="504" y="605" type="curve" smooth="yes"/>
	  <point x="502" y="690"/>
	  <point x="452" y="761"/>
	  <point x="340" y="761" type="curve" smooth="yes"/>
	</contour>
	<contour>
	  <point x="362" y="232"/>
	  <point x="440" y="152"/>
	  <point x="524" y="76" type="curve"/>
	  <point x="486" y="41"/>
	  <point x="422" y="30"/>
	  <point x="363" y="30" type="curve" smooth="yes"/>
	  <point x="255" y="30"/>
	  <point x="159" y="83"/>
	  <point x="159" y="181" type="curve" smooth="yes"/>
	  <point x="159" y="256"/>
	  <point x="196" y="296"/>
	  <point x="279" y="340" type="curve"/>
	</contour>
	<contour>
	  <point x="419" y="723"/>
	  <point x="442" y="648"/>
	  <point x="443" y="594" type="curve" smooth="yes"/>
	  <point x="445" y="507"/>
	  <point x="397" y="439"/>
	  <point x="316" y="399" type="curve"/>
	  <point x="282" y="439"/>
	  <point x="224" y="504"/>
	  <point x="222" y="599" type="curve" smooth="yes"/>
	  <point x="221" y="688"/>
	  <point x="281" y="723"/>
	  <point x="332" y="723" type="curve" smooth="yes"/>
	</contour>
  </outline>
</glyph>
<glyph name="quotesingle" format="1">
  <advance width="400"/>
  <unicode hex="0027"/>
  <outline>
    <contour>
      <point x="177" y="472" type="line"/>
      <point x="224" y="472" type="line"/>
      <point x="242" y="870" type="line"/>
      <point x="159" y="870" type="line"/>
    </contour>
  </outline>
</glyph>
<glyph name="parenleft" format="1">
  <advance width="397"/>
  <unicode hex="0028"/>
  <outline>
	<contour>
	  <point x="325" y="-120" type="line"/>
	  <point x="277" y="-88"/>
	  <point x="116" y="77"/>
	  <point x="124" y="383" type="curve" smooth="yes"/>
	  <point x="132" y="645"/>
	  <point x="281" y="800"/>
	  <point x="323" y="827" type="curve"/>
	  <point x="290" y="847" type="line"/>
	  <point x="244" y="822"/>
	  <point x="56" y="643"/>
	  <point x="56" y="359" type="curve" smooth="yes"/>
	  <point x="56" y="34"/>
	  <point x="241" y="-116"/>
	  <point x="287" y="-144" type="curve"/>
	</contour>
  </outline>
</glyph>
<glyph name="asterisk" format="1">
  <advance width="632"/>
  <unicode hex="002A"/>
  <outline>
    <contour>
      <point x="280" y="375" type="line"/>
      <point x="347" y="375" type="line"/>
      <point x="334" y="553" type="line"/>
      <point x="325" y="605" type="line"/>
      <point x="364" y="572" type="line"/>
      <point x="510" y="462" type="line"/>
      <point x="552" y="513" type="line"/>
      <point x="384" y="604" type="line"/>
      <point x="334" y="624" type="line"/>
      <point x="385" y="646" type="line"/>
      <point x="552" y="733" type="line"/>
      <point x="511" y="785" type="line"/>
      <point x="370" y="681" type="line"/>
      <point x="324" y="643" type="line"/>
      <point x="335" y="700" type="line"/>
      <point x="347" y="872" type="line"/>
      <point x="327" y="872"/>
      <point x="301" y="872"/>
      <point x="280" y="872" type="curve"/>
      <point x="292" y="700" type="line"/>
      <point x="301" y="643" type="line"/>
      <point x="264" y="676" type="line"/>
      <point x="116" y="786" type="line"/>
      <point x="80" y="733" type="line"/>
      <point x="246" y="643" type="line"/>
      <point x="290" y="624" type="line"/>
      <point x="247" y="606" type="line"/>
      <point x="80" y="514" type="line"/>
      <point x="117" y="461" type="line"/>
      <point x="267" y="574" type="line"/>
      <point x="301" y="605" type="line"/>
      <point x="292" y="553" type="line"/>
    </contour>
  </outline>
</glyph>
<glyph name="plus" format="1">
  <advance width="614"/>
  <unicode hex="002B"/>
  <outline>
	<contour>
	  <point x="277" y="157" type="line"/>
	  <point x="336" y="157" type="line"/>
	  <point x="336" y="283" type="line"/>
	  <point x="332" y="364" type="line"/>
	  <point x="402" y="360" type="line"/>
	  <point x="530" y="360" type="line"/>
	  <point x="530" y="418" type="line"/>
	  <point x="402" y="418" type="line"/>
	  <point x="332" y="413" type="line"/>
	  <point x="336" y="494" type="line"/>
	  <point x="336" y="615" type="line"/>
	  <point x="277" y="615" type="line"/>
	  <point x="277" y="494" type="line"/>
	  <point x="281" y="413" type="line"/>
	  <point x="202" y="418" type="line"/>
	  <point x="84" y="418" type="line"/>
	  <point x="84" y="360" type="line"/>
	  <point x="202" y="360" type="line"/>
	  <point x="281" y="363" type="line"/>
	  <point x="277" y="283" type="line"/>
	</contour>
  </outline>
</glyph>
<glyph name="comma" format="1">
  <advance width="342"/>
  <unicode hex="002C"/>
  <outline>
	<contour>
	  <point x="113" y="67" type="line"/>
	  <point x="150" y="62"/>
	  <point x="185" y="17"/>
	  <point x="185" y="-43" type="curve" smooth="yes"/>
	  <point x="185" y="-117"/>
	  <point x="131" y="-183"/>
	  <point x="86" y="-199" type="curve"/>
	  <point x="86" y="-210" type="line"/>
	  <point x="103" y="-232" type="line"/>
	  <point x="174" y="-203"/>
	  <point x="255" y="-125"/>
	  <point x="253" y="-14" type="curve"/>
	  <point x="253" y="42"/>
	  <point x="223" y="119"/>
	  <point x="152" y="136" type="curve"/>
	  <point x="113" y="85" type="line"/>
	</contour>
  </outline>
</glyph>
<glyph name="hyphen" format="1">
  <advance width="600"/>
  <unicode hex="002D"/>
  <outline>
    <contour>
      <point x="84" y="363" type="line"/>
      <point x="516" y="363" type="line"/>
      <point x="516" y="417" type="line"/>
      <point x="84" y="417" type="line"/>
    </contour>
  </outline>
</glyph>
<glyph name="period" format="1">
  <advance width="345"/>
  <unicode hex="002E"/>
  <outline>
	<contour>
	  <point x="143" y="84"/>
	  <point x="116" y="64"/>
	  <point x="116" y="33" type="curve" smooth="yes"/>
	  <point x="116" y="11"/>
	  <point x="135" y="-5"/>
	  <point x="155" y="-5" type="curve" smooth="yes"/>
	  <point x="182" y="-5"/>
	  <point x="207" y="13"/>
	  <point x="207" y="47" type="curve" smooth="yes"/>
	  <point x="207" y="67"/>
	  <point x="196" y="84"/>
	  <point x="167" y="84" type="curve" smooth="yes"/>
	</contour>
  </outline>
</glyph>
<glyph name="slash" format="1">
  <advance width="398"/>
  <unicode hex="002F"/>
  <outline>
    <contour>
      <point x="15" y="-177" type="line"/>
      <point x="82" y="-177" type="line"/>
      <point x="351" y="781" type="line"/>
      <point x="284" y="781" type="line"/>
    </contour>
  </outline>
</glyph>
<glyph name="one" format="1">
  <advance width="456"/>
  <unicode hex="0031"/>
  <outline>
    <contour>
      <point x="60" y="0" type="line"/>
      <point x="419" y="0" type="line"/>
      <point x="419" y="33" type="line"/>
      <point x="279" y="43" type="line"/>
      <point x="280" y="610" type="line"/>
      <point x="254" y="617" type="line"/>
      <point x="231" y="598"/>
      <point x="124" y="545"/>
      <point x="65" y="526" type="curve"/>
      <point x="72" y="489" type="line"/>
      <point x="122" y="502"/>
      <point x="158" y="512"/>
      <point x="208" y="530" type="curve"/>
      <point x="208" y="43" type="line"/>
      <point x="60" y="33" type="line"/>
    </contour>
  </outline>
</glyph>
<glyph name="two" format="1">
  <advance width="596"/>
  <unicode hex="0032"/>
  <outline>
	<contour>
	  <point x="80" y="0" type="line"/>
	  <point x="518" y="0" type="line"/>
	  <point x="549" y="135" type="line"/>
	  <point x="517" y="146" type="line"/>
	  <point x="473" y="61" type="line"/>
	  <point x="161" y="44" type="line"/>
	  <point x="339" y="152"/>
	  <point x="483" y="310"/>
	  <point x="483" y="452" type="curve" smooth="yes"/>
	  <point x="483" y="536"/>
	  <point x="423" y="619"/>
	  <point x="290" y="619" type="curve" smooth="yes"/>
	  <point x="193" y="619"/>
	  <point x="104" y="566"/>
	  <point x="68" y="520" type="curve"/>
	  <point x="86" y="490" type="line"/>
	  <point x="125" y="529"/>
	  <point x="202" y="569"/>
	  <point x="267" y="569" type="curve" smooth="yes"/>
	  <point x="362" y="569"/>
	  <point x="408" y="505"/>
	  <point x="410" y="429" type="curve" smooth="yes"/>
	  <point x="410" y="296"/>
	  <point x="247" y="139"/>
	  <point x="69" y="30" type="curve"/>
	</contour>
  </outline>
</glyph>
<glyph name="three" format="1">
  <advance width="522"/>
  <unicode hex="0033"/>
  <outline>
    <contour>
      <point x="137" y="621"/>
      <point x="64" y="574"/>
      <point x="33" y="542" type="curve"/>
      <point x="54" y="508" type="line"/>
      <point x="86" y="533"/>
      <point x="134" y="570"/>
      <point x="217" y="570" type="curve" smooth="yes"/>
      <point x="294" y="570"/>
      <point x="352" y="531"/>
      <point x="351" y="441" type="curve" smooth="yes"/>
      <point x="349" y="366"/>
      <point x="265" y="292"/>
      <point x="128" y="271" type="curve"/>
      <point x="128" y="220" type="line"/>
      <point x="202" y="236" type="line"/>
      <point x="337" y="246"/>
      <point x="392" y="185"/>
      <point x="392" y="92" type="curve" smooth="yes"/>
      <point x="392" y="-28"/>
      <point x="258" y="-147"/>
      <point x="62" y="-114" type="curve"/>
      <point x="62" y="-126"/>
      <point x="62" y="-143"/>
      <point x="62" y="-155" type="curve"/>
      <point x="303" y="-198"/>
      <point x="467" y="-44"/>
      <point x="467" y="104" type="curve" smooth="yes"/>
      <point x="467" y="198"/>
      <point x="400" y="273"/>
      <point x="261" y="267" type="curve"/>
      <point x="345" y="292"/>
      <point x="425" y="383"/>
      <point x="425" y="461" type="curve" smooth="yes"/>
      <point x="425" y="575"/>
      <point x="334" y="621"/>
      <point x="243" y="621" type="curve" smooth="yes"/>
    </contour>
  </outline>
</glyph>
<glyph name="four" format="1">
  <advance width="612"/>
  <unicode hex="0034"/>
  <outline>
	<contour>
	  <point x="50" y="0" type="line"/>
	  <point x="386" y="0" type="line"/>
	  <point x="385" y="-184" type="line"/>
	  <point x="452" y="-184" type="line"/>
	  <point x="452" y="0" type="line"/>
	  <point x="567" y="0" type="line"/>
	  <point x="567" y="63" type="line"/>
	  <point x="452" y="58" type="line"/>
	  <point x="452" y="322" type="line"/>
	  <point x="388" y="304" type="line"/>
	  <point x="386" y="55" type="line"/>
	  <point x="103" y="43" type="line"/>
	  <point x="125" y="79" type="line"/>
	  <point x="159" y="141"/>
	  <point x="379" y="521"/>
	  <point x="413" y="590" type="curve"/>
	  <point x="371" y="622" type="line"/>
	  <point x="346" y="622" type="line"/>
	  <point x="244" y="396"/>
	  <point x="139" y="222"/>
	  <point x="38" y="37" type="curve"/>
	</contour>
  </outline>
</glyph>
<glyph name="five" format="1">
  <advance width="527"/>
  <unicode hex="0035"/>
  <outline>
	<contour>
	  <point x="66" y="-165" type="line"/>
	  <point x="85" y="-170"/>
	  <point x="103" y="-171"/>
	  <point x="119" y="-171" type="curve" smooth="yes"/>
	  <point x="316" y="-171"/>
	  <point x="468" y="-12"/>
	  <point x="468" y="127" type="curve" smooth="yes"/>
	  <point x="468" y="319"/>
	  <point x="283" y="378"/>
	  <point x="120" y="304" type="curve"/>
	  <point x="155" y="543" type="line"/>
	  <point x="414" y="543" type="line"/>
	  <point x="432" y="613" type="line"/>
	  <point x="390" y="613" type="line"/>
	  <point x="376" y="604" type="line"/>
	  <point x="101" y="604" type="line"/>
	  <point x="63" y="276" type="line"/>
	  <point x="80" y="262" type="line"/>
	  <point x="238" y="321"/>
	  <point x="394" y="296"/>
	  <point x="394" y="119" type="curve" smooth="yes"/>
	  <point x="394" y="-34"/>
	  <point x="219" y="-152"/>
	  <point x="67" y="-128" type="curve"/>
	</contour>
  </outline>
</glyph>
<glyph name="six" format="1">
  <advance width="611"/>
  <unicode hex="0036"/>
  <outline>
    <contour>
      <point x="285" y="712"/>
      <point x="62" y="526"/>
      <point x="62" y="275" type="curve" smooth="yes"/>
      <point x="62" y="122"/>
      <point x="153" y="-10"/>
      <point x="309" y="-10" type="curve" smooth="yes"/>
      <point x="467" y="-10"/>
      <point x="558" y="133"/>
      <point x="558" y="259" type="curve" smooth="yes"/>
      <point x="558" y="362"/>
      <point x="497" y="473"/>
      <point x="372" y="473" type="curve" smooth="yes"/>
      <point x="309" y="473"/>
      <point x="246" y="443"/>
      <point x="227" y="418" type="curve"/>
      <point x="244" y="388" type="line"/>
      <point x="263" y="403"/>
      <point x="293" y="423"/>
      <point x="355" y="423" type="curve" smooth="yes"/>
      <point x="426" y="423"/>
      <point x="490" y="359"/>
      <point x="490" y="230" type="curve" smooth="yes"/>
      <point x="490" y="146"/>
      <point x="439" y="29"/>
      <point x="320" y="29" type="curve" smooth="yes"/>
      <point x="187" y="29"/>
      <point x="134" y="165"/>
      <point x="138" y="310" type="curve" smooth="yes"/>
      <point x="142" y="467"/>
      <point x="263" y="649"/>
      <point x="498" y="717" type="curve"/>
      <point x="482" y="749" type="line"/>
    </contour>
  </outline>
</glyph>
<glyph name="seven" format="1">
  <advance width="604"/>
  <unicode hex="0037"/>
  <outline>
	<contour>
	  <point x="267" y="-154" type="line"/>
	  <point x="544" y="594" type="line"/>
	  <point x="529" y="612" type="line"/>
	  <point x="93" y="612" type="line"/>
	  <point x="69" y="453" type="line"/>
	  <point x="107" y="449" type="line"/>
	  <point x="147" y="553" type="line"/>
	  <point x="484" y="562" type="line"/>
	  <point x="386" y="320"/>
	  <point x="295" y="90"/>
	  <point x="193" y="-128" type="curve"/>
	</contour>
  </outline>
</glyph>
<glyph name="eight" format="1">
  <advance width="606"/>
  <unicode hex="0038"/>
  <outline>
	<contour>
	  <point x="215" y="758"/>
	  <point x="101" y="699"/>
	  <point x="101" y="573" type="curve" smooth="yes"/>
	  <point x="101" y="483"/>
	  <point x="156" y="430"/>
	  <point x="225" y="387" type="curve"/>
	  <point x="125" y="341"/>
	  <point x="63" y="261"/>
	  <point x="63" y="182" type="curve" smooth="yes"/>
	  <point x="63" y="46"/>
	  <point x="195" y="-14"/>
	  <point x="309" y="-14" type="curve" smooth="yes"/>
	  <point x="426" y="-14"/>
	  <point x="554" y="45"/>
	  <point x="552" y="194" type="curve" smooth="yes"/>
	  <point x="551" y="280"/>
	  <point x="468" y="331"/>
	  <point x="377" y="379" type="curve"/>
	  <point x="471" y="427"/>
	  <point x="520" y="518"/>
	  <point x="520" y="590" type="curve" smooth="yes"/>
	  <point x="520" y="690"/>
	  <point x="433" y="758"/>
	  <point x="320" y="758" type="curve" smooth="yes"/>
	</contour>
	<contour>
	  <point x="370" y="308"/>
	  <point x="489" y="267"/>
	  <point x="489" y="167" type="curve" smooth="yes"/>
	  <point x="489" y="87"/>
	  <point x="417" y="25"/>
	  <point x="321" y="25" type="curve" smooth="yes"/>
	  <point x="203" y="25"/>
	  <point x="131" y="103"/>
	  <point x="131" y="199" type="curve" smooth="yes"/>
	  <point x="131" y="272"/>
	  <point x="196" y="337"/>
	  <point x="264" y="365" type="curve"/>
	</contour>
	<contour>
	  <point x="403" y="721"/>
	  <point x="461" y="657"/>
	  <point x="459" y="566" type="curve" smooth="yes"/>
	  <point x="457" y="495"/>
	  <point x="391" y="417"/>
	  <point x="333" y="403" type="curve"/>
	  <point x="245" y="449"/>
	  <point x="159" y="496"/>
	  <point x="159" y="585" type="curve" smooth="yes"/>
	  <point x="159" y="663"/>
	  <point x="228" y="721"/>
	  <point x="314" y="721" type="curve" smooth="yes"/>
	</contour>
  </outline>
</glyph>
<glyph name="nine" format="1">
  <advance width="615"/>
  <unicode hex="0039"/>
  <outline>
	<contour>
	  <point x="134" y="-198" type="line"/>
	  <point x="335" y="-161"/>
	  <point x="547" y="65"/>
	  <point x="547" y="327" type="curve" smooth="yes"/>
	  <point x="547" y="478"/>
	  <point x="466" y="612"/>
	  <point x="309" y="612" type="curve" smooth="yes"/>
	  <point x="150" y="612"/>
	  <point x="60" y="469"/>
	  <point x="60" y="343" type="curve" smooth="yes"/>
	  <point x="60" y="240"/>
	  <point x="122" y="129"/>
	  <point x="246" y="129" type="curve" smooth="yes"/>
	  <point x="308" y="129"/>
	  <point x="366" y="155"/>
	  <point x="391" y="184" type="curve"/>
	  <point x="374" y="214" type="line"/>
	  <point x="357" y="200"/>
	  <point x="316" y="179"/>
	  <point x="262" y="179" type="curve" smooth="yes"/>
	  <point x="190" y="179"/>
	  <point x="127" y="248"/>
	  <point x="127" y="373" type="curve" smooth="yes"/>
	  <point x="127" y="455"/>
	  <point x="178" y="573"/>
	  <point x="297" y="573" type="curve" smooth="yes"/>
	  <point x="434" y="573"/>
	  <point x="474" y="441"/>
	  <point x="473" y="293" type="curve" smooth="yes"/>
	  <point x="471" y="130"/>
	  <point x="349" y="-98"/>
	  <point x="120" y="-165" type="curve"/>
	</contour>
  </outline>
</glyph>
<glyph name="semicolon" format="1">
  <advance width="345"/>
  <unicode hex="003B"/>
  <outline>
	<contour>
	  <point x="113" y="85" type="line"/>
	  <point x="113" y="67" type="line"/>
	  <point x="150" y="62"/>
	  <point x="186" y="17"/>
	  <point x="186" y="-43" type="curve" smooth="yes"/>
	  <point x="186" y="-117"/>
	  <point x="132" y="-183"/>
	  <point x="86" y="-199" type="curve"/>
	  <point x="86" y="-210" type="line"/>
	  <point x="103" y="-232" type="line"/>
	  <point x="173" y="-203"/>
	  <point x="255" y="-125"/>
	  <point x="254" y="-14" type="curve"/>
	  <point x="254" y="42"/>
	  <point x="223" y="119"/>
	  <point x="153" y="136" type="curve"/>
	</contour>
	<contour>
	  <point x="139" y="480"/>
	  <point x="112" y="460"/>
	  <point x="112" y="429" type="curve" smooth="yes"/>
	  <point x="112" y="407"/>
	  <point x="131" y="391"/>
	  <point x="151" y="391" type="curve" smooth="yes"/>
	  <point x="178" y="391"/>
	  <point x="203" y="409"/>
	  <point x="203" y="443" type="curve" smooth="yes"/>
	  <point x="203" y="463"/>
	  <point x="192" y="480"/>
	  <point x="163" y="480" type="curve" smooth="yes"/>
	</contour>
  </outline>
</glyph>
<glyph name="less" format="1">
  <advance width="641"/>
  <unicode hex="003C"/>
  <outline>
	<contour>
	  <point x="67" y="342" type="line"/>
	  <point x="541" y="91" type="line"/>
	  <point x="541" y="159" type="line"/>
	  <point x="131" y="367" type="line"/>
	  <point x="541" y="576" type="line"/>
	  <point x="541" y="643" type="line"/>
	  <point x="67" y="392" type="line"/>
	</contour>
  </outline>
</glyph>
<glyph name="equal" format="1">
  <advance width="600"/>
  <unicode hex="003D"/>
  <outline>
	<contour>
	  <point x="84" y="460" type="line"/>
	  <point x="516" y="460" type="line"/>
	  <point x="516" y="514" type="line"/>
	  <point x="84" y="514" type="line"/>
	</contour>
	<contour>
	  <point x="84" y="261" type="line"/>
	  <point x="516" y="261" type="line"/>
	  <point x="516" y="315" type="line"/>
	  <point x="84" y="315" type="line"/>
	</contour>
  </outline>
</glyph>
<glyph name="greater" format="1">
  <advance width="641"/>
  <unicode hex="003E"/>
  <outline>
	<contour>
	  <point x="101" y="91" type="line"/>
	  <point x="574" y="343" type="line"/>
	  <point x="574" y="392" type="line"/>
	  <point x="101" y="643" type="line"/>
	  <point x="101" y="575" type="line"/>
	  <point x="510" y="367" type="line"/>
	  <point x="101" y="159" type="line"/>
	</contour>
  </outline>
</glyph>
<glyph name="question" format="1">
  <advance width="494"/>
  <unicode hex="003F"/>
  <outline>
    <contour>
      <point x="117" y="896"/>
      <point x="72" y="885"/>
      <point x="63" y="874" type="curve"/>
      <point x="63" y="817" type="line"/>
      <point x="83" y="826"/>
      <point x="119" y="831"/>
      <point x="146" y="831" type="curve" smooth="yes"/>
      <point x="283" y="831"/>
      <point x="397" y="722"/>
      <point x="397" y="590" type="curve" smooth="yes"/>
      <point x="398" y="578"/>
      <point x="392" y="566"/>
      <point x="376" y="554" type="curve" smooth="yes"/>
      <point x="315" y="507"/>
      <point x="145" y="472"/>
      <point x="145" y="406" type="curve"/>
      <point x="145" y="351"/>
      <point x="197" y="262"/>
      <point x="224" y="239" type="curve"/>
      <point x="265" y="239" type="line"/>
      <point x="242" y="289"/>
      <point x="214" y="344"/>
      <point x="214" y="396" type="curve"/>
      <point x="214" y="450"/>
      <point x="336" y="476"/>
      <point x="405" y="523" type="curve"/>
      <point x="447" y="550"/>
      <point x="453" y="567"/>
      <point x="453" y="615" type="curve" smooth="yes"/>
      <point x="451" y="745"/>
      <point x="364" y="896"/>
      <point x="155" y="896" type="curve" smooth="yes"/>
    </contour>
    <contour>
      <point x="250" y="84"/>
      <point x="223" y="64"/>
      <point x="223" y="33" type="curve" smooth="yes"/>
      <point x="223" y="11"/>
      <point x="242" y="-5"/>
      <point x="262" y="-5" type="curve" smooth="yes"/>
      <point x="289" y="-5"/>
      <point x="314" y="13"/>
      <point x="314" y="47" type="curve" smooth="yes"/>
      <point x="314" y="67"/>
      <point x="303" y="84"/>
      <point x="274" y="84" type="curve" smooth="yes"/>
    </contour>
  </outline>
</glyph>
<glyph name="B" format="1">
  <advance width="693"/>
  <unicode hex="0042"/>
  <outline>
	<contour>
	  <point x="52" y="0" type="line"/>
	  <point x="172" y="0" type="line"/>
	  <point x="210" y="-1"/>
	  <point x="276" y="-7"/>
	  <point x="332" y="-7" type="curve" smooth="yes"/>
	  <point x="546" y="-7"/>
	  <point x="647" y="89"/>
	  <point x="647" y="224" type="curve" smooth="yes"/>
	  <point x="647" y="337"/>
	  <point x="556" y="404"/>
	  <point x="449" y="404" type="curve"/>
	  <point x="552" y="425"/>
	  <point x="598" y="505"/>
	  <point x="598" y="594" type="curve" smooth="yes"/>
	  <point x="598" y="699"/>
	  <point x="515" y="765"/>
	  <point x="360" y="765" type="curve" smooth="yes"/>
	  <point x="282" y="765"/>
	  <point x="230" y="760"/>
	  <point x="171" y="758" type="curve" smooth="yes"/>
	  <point x="54" y="758" type="line"/>
	  <point x="54" y="721" type="line"/>
	  <point x="139" y="714" type="line"/>
	  <point x="139" y="45" type="line"/>
	  <point x="52" y="33" type="line"/>
	</contour>
	<contour>
	  <point x="211" y="717" type="line"/>
	  <point x="239" y="723"/>
	  <point x="306" y="724"/>
	  <point x="345" y="724" type="curve" smooth="yes"/>
	  <point x="444" y="724"/>
	  <point x="529" y="684"/>
	  <point x="529" y="581" type="curve" smooth="yes"/>
	  <point x="529" y="467"/>
	  <point x="452" y="418"/>
	  <point x="356" y="418" type="curve" smooth="yes"/>
	  <point x="324" y="418"/>
	  <point x="246" y="416"/>
	  <point x="210" y="421" type="curve"/>
	</contour>
	<contour>
	  <point x="211" y="371" type="line"/>
	  <point x="248" y="374"/>
	  <point x="326" y="373"/>
	  <point x="372" y="373" type="curve" smooth="yes"/>
	  <point x="488" y="373"/>
	  <point x="572" y="331"/>
	  <point x="572" y="209" type="curve" smooth="yes"/>
	  <point x="572" y="73"/>
	  <point x="459" y="35"/>
	  <point x="349" y="35" type="curve" smooth="yes"/>
	  <point x="308" y="35"/>
	  <point x="234" y="42"/>
	  <point x="211" y="50" type="curve"/>
	</contour>
  </outline>
</glyph>
<glyph name="C" format="1">
  <advance width="688"/>
  <unicode hex="0043"/>
  <outline>
	<contour>
	  <point x="227" y="765"/>
	  <point x="42" y="605"/>
	  <point x="42" y="357" type="curve" smooth="yes"/>
	  <point x="42" y="140"/>
	  <point x="190" y="-14"/>
	  <point x="392" y="-14" type="curve" smooth="yes"/>
	  <point x="531" y="-14"/>
	  <point x="593" y="28"/>
	  <point x="640" y="31" type="curve"/>
	  <point x="640" y="164" type="line"/>
	  <point x="606" y="164" type="line"/>
	  <point x="585" y="81" type="line"/>
	  <point x="556" y="50"/>
	  <point x="494" y="27"/>
	  <point x="414" y="27" type="curve" smooth="yes"/>
	  <point x="221" y="25"/>
	  <point x="117" y="189"/>
	  <point x="117" y="380" type="curve" smooth="yes"/>
	  <point x="117" y="599"/>
	  <point x="262" y="722"/>
	  <point x="415" y="722" type="curve" smooth="yes"/>
	  <point x="483" y="722"/>
	  <point x="533" y="709"/>
	  <point x="574" y="684" type="curve"/>
	  <point x="592" y="596" type="line"/>
	  <point x="632" y="596" type="line"/>
	  <point x="639" y="730" type="line"/>
	  <point x="596" y="740"/>
	  <point x="530" y="765"/>
	  <point x="436" y="765" type="curve" smooth="yes"/>
	</contour>
  </outline>
</glyph>
<glyph name="F" format="1">
  <advance width="604"/>
  <unicode hex="0046"/>
  <outline>
	<contour>
	  <point x="51" y="0" type="line"/>
	  <point x="367" y="0" type="line"/>
	  <point x="367" y="36" type="line"/>
	  <point x="216" y="44" type="line"/>
	  <point x="216" y="367" type="line"/>
	  <point x="442" y="363" type="line"/>
	  <point x="454" y="282" type="line"/>
	  <point x="496" y="282" type="line"/>
	  <point x="496" y="487" type="line"/>
	  <point x="458" y="487" type="line"/>
	  <point x="442" y="411" type="line"/>
	  <point x="216" y="407" type="line"/>
	  <point x="216" y="717" type="line"/>
	  <point x="525" y="711" type="line"/>
	  <point x="548" y="618" type="line"/>
	  <point x="586" y="619" type="line"/>
	  <point x="575" y="758" type="line"/>
	  <point x="58" y="758" type="line"/>
	  <point x="58" y="721" type="line"/>
	  <point x="144" y="713" type="line"/>
	  <point x="144" y="45" type="line"/>
	  <point x="51" y="33" type="line"/>
	</contour>
  </outline>
</glyph>
<glyph name="G" format="1">
  <advance width="750"/>
  <unicode hex="0047"/>
  <outline>
	<contour>
	  <point x="221" y="765"/>
	  <point x="42" y="606"/>
	  <point x="42" y="357" type="curve" smooth="yes"/>
	  <point x="42" y="143"/>
	  <point x="180" y="-14"/>
	  <point x="382" y="-14" type="curve" smooth="yes"/>
	  <point x="500" y="-14"/>
	  <point x="611" y="33"/>
	  <point x="654" y="37" type="curve"/>
	  <point x="654" y="301" type="line"/>
	  <point x="721" y="309" type="line"/>
	  <point x="721" y="346" type="line"/>
	  <point x="447" y="346" type="line"/>
	  <point x="447" y="309" type="line"/>
	  <point x="582" y="302" type="line"/>
	  <point x="582" y="75" type="line"/>
	  <point x="544" y="42"/>
	  <point x="464" y="27"/>
	  <point x="401" y="27" type="curve" smooth="yes"/>
	  <point x="204" y="27"/>
	  <point x="117" y="202"/>
	  <point x="117" y="379" type="curve" smooth="yes"/>
	  <point x="117" y="597"/>
	  <point x="260" y="720"/>
	  <point x="412" y="722" type="curve" smooth="yes"/>
	  <point x="504" y="723"/>
	  <point x="567" y="701"/>
	  <point x="586" y="685" type="curve"/>
	  <point x="606" y="599" type="line"/>
	  <point x="646" y="599" type="line"/>
	  <point x="653" y="732" type="line"/>
	  <point x="615" y="740"/>
	  <point x="552" y="765"/>
	  <point x="434" y="765" type="curve" smooth="yes"/>
	</contour>
  </outline>
</glyph>
<glyph name="I" format="1">
  <advance width="373"/>
  <unicode hex="0049"/>
  <outline>
	<contour>
	  <point x="66" y="0" type="line"/>
	  <point x="307" y="0" type="line"/>
	  <point x="307" y="33" type="line"/>
	  <point x="221" y="44" type="line"/>
	  <point x="221" y="714" type="line"/>
	  <point x="303" y="721" type="line"/>
	  <point x="303" y="758" type="line"/>
	  <point x="68" y="758" type="line"/>
	  <point x="68" y="721" type="line"/>
	  <point x="149" y="714" type="line"/>
	  <point x="149" y="44" type="line"/>
	  <point x="66" y="33" type="line"/>
	</contour>
  </outline>
</glyph>
<glyph name="J" format="1">
  <advance width="352"/>
  <unicode hex="004A"/>
  <outline>
    <contour>
      <point x="57" y="758" type="line"/>
      <point x="57" y="721" type="line"/>
      <point x="143" y="714" type="line"/>
      <point x="143" y="196" type="line" smooth="yes"/>
      <point x="143" y="96"/>
      <point x="142" y="28"/>
      <point x="122" y="-29" type="curve"/>
      <point x="97" y="-92"/>
      <point x="38" y="-139"/>
      <point x="-42" y="-160" type="curve"/>
      <point x="-21" y="-189" type="line"/>
      <point x="79" y="-175"/>
      <point x="183" y="-100"/>
      <point x="207" y="17" type="curve" smooth="yes"/>
      <point x="218" y="78"/>
      <point x="215" y="151"/>
      <point x="215" y="232" type="curve" smooth="yes"/>
      <point x="215" y="714" type="line"/>
      <point x="303" y="721" type="line"/>
      <point x="303" y="758" type="line"/>
    </contour>
  </outline>
</glyph>
<glyph name="K" format="1">
  <advance width="693"/>
  <unicode hex="004B"/>
  <outline>
    <contour>
      <point x="52" y="0" type="line"/>
      <point x="290" y="0" type="line"/>
      <point x="290" y="33" type="line"/>
      <point x="204" y="44" type="line"/>
      <point x="204" y="283" type="line"/>
      <point x="297" y="389" type="line"/>
      <point x="366" y="323"/>
      <point x="534" y="0"/>
      <point x="568" y="0" type="curve" smooth="yes"/>
      <point x="696" y="0" type="line"/>
      <point x="696" y="33" type="line"/>
      <point x="622" y="47" type="line"/>
      <point x="588" y="47"/>
      <point x="400" y="373"/>
      <point x="339" y="437" type="curve"/>
      <point x="584" y="713" type="line"/>
      <point x="662" y="721" type="line"/>
      <point x="662" y="758" type="line"/>
      <point x="437" y="758" type="line"/>
      <point x="437" y="721" type="line"/>
      <point x="516" y="713" type="line"/>
      <point x="204" y="350" type="line"/>
      <point x="204" y="714" type="line"/>
      <point x="282" y="721" type="line"/>
      <point x="282" y="758" type="line"/>
      <point x="53" y="758" type="line"/>
      <point x="53" y="721" type="line"/>
      <point x="131" y="714" type="line"/>
      <point x="131" y="44" type="line"/>
      <point x="52" y="33" type="line"/>
    </contour>
  </outline>
</glyph>
<glyph name="L" format="1">
  <advance width="607"/>
  <unicode hex="004C"/>
  <outline>
    <contour>
      <point x="52" y="0" type="line"/>
      <point x="561" y="0" type="line"/>
      <point x="593" y="155" type="line"/>
      <point x="560" y="171" type="line"/>
      <point x="507" y="51" type="line"/>
      <point x="211" y="42" type="line"/>
      <point x="212" y="710" type="line"/>
      <point x="307" y="717" type="line"/>
      <point x="307" y="758" type="line"/>
      <point x="54" y="758" type="line"/>
      <point x="54" y="717" type="line"/>
      <point x="140" y="710" type="line"/>
      <point x="140" y="45" type="line"/>
      <point x="52" y="33" type="line"/>
    </contour>
  </outline>
</glyph>
<glyph name="M" format="1">
  <advance width="965"/>
  <unicode hex="004D"/>
  <outline>
    <contour>
      <point x="38" y="0" type="line"/>
      <point x="291" y="0" type="line"/>
      <point x="291" y="33" type="line"/>
      <point x="187" y="45" type="line"/>
      <point x="214" y="520" type="line"/>
      <point x="222" y="712" type="line"/>
      <point x="237" y="668"/>
      <point x="258" y="605"/>
      <point x="272" y="566" type="curve" smooth="yes"/>
      <point x="475" y="-7" type="line"/>
      <point x="500" y="-7" type="line"/>
      <point x="710" y="619" type="line"/>
      <point x="736" y="712" type="line"/>
      <point x="743" y="546" type="line"/>
      <point x="786" y="44" type="line"/>
      <point x="692" y="33" type="line"/>
      <point x="692" y="0" type="line"/>
      <point x="949" y="0" type="line"/>
      <point x="949" y="33" type="line"/>
      <point x="854" y="44" type="line"/>
      <point x="796" y="710" type="line"/>
      <point x="893" y="718" type="line"/>
      <point x="893" y="758" type="line"/>
      <point x="704" y="758" type="line"/>
      <point x="519" y="184" type="line"/>
      <point x="497" y="115" type="line"/>
      <point x="477" y="183" type="line"/>
      <point x="281" y="758" type="line"/>
      <point x="80" y="758" type="line"/>
      <point x="80" y="718" type="line"/>
      <point x="178" y="710" type="line"/>
      <point x="128" y="44" type="line"/>
      <point x="38" y="33" type="line"/>
    </contour>
  </outline>
</glyph>
<glyph name="N" format="1">
  <advance width="812"/>
  <unicode hex="004E"/>
  <outline>
    <contour>
      <point x="551" y="758" type="line"/>
      <point x="551" y="718" type="line"/>
      <point x="636" y="710" type="line"/>
      <point x="636" y="63" type="line"/>
      <point x="564" y="195" type="line"/>
      <point x="213" y="758" type="line"/>
      <point x="54" y="758" type="line"/>
      <point x="54" y="717" type="line"/>
      <point x="137" y="710" type="line"/>
      <point x="137" y="44" type="line"/>
      <point x="51" y="33" type="line"/>
      <point x="51" y="0" type="line"/>
      <point x="291" y="0" type="line"/>
      <point x="291" y="33" type="line"/>
      <point x="190" y="44" type="line"/>
      <point x="190" y="191"/>
      <point x="191" y="529"/>
      <point x="191" y="680" type="curve"/>
      <point x="263" y="543" type="line"/>
      <point x="610" y="0" type="line"/>
      <point x="689" y="0" type="line"/>
      <point x="689" y="710" type="line"/>
      <point x="774" y="718" type="line"/>
      <point x="774" y="758" type="line"/>
    </contour>
  </outline>
</glyph>
<glyph name="O" format="1">
  <advance width="759"/>
  <unicode hex="004F"/>
  <outline>
    <contour>
      <point x="336" y="765"/>
      <point x="275" y="749"/>
      <point x="222" y="718" type="curve" smooth="yes"/>
      <point x="120" y="657"/>
      <point x="49" y="539"/>
      <point x="45" y="369" type="curve" smooth="yes"/>
      <point x="42" y="145"/>
      <point x="173" y="-14"/>
      <point x="372" y="-14" type="curve" smooth="yes"/>
      <point x="560" y="-14"/>
      <point x="716" y="133"/>
      <point x="716" y="396" type="curve" smooth="yes"/>
      <point x="716" y="611"/>
      <point x="592" y="765"/>
      <point x="400" y="765" type="curve" smooth="yes"/>
    </contour>
    <contour>
      <point x="547" y="724"/>
      <point x="638" y="573"/>
      <point x="638" y="386" type="curve" smooth="yes"/>
      <point x="638" y="165"/>
      <point x="536" y="27"/>
      <point x="386" y="27" type="curve" smooth="yes"/>
      <point x="224" y="27"/>
      <point x="125" y="176"/>
      <point x="125" y="369" type="curve" smooth="yes"/>
      <point x="125" y="595"/>
      <point x="234" y="724"/>
      <point x="385" y="724" type="curve" smooth="yes"/>
    </contour>
  </outline>
</glyph>
<glyph name="P" format="1">
  <advance width="633"/>
  <unicode hex="0050"/>
  <outline>
    <contour>
      <point x="42" y="0" type="line"/>
      <point x="347" y="0" type="line"/>
      <point x="347" y="33" type="line"/>
      <point x="212" y="45" type="line"/>
      <point x="212" y="289" type="line"/>
      <point x="233" y="291"/>
      <point x="267" y="290"/>
      <point x="321" y="290" type="curve" smooth="yes"/>
      <point x="464" y="289"/>
      <point x="604" y="378"/>
      <point x="604" y="537" type="curve" smooth="yes"/>
      <point x="604" y="712"/>
      <point x="499" y="765"/>
      <point x="349" y="765" type="curve" smooth="yes"/>
      <point x="284" y="765"/>
      <point x="214" y="758"/>
      <point x="175" y="758" type="curve" smooth="yes"/>
      <point x="53" y="758" type="line"/>
      <point x="53" y="717" type="line"/>
      <point x="140" y="710" type="line"/>
      <point x="140" y="45" type="line"/>
      <point x="42" y="33" type="line"/>
    </contour>
    <contour>
      <point x="212" y="713" type="line"/>
      <point x="241" y="721"/>
      <point x="288" y="721"/>
      <point x="319" y="723" type="curve" smooth="yes"/>
      <point x="462" y="727"/>
      <point x="531" y="664"/>
      <point x="531" y="536" type="curve" smooth="yes"/>
      <point x="531" y="383"/>
      <point x="437" y="331"/>
      <point x="319" y="329" type="curve" smooth="yes"/>
      <point x="289" y="329"/>
      <point x="249" y="329"/>
      <point x="212" y="334" type="curve"/>
    </contour>
  </outline>
</glyph>
<glyph name="Q" format="1">
  <advance width="759"/>
  <unicode hex="0051"/>
  <outline>
	<contour>
	  <point x="320" y="765"/>
	  <point x="246" y="741"/>
	  <point x="187" y="695" type="curve" smooth="yes"/>
	  <point x="101" y="629"/>
	  <point x="44" y="516"/>
	  <point x="44" y="359" type="curve" smooth="yes"/>
	  <point x="44" y="137"/>
	  <point x="178" y="-18"/>
	  <point x="377" y="-14" type="curve"/>
	  <point x="395" y="-14" type="line"/>
	  <point x="424" y="-131"/>
	  <point x="504" y="-173"/>
	  <point x="596" y="-173" type="curve" smooth="yes"/>
	  <point x="651" y="-173"/>
	  <point x="697" y="-157"/>
	  <point x="708" y="-139" type="curve"/>
	  <point x="701" y="-91" type="line"/>
	  <point x="684" y="-104"/>
	  <point x="653" y="-111"/>
	  <point x="620" y="-111" type="curve" smooth="yes"/>
	  <point x="545" y="-111"/>
	  <point x="462" y="-82"/>
	  <point x="438" y="-7" type="curve"/>
	  <point x="594" y="25"/>
	  <point x="714" y="166"/>
	  <point x="714" y="396" type="curve" smooth="yes"/>
	  <point x="714" y="611"/>
	  <point x="591" y="765"/>
	  <point x="398" y="765" type="curve" smooth="yes"/>
	</contour>
	<contour>
	  <point x="545" y="724"/>
	  <point x="636" y="573"/>
	  <point x="636" y="386" type="curve" smooth="yes"/>
	  <point x="636" y="165"/>
	  <point x="534" y="27"/>
	  <point x="385" y="27" type="curve" smooth="yes"/>
	  <point x="223" y="27"/>
	  <point x="123" y="176"/>
	  <point x="123" y="369" type="curve" smooth="yes"/>
	  <point x="123" y="595"/>
	  <point x="233" y="724"/>
	  <point x="384" y="724" type="curve" smooth="yes"/>
	</contour>
  </outline>
</glyph>
<glyph name="R" format="1">
  <advance width="693"/>
  <unicode hex="0052"/>
  <outline>
    <contour>
      <point x="262" y="765"/>
      <point x="210" y="759"/>
      <point x="177" y="758" type="curve" smooth="yes"/>
      <point x="53" y="758" type="line"/>
      <point x="53" y="717" type="line"/>
      <point x="140" y="710" type="line"/>
      <point x="140" y="45" type="line"/>
      <point x="42" y="33" type="line"/>
      <point x="42" y="0" type="line"/>
      <point x="318" y="0" type="line"/>
      <point x="318" y="33" type="line"/>
      <point x="212" y="44" type="line"/>
      <point x="212" y="335" type="line"/>
      <point x="252" y="335"/>
      <point x="285" y="335"/>
      <point x="320" y="335" type="curve"/>
      <point x="430" y="343"/>
      <point x="528" y="0"/>
      <point x="572" y="0" type="curve" smooth="yes"/>
      <point x="697" y="0" type="line"/>
      <point x="697" y="33" type="line"/>
      <point x="638" y="44" type="line" smooth="yes"/>
      <point x="592" y="52"/>
      <point x="504" y="318"/>
      <point x="411" y="347" type="curve"/>
      <point x="411" y="347"/>
      <point x="408" y="348"/>
      <point x="408" y="348" type="curve"/>
      <point x="512" y="377"/>
      <point x="580" y="459"/>
      <point x="580" y="561" type="curve" smooth="yes"/>
      <point x="580" y="718"/>
      <point x="475" y="765"/>
      <point x="327" y="765" type="curve" smooth="yes"/>
    </contour>
    <contour>
      <point x="453" y="729"/>
      <point x="504" y="664"/>
      <point x="504" y="552" type="curve" smooth="yes"/>
      <point x="504" y="444"/>
      <point x="443" y="377"/>
      <point x="325" y="375" type="curve" smooth="yes"/>
      <point x="300" y="375"/>
      <point x="235" y="377"/>
      <point x="212" y="379" type="curve"/>
      <point x="212" y="716" type="line"/>
      <point x="238" y="724"/>
      <point x="282" y="723"/>
      <point x="313" y="724" type="curve" smooth="yes"/>
    </contour>
  </outline>
</glyph>
<glyph name="T" format="1">
  <advance width="620"/>
  <unicode hex="0054"/>
  <outline>
	<contour>
	  <point x="154" y="0" type="line"/>
	  <point x="489" y="0" type="line"/>
	  <point x="489" y="33" type="line"/>
	  <point x="354" y="45" type="line"/>
	  <point x="354" y="717" type="line"/>
	  <point x="556" y="709" type="line"/>
	  <point x="576" y="604" type="line"/>
	  <point x="607" y="608" type="line"/>
	  <point x="608" y="758" type="line"/>
	  <point x="27" y="758" type="line"/>
	  <point x="15" y="610" type="line"/>
	  <point x="49" y="611" type="line"/>
	  <point x="79" y="709" type="line"/>
	  <point x="282" y="717" type="line"/>
	  <point x="282" y="45" type="line"/>
	  <point x="154" y="33" type="line"/>
	</contour>
  </outline>
</glyph>
<glyph name="V" format="1">
  <advance width="696"/>
  <unicode hex="0056"/>
  <outline>
	<contour>
	  <point x="334" y="-10" type="line"/>
	  <point x="388" y="-10" type="line"/>
	  <point x="627" y="714" type="line"/>
	  <point x="697" y="721" type="line"/>
	  <point x="697" y="758" type="line"/>
	  <point x="483" y="758" type="line"/>
	  <point x="483" y="721" type="line"/>
	  <point x="564" y="714" type="line"/>
	  <point x="397" y="166" type="line"/>
	  <point x="372" y="73" type="line"/>
	  <point x="343" y="165" type="line"/>
	  <point x="153" y="714" type="line"/>
	  <point x="250" y="721" type="line"/>
	  <point x="250" y="758" type="line"/>
	  <point x="2" y="758" type="line"/>
	  <point x="2" y="721" type="line"/>
	  <point x="70" y="714" type="line"/>
	</contour>
  </outline>
</glyph>
<glyph name="W" format="1">
  <advance width="1026"/>
  <unicode hex="0057"/>
  <outline>
    <contour>
      <point x="313" y="-10" type="line"/>
      <point x="375" y="-10" type="line"/>
      <point x="521" y="527" type="line"/>
      <point x="674" y="-10" type="line"/>
      <point x="732" y="-10" type="line"/>
      <point x="942" y="714" type="line"/>
      <point x="1020" y="721" type="line"/>
      <point x="1020" y="758" type="line"/>
      <point x="792" y="758" type="line"/>
      <point x="792" y="721" type="line"/>
      <point x="881" y="714" type="line"/>
      <point x="738" y="173" type="line"/>
      <point x="715" y="73" type="line"/>
      <point x="692" y="161" type="line"/>
      <point x="544" y="714" type="line"/>
      <point x="637" y="721" type="line"/>
      <point x="637" y="758" type="line"/>
      <point x="387" y="758" type="line"/>
      <point x="387" y="721" type="line"/>
      <point x="468" y="714" type="line"/>
      <point x="494" y="625" type="line"/>
      <point x="377" y="163" type="line"/>
      <point x="350" y="76" type="line"/>
      <point x="340" y="106"/>
      <point x="331" y="137"/>
      <point x="321" y="167" type="curve"/>
      <point x="149" y="714" type="line"/>
      <point x="246" y="721" type="line"/>
      <point x="246" y="758" type="line"/>
      <point x="2" y="758" type="line"/>
      <point x="2" y="721" type="line"/>
      <point x="69" y="714" type="line"/>
    </contour>
  </outline>
</glyph>
<glyph name="X" format="1">
  <advance width="693"/>
  <unicode hex="0058"/>
  <outline>
    <contour>
      <point x="7" y="0" type="line"/>
      <point x="261" y="0" type="line"/>
      <point x="261" y="33" type="line"/>
      <point x="163" y="44" type="line"/>
      <point x="335" y="348" type="line"/>
      <point x="518" y="44" type="line"/>
      <point x="419" y="33" type="line"/>
      <point x="419" y="0" type="line"/>
      <point x="688" y="0" type="line"/>
      <point x="688" y="33" type="line"/>
      <point x="600" y="44" type="line"/>
      <point x="386" y="396" type="line"/>
      <point x="597" y="714" type="line"/>
      <point x="670" y="721" type="line"/>
      <point x="670" y="758" type="line"/>
      <point x="446" y="758" type="line"/>
      <point x="446" y="721" type="line"/>
      <point x="530" y="714" type="line"/>
      <point x="359" y="427" type="line"/>
      <point x="191" y="714" type="line"/>
      <point x="285" y="721" type="line"/>
      <point x="285" y="758" type="line"/>
      <point x="27" y="758" type="line"/>
      <point x="27" y="721" type="line"/>
      <point x="104" y="714" type="line"/>
      <point x="311" y="386" type="line"/>
      <point x="94" y="44" type="line"/>
      <point x="7" y="33" type="line"/>
    </contour>
  </outline>
</glyph>
<glyph name="Y" format="1">
  <advance width="660"/>
  <unicode hex="0059"/>
  <outline>
	<contour>
	  <point x="206" y="0" type="line"/>
	  <point x="480" y="0" type="line"/>
	  <point x="480" y="33" type="line"/>
	  <point x="377" y="45" type="line"/>
	  <point x="377" y="311" type="line"/>
	  <point x="587" y="710" type="line"/>
	  <point x="653" y="721" type="line"/>
	  <point x="653" y="758" type="line"/>
	  <point x="442" y="758" type="line"/>
	  <point x="442" y="721" type="line"/>
	  <point x="526" y="713" type="line"/>
	  <point x="370" y="405" type="line"/>
	  <point x="346" y="353" type="line"/>
	  <point x="320" y="405" type="line"/>
	  <point x="148" y="714" type="line"/>
	  <point x="230" y="721" type="line"/>
	  <point x="230" y="758" type="line"/>
	  <point x="6" y="758" type="line"/>
	  <point x="6" y="721" type="line"/>
	  <point x="65" y="714" type="line"/>
	  <point x="305" y="313" type="line"/>
	  <point x="305" y="45" type="line"/>
	  <point x="206" y="33" type="line"/>
	</contour>
  </outline>
</glyph>
<glyph name="Z" format="1">
  <advance width="660"/>
  <unicode hex="005A"/>
  <outline>
	<contour>
	  <point x="93" y="759" type="line"/>
	  <point x="79" y="606" type="line"/>
	  <point x="119" y="600" type="line"/>
	  <point x="157" y="709" type="line"/>
	  <point x="540" y="718" type="line"/>
	  <point x="482" y="647" type="line"/>
	  <point x="48" y="34" type="line"/>
	  <point x="60" y="0" type="line"/>
	  <point x="595" y="0" type="line"/>
	  <point x="630" y="170" type="line"/>
	  <point x="591" y="179" type="line"/>
	  <point x="535" y="56" type="line"/>
	  <point x="131" y="42" type="line"/>
	  <point x="193" y="121" type="line"/>
	  <point x="620" y="726" type="line"/>
	  <point x="608" y="759" type="line"/>
	</contour>
  </outline>
</glyph>
<glyph name="bracketleft" format="1">
  <advance width="417"/>
  <unicode hex="005B"/>
  <outline>
    <contour>
      <point x="98" y="13" type="line" smooth="yes"/>
      <point x="98" y="-66"/>
      <point x="110" y="-87"/>
      <point x="169" y="-87" type="curve" smooth="yes"/>
      <point x="216" y="-87"/>
      <point x="258" y="-80"/>
      <point x="301" y="-70" type="curve"/>
      <point x="301" y="-38" type="line"/>
      <point x="159" y="-37" type="line"/>
      <point x="159" y="786" type="line"/>
      <point x="301" y="786" type="line"/>
      <point x="301" y="818" type="line"/>
      <point x="264" y="826"/>
      <point x="222" y="834"/>
      <point x="178" y="834" type="curve" smooth="yes"/>
      <point x="110" y="834"/>
      <point x="98" y="816"/>
      <point x="98" y="727" type="curve" smooth="yes"/>
    </contour>
  </outline>
</glyph>
<glyph name="bracketright" format="1">
  <advance width="419"/>
  <unicode hex="005D"/>
  <outline>
    <contour>
      <point x="117" y="-38" type="line"/>
      <point x="116" y="-70" type="line"/>
      <point x="159" y="-80"/>
      <point x="201" y="-87"/>
      <point x="248" y="-87" type="curve" smooth="yes"/>
      <point x="307" y="-87"/>
      <point x="319" y="-66"/>
      <point x="319" y="13" type="curve" smooth="yes"/>
      <point x="319" y="727" type="line" smooth="yes"/>
      <point x="319" y="816"/>
      <point x="307" y="834"/>
      <point x="239" y="834" type="curve" smooth="yes"/>
      <point x="195" y="834"/>
      <point x="154" y="826"/>
      <point x="116" y="818" type="curve"/>
      <point x="117" y="786" type="line"/>
      <point x="259" y="786" type="line"/>
      <point x="259" y="-37" type="line"/>
    </contour>
  </outline>
</glyph>
<glyph name="asciicircum" format="1">
  <advance width="629"/>
  <unicode hex="005E"/>
  <outline>
    <contour>
      <point x="84" y="275" type="line"/>
      <point x="143" y="275" type="line"/>
      <point x="311" y="673" type="line"/>
      <point x="479" y="275" type="line"/>
      <point x="545" y="275" type="line"/>
      <point x="350" y="748" type="line"/>
      <point x="277" y="748" type="line"/>
    </contour>
  </outline>
</glyph>
<glyph name="grave" format="1">
  <advance width="432"/>
  <unicode hex="0060"/>
  <outline>
	<contour>
	  <point x="292" y="677" type="line"/>
	  <point x="139" y="864" type="line"/>
	  <point x="87" y="811" type="line"/>
	  <point x="120" y="762"/>
	  <point x="212" y="696"/>
	  <point x="271" y="656" type="curve"/>
	</contour>
  </outline>
</glyph>
<glyph name="b" format="1">
  <advance width="617"/>
  <unicode hex="0062"/>
  <outline>
	<contour>
	  <point x="105" y="24" type="line"/>
	  <point x="118" y="10"/>
	  <point x="197" y="-14"/>
	  <point x="289" y="-14" type="curve" smooth="yes"/>
	  <point x="454" y="-14"/>
	  <point x="565" y="124"/>
	  <point x="565" y="295" type="curve" smooth="yes"/>
	  <point x="565" y="490"/>
	  <point x="458" y="563"/>
	  <point x="348" y="563" type="curve" smooth="yes"/>
	  <point x="272" y="563"/>
	  <point x="214" y="529"/>
	  <point x="175" y="498" type="curve"/>
	  <point x="175" y="784" type="line"/>
	  <point x="158" y="792" type="line"/>
	  <point x="21" y="778" type="line"/>
	  <point x="21" y="745" type="line"/>
	  <point x="105" y="732" type="line"/>
	</contour>
	<contour>
	  <point x="175" y="458" type="line"/>
	  <point x="207" y="487"/>
	  <point x="263" y="511"/>
	  <point x="319" y="511" type="curve" smooth="yes"/>
	  <point x="411" y="511"/>
	  <point x="497" y="450"/>
	  <point x="495" y="278" type="curve" smooth="yes"/>
	  <point x="494" y="108"/>
	  <point x="397" y="27"/>
	  <point x="298" y="27" type="curve" smooth="yes"/>
	  <point x="242" y="27"/>
	  <point x="186" y="38"/>
	  <point x="175" y="65" type="curve"/>
	</contour>
  </outline>
</glyph>
<glyph name="d" format="1">
  <advance width="620"/>
  <unicode hex="0064"/>
  <outline>
	<contour>
	  <point x="342" y="776" type="line"/>
	  <point x="342" y="743" type="line"/>
	  <point x="442" y="731" type="line"/>
	  <point x="442" y="542" type="line"/>
	  <point x="421" y="549"/>
	  <point x="391" y="563"/>
	  <point x="332" y="563" type="curve" smooth="yes"/>
	  <point x="177" y="563"/>
	  <point x="52" y="438"/>
	  <point x="52" y="264" type="curve" smooth="yes"/>
	  <point x="52" y="73"/>
	  <point x="154" y="-12"/>
	  <point x="268" y="-12" type="curve" smooth="yes"/>
	  <point x="359" y="-12"/>
	  <point x="419" y="23"/>
	  <point x="445" y="46" type="curve"/>
	  <point x="445" y="3"/>
	  <point x="450" y="-11"/>
	  <point x="490" y="-11" type="curve" smooth="yes"/>
	  <point x="517" y="-11"/>
	  <point x="558" y="-4"/>
	  <point x="579" y="5" type="curve"/>
	  <point x="579" y="35" type="line"/>
	  <point x="513" y="35" type="line"/>
	  <point x="513" y="782" type="line"/>
	  <point x="494" y="792" type="line"/>
	</contour>
	<contour>
	  <point x="403" y="521"/>
	  <point x="429" y="494"/>
	  <point x="442" y="480" type="curve"/>
	  <point x="442" y="89" type="line"/>
	  <point x="404" y="54"/>
	  <point x="348" y="40"/>
	  <point x="295" y="40" type="curve" smooth="yes"/>
	  <point x="199" y="40"/>
	  <point x="120" y="119"/>
	  <point x="123" y="281" type="curve" smooth="yes"/>
	  <point x="125" y="450"/>
	  <point x="228" y="521"/>
	  <point x="324" y="521" type="curve" smooth="yes"/>
	</contour>
  </outline>
</glyph>
<glyph name="g" format="1">
  <advance width="587"/>
  <unicode hex="0067"/>
  <outline>
	<contour>
	  <point x="180" y="564"/>
	  <point x="70" y="501"/>
	  <point x="70" y="368" type="curve" smooth="yes"/>
	  <point x="70" y="294"/>
	  <point x="103" y="244"/>
	  <point x="155" y="215" type="curve"/>
	  <point x="117" y="180"/>
	  <point x="97" y="126"/>
	  <point x="97" y="101" type="curve" smooth="yes"/>
	  <point x="97" y="75"/>
	  <point x="96" y="39"/>
	  <point x="146" y="20" type="curve"/>
	  <point x="112" y="-1"/>
	  <point x="62" y="-54"/>
	  <point x="62" y="-117" type="curve" smooth="yes"/>
	  <point x="62" y="-225"/>
	  <point x="177" y="-259"/>
	  <point x="300" y="-259" type="curve" smooth="yes"/>
	  <point x="450" y="-259"/>
	  <point x="553" y="-191"/>
	  <point x="553" y="-80" type="curve" smooth="yes"/>
	  <point x="553" y="-23"/>
	  <point x="540" y="62"/>
	  <point x="358" y="62" type="curve" smooth="yes"/>
	  <point x="320" y="62"/>
	  <point x="254" y="61"/>
	  <point x="235" y="63" type="curve"/>
	  <point x="181" y="66"/>
	  <point x="161" y="83"/>
	  <point x="161" y="128" type="curve" smooth="yes"/>
	  <point x="161" y="147"/>
	  <point x="164" y="181"/>
	  <point x="178" y="204" type="curve"/>
	  <point x="208" y="192"/>
	  <point x="242" y="186"/>
	  <point x="281" y="186" type="curve" smooth="yes"/>
	  <point x="396" y="186"/>
	  <point x="498" y="258"/>
	  <point x="498" y="386" type="curve" smooth="yes"/>
	  <point x="498" y="433"/>
	  <point x="486" y="469"/>
	  <point x="466" y="497" type="curve"/>
	  <point x="574" y="496" type="line"/>
	  <point x="574" y="553" type="line"/>
	  <point x="516" y="553" type="line" smooth="yes"/>
	  <point x="471" y="553"/>
	  <point x="444" y="544"/>
	  <point x="430" y="531" type="curve"/>
	  <point x="393" y="557"/>
	  <point x="345" y="568"/>
	  <point x="292" y="567" type="curve" smooth="yes"/>
	</contour>
	<contour>
	  <point x="197" y="6"/>
	  <point x="225" y="3"/>
	  <point x="261" y="3" type="curve" smooth="yes"/>
	  <point x="344" y="3" type="line" smooth="yes"/>
	  <point x="473" y="1"/>
	  <point x="496" y="-39"/>
	  <point x="496" y="-98" type="curve" smooth="yes"/>
	  <point x="496" y="-181"/>
	  <point x="413" y="-216"/>
	  <point x="310" y="-216" type="curve" smooth="yes"/>
	  <point x="231" y="-216"/>
	  <point x="131" y="-193"/>
	  <point x="131" y="-94" type="curve" smooth="yes"/>
	  <point x="131" y="-42"/>
	  <point x="152" y="-10"/>
	  <point x="175" y="11" type="curve"/>
	</contour>
	<contour>
	  <point x="378" y="527"/>
	  <point x="429" y="479"/>
	  <point x="429" y="374" type="curve" smooth="yes"/>
	  <point x="429" y="274"/>
	  <point x="377" y="227"/>
	  <point x="293" y="227" type="curve" smooth="yes"/>
	  <point x="188" y="227"/>
	  <point x="139" y="292"/>
	  <point x="139" y="380" type="curve" smooth="yes"/>
	  <point x="139" y="487"/>
	  <point x="205" y="527"/>
	  <point x="281" y="527" type="curve" smooth="yes"/>
	</contour>
  </outline>
</glyph>
<glyph name="h" format="1">
  <advance width="686"/>
  <unicode hex="0068"/>
  <outline>
	<contour>
	  <point x="64" y="0" type="line"/>
	  <point x="285" y="0" type="line"/>
	  <point x="285" y="33" type="line"/>
	  <point x="208" y="42" type="line"/>
	  <point x="208" y="449" type="line"/>
	  <point x="254" y="481"/>
	  <point x="328" y="503"/>
	  <point x="377" y="503" type="curve" smooth="yes"/>
	  <point x="485" y="503"/>
	  <point x="504" y="436"/>
	  <point x="504" y="268" type="curve" smooth="yes"/>
	  <point x="504" y="42" type="line"/>
	  <point x="423" y="33" type="line"/>
	  <point x="423" y="0" type="line"/>
	  <point x="650" y="0" type="line"/>
	  <point x="650" y="33" type="line"/>
	  <point x="575" y="42" type="line"/>
	  <point x="575" y="296" type="line" smooth="yes"/>
	  <point x="576" y="486"/>
	  <point x="541" y="558"/>
	  <point x="408" y="558" type="curve" smooth="yes"/>
	  <point x="354" y="558"/>
	  <point x="264" y="524"/>
	  <point x="207" y="480" type="curve"/>
	  <point x="208" y="552" type="line"/>
	  <point x="208" y="782" type="line"/>
	  <point x="189" y="792" type="line"/>
	  <point x="55" y="776" type="line"/>
	  <point x="55" y="742" type="line"/>
	  <point x="138" y="730" type="line"/>
	  <point x="138" y="42" type="line"/>
	  <point x="64" y="33" type="line"/>
	</contour>
  </outline>
</glyph>
<glyph name="j" format="1">
  <advance width="317"/>
  <unicode hex="006A"/>
  <outline>
	<contour>
	  <point x="74" y="523" type="line"/>
	  <point x="74" y="499" type="line"/>
	  <point x="148" y="474" type="line"/>
	  <point x="148" y="-1" type="line" smooth="yes"/>
	  <point x="148" y="-156"/>
	  <point x="112" y="-198"/>
	  <point x="49" y="-198" type="curve" smooth="yes"/>
	  <point x="38" y="-198"/>
	  <point x="6" y="-197"/>
	  <point x="-5" y="-193" type="curve"/>
	  <point x="-5" y="-244" type="line"/>
	  <point x="1" y="-249"/>
	  <point x="35" y="-251"/>
	  <point x="48" y="-251" type="curve" smooth="yes"/>
	  <point x="156" y="-251"/>
	  <point x="217" y="-160"/>
	  <point x="217" y="-8" type="curve" smooth="yes"/>
	  <point x="217" y="544" type="line"/>
	  <point x="198" y="553" type="line"/>
	</contour>
	<contour>
	  <point x="146" y="791"/>
	  <point x="116" y="768"/>
	  <point x="116" y="735" type="curve" smooth="yes"/>
	  <point x="116" y="705"/>
	  <point x="140" y="688"/>
	  <point x="165" y="688" type="curve" smooth="yes"/>
	  <point x="194" y="688"/>
	  <point x="222" y="709"/>
	  <point x="222" y="743" type="curve" smooth="yes"/>
	  <point x="222" y="770"/>
	  <point x="208" y="791"/>
	  <point x="174" y="791" type="curve" smooth="yes"/>
	</contour>
  </outline>
</glyph>
<glyph name="k" format="1">
  <advance width="622"/>
  <unicode hex="006B"/>
  <outline>
    <contour>
      <point x="59" y="0" type="line"/>
      <point x="285" y="0" type="line"/>
      <point x="285" y="33" type="line"/>
      <point x="209" y="42" type="line"/>
      <point x="209" y="96" type="line"/>
      <point x="207" y="211" type="line"/>
      <point x="296" y="295" type="line"/>
      <point x="479" y="42" type="line"/>
      <point x="407" y="33" type="line"/>
      <point x="407" y="0" type="line"/>
      <point x="630" y="0" type="line"/>
      <point x="630" y="33" type="line"/>
      <point x="558" y="42" type="line"/>
      <point x="339" y="331" type="line"/>
      <point x="521" y="505" type="line"/>
      <point x="596" y="512" type="line"/>
      <point x="596" y="551" type="line"/>
      <point x="382" y="551" type="line"/>
      <point x="382" y="511" type="line"/>
      <point x="455" y="505" type="line"/>
      <point x="207" y="264" type="line"/>
      <point x="209" y="373" type="line"/>
      <point x="209" y="782" type="line"/>
      <point x="192" y="792" type="line"/>
      <point x="52" y="776" type="line"/>
      <point x="52" y="742" type="line"/>
      <point x="138" y="730" type="line"/>
      <point x="138" y="42" type="line"/>
      <point x="59" y="33" type="line"/>
    </contour>
  </outline>
</glyph>
<glyph name="l" format="1">
  <advance width="341"/>
  <unicode hex="006C"/>
  <outline>
    <contour>
      <point x="67" y="0" type="line"/>
      <point x="305" y="0" type="line"/>
      <point x="305" y="33" type="line"/>
      <point x="219" y="41" type="line"/>
      <point x="219" y="782" type="line"/>
      <point x="202" y="792" type="line"/>
      <point x="69" y="776" type="line"/>
      <point x="69" y="742" type="line"/>
      <point x="148" y="730" type="line"/>
      <point x="148" y="42" type="line"/>
      <point x="67" y="33" type="line"/>
    </contour>
  </outline>
</glyph>
<glyph name="m" format="1">
  <advance width="1011"/>
  <unicode hex="006D"/>
  <outline>
	<contour>
	  <point x="68" y="0" type="line"/>
	  <point x="285" y="0" type="line"/>
	  <point x="285" y="33" type="line"/>
	  <point x="208" y="42" type="line"/>
	  <point x="208" y="443" type="line"/>
	  <point x="258" y="477"/>
	  <point x="323" y="501"/>
	  <point x="371" y="502" type="curve" smooth="yes"/>
	  <point x="475" y="505"/>
	  <point x="492" y="450"/>
	  <point x="492" y="320" type="curve" smooth="yes"/>
	  <point x="492" y="42" type="line"/>
	  <point x="417" y="33" type="line"/>
	  <point x="417" y="0" type="line"/>
	  <point x="639" y="0" type="line"/>
	  <point x="639" y="33" type="line"/>
	  <point x="562" y="42" type="line"/>
	  <point x="562" y="328" type="line" smooth="yes"/>
	  <point x="562" y="376"/>
	  <point x="558" y="423"/>
	  <point x="550" y="455" type="curve"/>
	  <point x="593" y="479"/>
	  <point x="652" y="501"/>
	  <point x="704" y="503" type="curve" smooth="yes"/>
	  <point x="811" y="505"/>
	  <point x="830" y="445"/>
	  <point x="830" y="311" type="curve" smooth="yes"/>
	  <point x="830" y="42" type="line"/>
	  <point x="760" y="33" type="line"/>
	  <point x="760" y="0" type="line"/>
	  <point x="982" y="0" type="line"/>
	  <point x="982" y="33" type="line"/>
	  <point x="900" y="42" type="line"/>
	  <point x="900" y="323" type="line" smooth="yes"/>
	  <point x="900" y="497"/>
	  <point x="859" y="560"/>
	  <point x="737" y="556" type="curve" smooth="yes"/>
	  <point x="673" y="554"/>
	  <point x="581" y="521"/>
	  <point x="538" y="488" type="curve"/>
	  <point x="515" y="537"/>
	  <point x="475" y="558"/>
	  <point x="404" y="556" type="curve" smooth="yes"/>
	  <point x="336" y="555"/>
	  <point x="245" y="513"/>
	  <point x="199" y="477" type="curve"/>
	  <point x="199" y="544" type="line"/>
	  <point x="182" y="553" type="line"/>
	  <point x="65" y="524" type="line"/>
	  <point x="65" y="499" type="line"/>
	  <point x="137" y="473" type="line"/>
	  <point x="137" y="42" type="line"/>
	  <point x="68" y="33" type="line"/>
	</contour>
  </outline>
</glyph>
<glyph name="r" format="1">
  <advance width="451"/>
  <unicode hex="0072"/>
  <outline>
    <contour>
      <point x="52" y="0" type="line"/>
      <point x="356" y="0" type="line"/>
      <point x="356" y="33" type="line"/>
      <point x="208" y="42" type="line"/>
      <point x="208" y="447" type="line"/>
      <point x="238" y="466"/>
      <point x="291" y="491"/>
      <point x="353" y="491" type="curve" smooth="yes"/>
      <point x="393" y="491"/>
      <point x="413" y="485"/>
      <point x="431" y="478" type="curve"/>
      <point x="431" y="553" type="line"/>
      <point x="423" y="555"/>
      <point x="404" y="556"/>
      <point x="382" y="556" type="curve" smooth="yes"/>
      <point x="317" y="556"/>
      <point x="227" y="510"/>
      <point x="200" y="476" type="curve"/>
      <point x="200" y="544" type="line"/>
      <point x="181" y="553" type="line"/>
      <point x="66" y="523" type="line"/>
      <point x="66" y="499" type="line"/>
      <point x="138" y="473" type="line"/>
      <point x="138" y="42" type="line"/>
      <point x="52" y="33" type="line"/>
    </contour>
  </outline>
</glyph>
<glyph name="s" format="1">
  <advance width="512"/>
  <unicode hex="0073"/>
  <outline>
    <contour>
      <point x="78" y="30" type="line"/>
      <point x="127" y="2"/>
      <point x="189" y="-12"/>
      <point x="248" y="-12" type="curve" smooth="yes"/>
      <point x="367" y="-12"/>
      <point x="456" y="42"/>
      <point x="456" y="146" type="curve" smooth="yes"/>
      <point x="456" y="244"/>
      <point x="362" y="275"/>
      <point x="290" y="308" type="curve" smooth="yes"/>
      <point x="216" y="343"/>
      <point x="151" y="367"/>
      <point x="153" y="431" type="curve" smooth="yes"/>
      <point x="154" y="486"/>
      <point x="200" y="524"/>
      <point x="279" y="524" type="curve" smooth="yes"/>
      <point x="322" y="524"/>
      <point x="358" y="510"/>
      <point x="379" y="490" type="curve"/>
      <point x="396" y="429" type="line"/>
      <point x="429" y="429" type="line"/>
      <point x="429" y="527" type="line"/>
      <point x="402" y="544"/>
      <point x="340" y="564"/>
      <point x="276" y="563" type="curve" smooth="yes"/>
      <point x="189" y="560"/>
      <point x="86" y="517"/>
      <point x="85" y="418" type="curve" smooth="yes"/>
      <point x="83" y="332"/>
      <point x="159" y="290"/>
      <point x="237" y="255" type="curve" smooth="yes"/>
      <point x="310" y="222"/>
      <point x="388" y="200"/>
      <point x="388" y="130" type="curve" smooth="yes"/>
      <point x="388" y="57"/>
      <point x="326" y="27"/>
      <point x="247" y="30" type="curve" smooth="yes"/>
      <point x="202" y="32"/>
      <point x="162" y="42"/>
      <point x="128" y="70" type="curve"/>
      <point x="113" y="136" type="line"/>
      <point x="78" y="136" type="line"/>
    </contour>
  </outline>
</glyph>
<glyph name="t" format="1">
  <advance width="421"/>
  <unicode hex="0074"/>
  <outline>
	<contour>
	  <point x="165" y="677" type="line"/>
	  <point x="163" y="650"/>
	  <point x="149" y="578"/>
	  <point x="141" y="561" type="curve"/>
	  <point x="126" y="536"/>
	  <point x="110" y="538"/>
	  <point x="55" y="527" type="curve"/>
	  <point x="55" y="498" type="line"/>
	  <point x="133" y="498" type="line"/>
	  <point x="133" y="374"/>
	  <point x="133" y="249"/>
	  <point x="133" y="125" type="curve" smooth="yes"/>
	  <point x="133" y="25"/>
	  <point x="170" y="-12"/>
	  <point x="241" y="-12" type="curve" smooth="yes"/>
	  <point x="286" y="-12"/>
	  <point x="361" y="5"/>
	  <point x="390" y="37" type="curve"/>
	  <point x="378" y="72" type="line"/>
	  <point x="362" y="61"/>
	  <point x="313" y="40"/>
	  <point x="267" y="40" type="curve" smooth="yes"/>
	  <point x="210" y="40"/>
	  <point x="202" y="72"/>
	  <point x="202" y="204" type="curve" smooth="yes"/>
	  <point x="202" y="498" type="line"/>
	  <point x="385" y="498" type="line"/>
	  <point x="385" y="545" type="line"/>
	  <point x="202" y="545" type="line"/>
	  <point x="202" y="677" type="line"/>
	</contour>
  </outline>
</glyph>
<glyph name="v" format="1">
  <advance width="580"/>
  <unicode hex="0076"/>
  <outline>
	<contour>
	  <point x="272" y="-12" type="line"/>
	  <point x="323" y="-12" type="line"/>
	  <point x="523" y="498" type="line"/>
	  <point x="581" y="507" type="line"/>
	  <point x="581" y="546" type="line"/>
	  <point x="393" y="546" type="line"/>
	  <point x="393" y="506" type="line"/>
	  <point x="462" y="498" type="line"/>
	  <point x="351" y="189" type="line"/>
	  <point x="306" y="60" type="line"/>
	  <point x="260" y="193" type="line"/>
	  <point x="134" y="499" type="line"/>
	  <point x="205" y="507" type="line"/>
	  <point x="205" y="546" type="line"/>
	  <point x="1" y="546" type="line"/>
	  <point x="1" y="507" type="line"/>
	  <point x="54" y="499" type="line"/>
	</contour>
  </outline>
</glyph>
<glyph name="w" format="1">
  <advance width="826"/>
  <unicode hex="0077"/>
  <outline>
    <contour>
      <point x="226" y="-12" type="line"/>
      <point x="287" y="-12" type="line"/>
      <point x="397" y="384" type="line"/>
      <point x="417" y="462" type="line"/>
      <point x="433" y="384" type="line"/>
      <point x="548" y="-12" type="line"/>
      <point x="615" y="-12" type="line"/>
      <point x="762" y="498" type="line"/>
      <point x="825" y="507" type="line"/>
      <point x="825" y="546" type="line"/>
      <point x="637" y="546" type="line"/>
      <point x="637" y="506" type="line"/>
      <point x="704" y="499" type="line"/>
      <point x="608" y="135" type="line"/>
      <point x="588" y="56" type="line"/>
      <point x="567" y="138" type="line"/>
      <point x="453" y="546" type="line"/>
      <point x="391" y="546" type="line"/>
      <point x="278" y="138" type="line"/>
      <point x="261" y="60" type="line"/>
      <point x="242" y="138" type="line"/>
      <point x="130" y="498" type="line"/>
      <point x="207" y="506" type="line"/>
      <point x="207" y="546" type="line"/>
      <point x="1" y="546" type="line"/>
      <point x="1" y="506" type="line"/>
      <point x="58" y="499" type="line"/>
    </contour>
  </outline>
</glyph>
<glyph name="z" format="1">
  <advance width="526"/>
  <unicode hex="007A"/>
  <outline>
    <contour>
      <point x="67" y="546" type="line"/>
      <point x="66" y="411" type="line"/>
      <point x="101" y="411" type="line"/>
      <point x="125" y="503" type="line"/>
      <point x="405" y="511" type="line"/>
      <point x="363" y="460" type="line"/>
      <point x="81" y="84" type="line"/>
      <point x="43" y="34" type="line"/>
      <point x="57" y="0" type="line"/>
      <point x="489" y="0" type="line"/>
      <point x="498" y="134" type="line"/>
      <point x="459" y="135" type="line"/>
      <point x="432" y="47" type="line"/>
      <point x="127" y="38" type="line"/>
      <point x="176" y="99" type="line"/>
      <point x="488" y="514" type="line"/>
      <point x="477" y="546" type="line"/>
    </contour>
  </outline>
</glyph>
<glyph name="braceleft" format="1">
  <advance width="495"/>
  <unicode hex="007B"/>
  <outline>
    <contour>
      <point x="169" y="21" type="line" smooth="yes"/>
      <point x="169" y="-68"/>
      <point x="182" y="-87"/>
      <point x="243" y="-87" type="curve" smooth="yes"/>
      <point x="296" y="-87"/>
      <point x="331" y="-79"/>
      <point x="373" y="-70" type="curve"/>
      <point x="373" y="-61"/>
      <point x="372" y="-46"/>
      <point x="372" y="-37" type="curve"/>
      <point x="230" y="-37" type="line"/>
      <point x="230" y="280" type="line" smooth="yes"/>
      <point x="230" y="301"/>
      <point x="217" y="317"/>
      <point x="198" y="333" type="curve"/>
      <point x="172" y="352"/>
      <point x="146" y="364"/>
      <point x="115" y="379" type="curve"/>
      <point x="144" y="392"/>
      <point x="166" y="402"/>
      <point x="191" y="417" type="curve" smooth="yes"/>
      <point x="214" y="431"/>
      <point x="230" y="447"/>
      <point x="230" y="473" type="curve" smooth="yes"/>
      <point x="230" y="786" type="line"/>
      <point x="372" y="786" type="line"/>
      <point x="372" y="795"/>
      <point x="373" y="809"/>
      <point x="373" y="818" type="curve"/>
      <point x="333" y="826"/>
      <point x="303" y="835"/>
      <point x="250" y="835" type="curve" smooth="yes"/>
      <point x="182" y="835"/>
      <point x="169" y="816"/>
      <point x="169" y="728" type="curve" smooth="yes"/>
      <point x="169" y="472" type="line" smooth="yes"/>
      <point x="169" y="446"/>
      <point x="87" y="415"/>
      <point x="44" y="403" type="curve"/>
      <point x="44" y="356" type="line"/>
      <point x="88" y="344"/>
      <point x="169" y="306"/>
      <point x="169" y="281" type="curve" smooth="yes"/>
    </contour>
  </outline>
</glyph>
<glyph name="braceright" format="1">
  <advance width="469"/>
  <unicode hex="007D"/>
  <outline>
	<contour>
	  <point x="97" y="-37" type="line"/>
	  <point x="97" y="-70" type="line"/>
	  <point x="138" y="-79"/>
	  <point x="173" y="-87"/>
	  <point x="226" y="-87" type="curve" smooth="yes"/>
	  <point x="287" y="-87"/>
	  <point x="300" y="-68"/>
	  <point x="300" y="21" type="curve" smooth="yes"/>
	  <point x="300" y="281" type="line" smooth="yes"/>
	  <point x="300" y="306"/>
	  <point x="382" y="344"/>
	  <point x="425" y="356" type="curve"/>
	  <point x="425" y="403" type="line"/>
	  <point x="382" y="415"/>
	  <point x="300" y="446"/>
	  <point x="300" y="472" type="curve" smooth="yes"/>
	  <point x="300" y="728" type="line" smooth="yes"/>
	  <point x="300" y="816"/>
	  <point x="288" y="835"/>
	  <point x="220" y="835" type="curve" smooth="yes"/>
	  <point x="167" y="835"/>
	  <point x="136" y="826"/>
	  <point x="97" y="818" type="curve"/>
	  <point x="97" y="786" type="line"/>
	  <point x="239" y="786" type="line"/>
	  <point x="239" y="473" type="line" smooth="yes"/>
	  <point x="239" y="431"/>
	  <point x="283" y="412"/>
	  <point x="354" y="379" type="curve"/>
	  <point x="295" y="352"/>
	  <point x="239" y="322"/>
	  <point x="239" y="280" type="curve" smooth="yes"/>
	  <point x="239" y="-37" type="line"/>
	</contour>
  </outline>
</glyph>
<glyph name="asciitilde" format="1">
  <advance width="614"/>
  <unicode hex="007E"/>
  <outline>
	<contour>
	  <point x="102" y="389" type="line"/>
	  <point x="127" y="415"/>
	  <point x="160" y="447"/>
	  <point x="211" y="447" type="curve" smooth="yes"/>
	  <point x="272" y="447"/>
	  <point x="304" y="356"/>
	  <point x="379" y="356" type="curve" smooth="yes"/>
	  <point x="451" y="356"/>
	  <point x="509" y="400"/>
	  <point x="538" y="445" type="curve"/>
	  <point x="510" y="479" type="line"/>
	  <point x="484" y="453"/>
	  <point x="451" y="421"/>
	  <point x="400" y="421" type="curve" smooth="yes"/>
	  <point x="339" y="421"/>
	  <point x="309" y="511"/>
	  <point x="232" y="511" type="curve" smooth="yes"/>
	  <point x="160" y="511"/>
	  <point x="104" y="467"/>
	  <point x="75" y="422" type="curve"/>
	</contour>
  </outline>
</glyph>
<glyph name="exclamdown" format="1">
  <advance width="348"/>
  <unicode hex="00A1"/>
  <outline>
    <contour>
      <point x="146" y="466" type="line"/>
      <point x="121" y="-194" type="line"/>
      <point x="213" y="-194" type="line"/>
      <point x="191" y="466" type="line"/>
    </contour>
    <contour>
      <point x="160" y="698"/>
      <point x="133" y="682"/>
      <point x="128" y="654" type="curve"/>
      <point x="124" y="628"/>
      <point x="140" y="610"/>
      <point x="161" y="606" type="curve"/>
      <point x="187" y="604"/>
      <point x="213" y="619"/>
      <point x="217" y="648" type="curve"/>
      <point x="221" y="671"/>
      <point x="213" y="692"/>
      <point x="184" y="696" type="curve" smooth="yes"/>
    </contour>
  </outline>
</glyph>
<glyph name="cent" format="1">
  <advance width="544"/>
  <unicode hex="00A2"/>
  <outline>
    <contour>
      <point x="247" y="-105" type="line"/>
      <point x="294" y="-105" type="line"/>
      <point x="300" y="-10" type="line"/>
      <point x="372" y="-9"/>
      <point x="445" y="9"/>
      <point x="483" y="43" type="curve"/>
      <point x="470" y="78" type="line"/>
      <point x="438" y="55"/>
      <point x="367" y="41"/>
      <point x="323" y="41" type="curve" smooth="yes"/>
      <point x="228" y="41"/>
      <point x="129" y="111"/>
      <point x="131" y="296" type="curve" smooth="yes"/>
      <point x="132" y="439"/>
      <point x="220" y="517"/>
      <point x="321" y="517" type="curve" smooth="yes"/>
      <point x="354" y="517"/>
      <point x="389" y="512"/>
      <point x="412" y="495" type="curve"/>
      <point x="432" y="432" type="line"/>
      <point x="468" y="432" type="line"/>
      <point x="468" y="537" type="line"/>
      <point x="446" y="551"/>
      <point x="397" y="560"/>
      <point x="350" y="561" type="curve"/>
      <point x="357" y="665" type="line"/>
      <point x="310" y="665" type="line"/>
      <point x="302" y="559" type="line"/>
      <point x="165" y="542"/>
      <point x="61" y="432"/>
      <point x="63" y="263" type="curve" smooth="yes"/>
      <point x="64" y="122"/>
      <point x="130" y="13"/>
      <point x="252" y="-7" type="curve"/>
    </contour>
  </outline>
</glyph>
<glyph name="sterling" format="1">
  <advance width="704"/>
  <unicode hex="00A3"/>
  <outline>
	<contour>
	  <point x="306" y="760"/>
	  <point x="213" y="640"/>
	  <point x="213" y="481" type="curve" smooth="yes"/>
	  <point x="213" y="427" type="line"/>
	  <point x="116" y="427" type="line"/>
	  <point x="116" y="373" type="line"/>
	  <point x="213" y="373" type="line"/>
	  <point x="213" y="248" type="line" smooth="yes"/>
	  <point x="213" y="183"/>
	  <point x="188" y="109"/>
	  <point x="160" y="81" type="curve"/>
	  <point x="94" y="84"/>
	  <point x="43" y="52"/>
	  <point x="43" y="21" type="curve" smooth="yes"/>
	  <point x="43" y="-10"/>
	  <point x="69" y="-15"/>
	  <point x="84" y="-15" type="curve" smooth="yes"/>
	  <point x="116" y="-15"/>
	  <point x="147" y="8"/>
	  <point x="168" y="36" type="curve"/>
	  <point x="209" y="44"/>
	  <point x="301" y="-21"/>
	  <point x="448" y="-16" type="curve"/>
	  <point x="646" y="-16"/>
	  <point x="663" y="117"/>
	  <point x="655" y="182" type="curve" smooth="yes"/>
	  <point x="647" y="236"/>
	  <point x="622" y="276"/>
	  <point x="577" y="296" type="curve"/>
	  <point x="544" y="233" type="line"/>
	  <point x="573" y="213"/>
	  <point x="588" y="182"/>
	  <point x="588" y="147" type="curve" smooth="yes"/>
	  <point x="588" y="81"/>
	  <point x="553" y="5"/>
	  <point x="396" y="27" type="curve" smooth="yes"/>
	  <point x="334" y="36"/>
	  <point x="251" y="69"/>
	  <point x="207" y="70" type="curve"/>
	  <point x="248" y="125"/>
	  <point x="284" y="188"/>
	  <point x="284" y="330" type="curve" smooth="yes"/>
	  <point x="284" y="373" type="line"/>
	  <point x="457" y="373" type="line"/>
	  <point x="457" y="427" type="line"/>
	  <point x="284" y="427" type="line"/>
	  <point x="284" y="483" type="line" smooth="yes"/>
	  <point x="284" y="671"/>
	  <point x="349" y="714"/>
	  <point x="413" y="716" type="curve" smooth="yes"/>
	  <point x="488" y="717"/>
	  <point x="537" y="665"/>
	  <point x="542" y="655" type="curve"/>
	  <point x="578" y="722" type="line"/>
	  <point x="544" y="751"/>
	  <point x="504" y="764"/>
	  <point x="446" y="762" type="curve" smooth="yes"/>
	</contour>
  </outline>
</glyph>
<glyph name="currency" format="1">
  <advance width="701"/>
  <unicode hex="00A4"/>
  <outline>
	<contour>
	  <point x="115" y="538" type="line"/>
	  <point x="201" y="451" type="line"/>
	  <point x="176" y="420"/>
	  <point x="162" y="380"/>
	  <point x="162" y="337" type="curve" smooth="yes"/>
	  <point x="162" y="292"/>
	  <point x="177" y="251"/>
	  <point x="203" y="220" type="curve"/>
	  <point x="118" y="134" type="line"/>
	  <point x="150" y="101" type="line"/>
	  <point x="237" y="188" type="line"/>
	  <point x="268" y="165"/>
	  <point x="306" y="152"/>
	  <point x="347" y="152" type="curve" smooth="yes"/>
	  <point x="390" y="152"/>
	  <point x="429" y="166"/>
	  <point x="461" y="191" type="curve"/>
	  <point x="547" y="104" type="line"/>
	  <point x="581" y="137" type="line"/>
	  <point x="494" y="223" type="line"/>
	  <point x="519" y="254"/>
	  <point x="533" y="294"/>
	  <point x="533" y="337" type="curve" smooth="yes"/>
	  <point x="533" y="377"/>
	  <point x="520" y="413"/>
	  <point x="498" y="444" type="curve"/>
	  <point x="586" y="532" type="line"/>
	  <point x="554" y="565" type="line"/>
	  <point x="467" y="479" type="line"/>
	  <point x="434" y="506"/>
	  <point x="393" y="522"/>
	  <point x="347" y="522" type="curve" smooth="yes"/>
	  <point x="304" y="522"/>
	  <point x="266" y="508"/>
	  <point x="234" y="484" type="curve"/>
	  <point x="147" y="571" type="line"/>
	</contour>
	<contour>
	  <point x="419" y="474"/>
	  <point x="479" y="412"/>
	  <point x="479" y="337" type="curve" smooth="yes"/>
	  <point x="479" y="261"/>
	  <point x="419" y="200"/>
	  <point x="347" y="200" type="curve" smooth="yes"/>
	  <point x="274" y="200"/>
	  <point x="216" y="261"/>
	  <point x="216" y="337" type="curve" smooth="yes"/>
	  <point x="216" y="412"/>
	  <point x="274" y="474"/>
	  <point x="347" y="474" type="curve" smooth="yes"/>
	</contour>
  </outline>
</glyph>
<glyph name="brokenbar" format="1">
  <advance width="426"/>
  <unicode hex="00A6"/>
  <outline>
	<contour>
	  <point x="175" y="433" type="line"/>
	  <point x="239" y="433" type="line"/>
	  <point x="239" y="869" type="line"/>
	  <point x="175" y="869" type="line"/>
	</contour>
	<contour>
	  <point x="175" y="-91" type="line"/>
	  <point x="239" y="-91" type="line"/>
	  <point x="239" y="346" type="line"/>
	  <point x="175" y="346" type="line"/>
	</contour>
  </outline>
</glyph>
<glyph name="section" format="1">
  <advance width="648"/>
  <unicode hex="00A7"/>
  <outline>
	<contour>
	  <point x="244" y="858"/>
	  <point x="101" y="802"/>
	  <point x="101" y="660" type="curve" smooth="yes"/>
	  <point x="101" y="613"/>
	  <point x="121" y="578"/>
	  <point x="152" y="548" type="curve"/>
	  <point x="118" y="513"/>
	  <point x="93" y="456"/>
	  <point x="93" y="396" type="curve" smooth="yes"/>
	  <point x="93" y="189"/>
	  <point x="491" y="211"/>
	  <point x="491" y="31" type="curve" smooth="yes"/>
	  <point x="491" y="-66"/>
	  <point x="397" y="-97"/>
	  <point x="318" y="-97" type="curve" smooth="yes"/>
	  <point x="261" y="-97"/>
	  <point x="192" y="-92"/>
	  <point x="146" y="-47" type="curve"/>
	  <point x="122" y="50" type="line"/>
	  <point x="88" y="50" type="line"/>
	  <point x="88" y="-96" type="line"/>
	  <point x="116" y="-113"/>
	  <point x="212" y="-138"/>
	  <point x="309" y="-138" type="curve" smooth="yes"/>
	  <point x="442" y="-138"/>
	  <point x="559" y="-83"/>
	  <point x="559" y="53" type="curve" smooth="yes"/>
	  <point x="559" y="94"/>
	  <point x="543" y="126"/>
	  <point x="518" y="153" type="curve"/>
	  <point x="547" y="190"/>
	  <point x="566" y="251"/>
	  <point x="566" y="311" type="curve" smooth="yes"/>
	  <point x="566" y="520"/>
	  <point x="168" y="500"/>
	  <point x="168" y="673" type="curve" smooth="yes"/>
	  <point x="168" y="782"/>
	  <point x="269" y="818"/>
	  <point x="332" y="818" type="curve" smooth="yes"/>
	  <point x="387" y="818"/>
	  <point x="442" y="810"/>
	  <point x="467" y="786" type="curve"/>
	  <point x="496" y="688" type="line"/>
	  <point x="529" y="688" type="line"/>
	  <point x="529" y="819" type="line"/>
	  <point x="500" y="836"/>
	  <point x="439" y="858"/>
	  <point x="337" y="858" type="curve" smooth="yes"/>
	</contour>
	<contour>
	  <point x="311" y="443"/>
	  <point x="499" y="415"/>
	  <point x="499" y="290" type="curve" smooth="yes"/>
	  <point x="499" y="254"/>
	  <point x="489" y="215"/>
	  <point x="474" y="188" type="curve"/>
	  <point x="357" y="263"/>
	  <point x="161" y="290"/>
	  <point x="161" y="410" type="curve" smooth="yes"/>
	  <point x="161" y="451"/>
	  <point x="174" y="490"/>
	  <point x="193" y="518" type="curve"/>
	</contour>
  </outline>
</glyph>
<glyph name="copyright" format="1">
  <advance width="992"/>
  <unicode hex="00A9"/>
  <outline>
    <contour>
      <point x="270" y="937"/>
      <point x="84" y="749"/>
      <point x="84" y="522" type="curve" smooth="yes"/>
      <point x="84" y="296"/>
      <point x="270" y="107"/>
      <point x="496" y="107" type="curve" smooth="yes"/>
      <point x="722" y="107"/>
      <point x="908" y="296"/>
      <point x="908" y="522" type="curve" smooth="yes"/>
      <point x="908" y="749"/>
      <point x="722" y="937"/>
      <point x="496" y="937" type="curve" smooth="yes"/>
    </contour>
    <contour>
      <point x="397" y="760"/>
      <point x="282" y="656"/>
      <point x="282" y="518" type="curve" smooth="yes"/>
      <point x="282" y="383"/>
      <point x="356" y="285"/>
      <point x="500" y="285" type="curve" smooth="yes"/>
      <point x="569" y="285"/>
      <point x="630" y="313"/>
      <point x="658" y="345" type="curve"/>
      <point x="647" y="375" type="line"/>
      <point x="631" y="360"/>
      <point x="578" y="335"/>
      <point x="528" y="335" type="curve" smooth="yes"/>
      <point x="415" y="335"/>
      <point x="350" y="424"/>
      <point x="350" y="535" type="curve" smooth="yes"/>
      <point x="350" y="643"/>
      <point x="410" y="725"/>
      <point x="498" y="727" type="curve" smooth="yes"/>
      <point x="555" y="727"/>
      <point x="575" y="718"/>
      <point x="590" y="708" type="curve"/>
      <point x="609" y="645" type="line"/>
      <point x="653" y="645" type="line"/>
      <point x="653" y="739" type="line"/>
      <point x="634" y="763"/>
      <point x="556" y="772"/>
      <point x="499" y="768" type="curve" smooth="yes"/>
    </contour>
    <contour>
      <point x="697" y="891"/>
      <point x="858" y="724"/>
      <point x="858" y="522" type="curve" smooth="yes"/>
      <point x="858" y="321"/>
      <point x="697" y="153"/>
      <point x="496" y="153" type="curve" smooth="yes"/>
      <point x="295" y="153"/>
      <point x="134" y="321"/>
      <point x="134" y="522" type="curve" smooth="yes"/>
      <point x="134" y="724"/>
      <point x="295" y="891"/>
      <point x="496" y="891" type="curve" smooth="yes"/>
    </contour>
  </outline>
</glyph>
<glyph name="ordfeminine" format="1">
  <advance width="471"/>
  <unicode hex="00AA"/>
  <outline>
    <contour>
      <point x="165" y="778"/>
      <point x="90" y="757"/>
      <point x="62" y="731" type="curve"/>
      <point x="76" y="697" type="line"/>
      <point x="102" y="718"/>
      <point x="155" y="732"/>
      <point x="208" y="732" type="curve" smooth="yes"/>
      <point x="280" y="732"/>
      <point x="324" y="719"/>
      <point x="324" y="631" type="curve" smooth="yes"/>
      <point x="324" y="611" type="line"/>
      <point x="189" y="611"/>
      <point x="44" y="592"/>
      <point x="44" y="475" type="curve" smooth="yes"/>
      <point x="44" y="393"/>
      <point x="119" y="359"/>
      <point x="167" y="359" type="curve" smooth="yes"/>
      <point x="260" y="359"/>
      <point x="302" y="393"/>
      <point x="326" y="412" type="curve"/>
      <point x="326" y="370"/>
      <point x="328" y="356"/>
      <point x="361" y="356" type="curve" smooth="yes"/>
      <point x="380" y="356"/>
      <point x="416" y="364"/>
      <point x="430" y="370" type="curve"/>
      <point x="430" y="398" type="line"/>
      <point x="388" y="398" type="line"/>
      <point x="388" y="631" type="line" smooth="yes"/>
      <point x="388" y="758"/>
      <point x="322" y="778"/>
      <point x="228" y="778" type="curve" smooth="yes"/>
    </contour>
    <contour>
      <point x="323" y="446" type="line"/>
      <point x="299" y="423"/>
      <point x="251" y="403"/>
      <point x="193" y="403" type="curve" smooth="yes"/>
      <point x="141" y="403"/>
      <point x="113" y="441"/>
      <point x="113" y="486" type="curve" smooth="yes"/>
      <point x="113" y="562"/>
      <point x="222" y="577"/>
      <point x="323" y="577" type="curve"/>
    </contour>
  </outline>
</glyph>
<glyph name="logicalnot" format="1">
  <advance width="596"/>
  <unicode hex="00AC"/>
  <outline>
	<contour>
	  <point x="84" y="368" type="line"/>
	  <point x="451" y="368" type="line"/>
	  <point x="451" y="158" type="line"/>
	  <point x="512" y="158" type="line"/>
	  <point x="512" y="417" type="line"/>
	  <point x="84" y="417" type="line"/>
	</contour>
  </outline>
</glyph>
<glyph name="registered" format="1">
  <advance width="992"/>
  <unicode hex="00AE"/>
  <outline>
    <contour>
      <point x="270" y="937"/>
      <point x="84" y="749"/>
      <point x="84" y="522" type="curve" smooth="yes"/>
      <point x="84" y="296"/>
      <point x="270" y="107"/>
      <point x="496" y="107" type="curve" smooth="yes"/>
      <point x="722" y="107"/>
      <point x="908" y="296"/>
      <point x="908" y="522" type="curve" smooth="yes"/>
      <point x="908" y="749"/>
      <point x="722" y="937"/>
      <point x="496" y="937" type="curve" smooth="yes"/>
    </contour>
    <contour>
      <point x="697" y="891"/>
      <point x="858" y="724"/>
      <point x="858" y="522" type="curve" smooth="yes"/>
      <point x="858" y="321"/>
      <point x="697" y="153"/>
      <point x="496" y="153" type="curve" smooth="yes"/>
      <point x="295" y="153"/>
      <point x="134" y="321"/>
      <point x="134" y="522" type="curve" smooth="yes"/>
      <point x="134" y="724"/>
      <point x="295" y="891"/>
      <point x="496" y="891" type="curve" smooth="yes"/>
    </contour>
    <contour>
      <point x="439" y="761"/>
      <point x="426" y="759"/>
      <point x="386" y="759" type="curve" smooth="yes"/>
      <point x="310" y="759" type="line"/>
      <point x="310" y="723" type="line"/>
      <point x="359" y="712" type="line"/>
      <point x="359" y="334" type="line"/>
      <point x="310" y="322" type="line"/>
      <point x="310" y="290" type="line"/>
      <point x="479" y="290" type="line"/>
      <point x="479" y="322" type="line"/>
      <point x="425" y="333" type="line"/>
      <point x="425" y="493" type="line"/>
      <point x="446" y="492"/>
      <point x="465" y="493"/>
      <point x="484" y="493" type="curve"/>
      <point x="582" y="452"/>
      <point x="568" y="289"/>
      <point x="661" y="289" type="curve" smooth="yes"/>
      <point x="718" y="289" type="line"/>
      <point x="718" y="325" type="line"/>
      <point x="637" y="325"/>
      <point x="635" y="453"/>
      <point x="548" y="501" type="curve"/>
      <point x="653" y="519"/>
      <point x="677" y="588"/>
      <point x="677" y="646" type="curve"/>
      <point x="675" y="716"/>
      <point x="621" y="763"/>
      <point x="510" y="763" type="curve" smooth="yes"/>
    </contour>
    <contour>
      <point x="561" y="724"/>
      <point x="609" y="697"/>
      <point x="609" y="628" type="curve" smooth="yes"/>
      <point x="609" y="576"/>
      <point x="568" y="529"/>
      <point x="502" y="529" type="curve" smooth="yes"/>
      <point x="469" y="528"/>
      <point x="448" y="529"/>
      <point x="425" y="532" type="curve"/>
      <point x="425" y="718" type="line"/>
      <point x="458" y="725"/>
      <point x="474" y="724"/>
      <point x="500" y="724" type="curve" smooth="yes"/>
    </contour>
  </outline>
</glyph>
<glyph name="macron" format="1">
  <advance width="444"/>
  <unicode hex="00AF"/>
  <outline>
    <contour>
      <point x="95" y="719" type="line"/>
      <point x="354" y="719" type="line"/>
      <point x="354" y="776" type="line"/>
      <point x="95" y="776" type="line"/>
    </contour>
  </outline>
</glyph>
<glyph name="degree" format="1">
  <advance width="331"/>
  <unicode hex="00B0"/>
  <outline>
    <contour>
      <point x="80" y="778"/>
      <point x="10" y="708"/>
      <point x="10" y="624" type="curve" smooth="yes"/>
      <point x="10" y="539"/>
      <point x="80" y="469"/>
      <point x="165" y="469" type="curve" smooth="yes"/>
      <point x="251" y="469"/>
      <point x="321" y="539"/>
      <point x="321" y="624" type="curve" smooth="yes"/>
      <point x="321" y="708"/>
      <point x="251" y="778"/>
      <point x="165" y="778" type="curve" smooth="yes"/>
    </contour>
    <contour>
      <point x="227" y="735"/>
      <point x="275" y="685"/>
      <point x="275" y="624" type="curve" smooth="yes"/>
      <point x="275" y="561"/>
      <point x="229" y="512"/>
      <point x="166" y="512" type="curve" smooth="yes"/>
      <point x="104" y="512"/>
      <point x="56" y="563"/>
      <point x="56" y="624" type="curve" smooth="yes"/>
      <point x="56" y="687"/>
      <point x="102" y="735"/>
      <point x="166" y="735" type="curve" smooth="yes"/>
    </contour>
  </outline>
</glyph>
<glyph name="twosuperior" format="1">
  <advance width="613"/>
  <unicode hex="00B2"/>
  <outline>
	<contour>
	  <point x="88" y="352" type="line"/>
	  <point x="507" y="352" type="line"/>
	  <point x="537" y="479" type="line"/>
	  <point x="498" y="495" type="line"/>
	  <point x="446" y="411" type="line"/>
	  <point x="161" y="396" type="line"/>
	  <point x="339" y="490"/>
	  <point x="475" y="586"/>
	  <point x="476" y="709" type="curve" smooth="yes"/>
	  <point x="478" y="770"/>
	  <point x="428" y="844"/>
	  <point x="292" y="844" type="curve" smooth="yes"/>
	  <point x="193" y="844"/>
	  <point x="102" y="786"/>
	  <point x="70" y="734" type="curve"/>
	  <point x="98" y="701" type="line"/>
	  <point x="139" y="755"/>
	  <point x="216" y="790"/>
	  <point x="277" y="790" type="curve" smooth="yes"/>
	  <point x="344" y="790"/>
	  <point x="396" y="758"/>
	  <point x="396" y="688" type="curve" smooth="yes"/>
	  <point x="396" y="586"/>
	  <point x="192" y="455"/>
	  <point x="72" y="394" type="curve"/>
	</contour>
  </outline>
</glyph>
<glyph name="threesuperior" format="1">
  <advance width="559"/>
  <unicode hex="00B3"/>
  <outline>
    <contour>
      <point x="111" y="335" type="line"/>
      <point x="158" y="316"/>
      <point x="213" y="307"/>
      <point x="252" y="307" type="curve" smooth="yes"/>
      <point x="391" y="307"/>
      <point x="479" y="373"/>
      <point x="479" y="467" type="curve" smooth="yes"/>
      <point x="479" y="518"/>
      <point x="446" y="599"/>
      <point x="323" y="593" type="curve"/>
      <point x="403" y="618"/>
      <point x="441" y="667"/>
      <point x="441" y="722" type="curve" smooth="yes"/>
      <point x="441" y="791"/>
      <point x="379" y="845"/>
      <point x="268" y="836" type="curve" smooth="yes"/>
      <point x="195" y="831"/>
      <point x="125" y="798"/>
      <point x="93" y="773" type="curve"/>
      <point x="112" y="739" type="line"/>
      <point x="142" y="764"/>
      <point x="212" y="787"/>
      <point x="263" y="789" type="curve" smooth="yes"/>
      <point x="314" y="791"/>
      <point x="359" y="772"/>
      <point x="365" y="737" type="curve"/>
      <point x="369" y="725"/>
      <point x="369" y="712"/>
      <point x="365" y="699" type="curve" smooth="yes"/>
      <point x="354" y="657"/>
      <point x="318" y="609"/>
      <point x="188" y="588" type="curve"/>
      <point x="188" y="542" type="line"/>
      <point x="270" y="559" type="line"/>
      <point x="357" y="566"/>
      <point x="407" y="532"/>
      <point x="407" y="471" type="curve" smooth="yes"/>
      <point x="407" y="403"/>
      <point x="352" y="355"/>
      <point x="249" y="354" type="curve" smooth="yes"/>
      <point x="208" y="354"/>
      <point x="153" y="362"/>
      <point x="111" y="378" type="curve"/>
    </contour>
  </outline>
</glyph>
<glyph name="paragraph" format="1">
  <advance width="657"/>
  <unicode hex="00B6"/>
  <outline>
    <contour>
      <point x="135" y="767"/>
      <point x="58" y="681"/>
      <point x="58" y="554" type="curve" smooth="yes"/>
      <point x="58" y="401"/>
      <point x="134" y="333"/>
      <point x="271" y="333" type="curve"/>
      <point x="271" y="44" type="line"/>
      <point x="174" y="33" type="line"/>
      <point x="174" y="0" type="line"/>
      <point x="333" y="0" type="line"/>
      <point x="333" y="710" type="line"/>
      <point x="455" y="708" type="line"/>
      <point x="456" y="0" type="line"/>
      <point x="594" y="0" type="line"/>
      <point x="594" y="33" type="line"/>
      <point x="519" y="44" type="line"/>
      <point x="519" y="708" type="line"/>
      <point x="603" y="720" type="line"/>
      <point x="603" y="758" type="line"/>
      <point x="519" y="758" type="line" smooth="yes"/>
      <point x="464" y="760"/>
      <point x="354" y="767"/>
      <point x="310" y="767" type="curve" smooth="yes"/>
    </contour>
  </outline>
</glyph>
<glyph name="periodcentered" format="1">
  <advance width="316"/>
  <unicode hex="00B7"/>
  <outline>
	<contour>
	  <point x="149" y="461"/>
	  <point x="121" y="444"/>
	  <point x="117" y="417" type="curve" smooth="yes"/>
	  <point x="112" y="392"/>
	  <point x="128" y="373"/>
	  <point x="150" y="370" type="curve" smooth="yes"/>
	  <point x="174" y="366"/>
	  <point x="202" y="383"/>
	  <point x="206" y="411" type="curve"/>
	  <point x="210" y="434"/>
	  <point x="201" y="455"/>
	  <point x="172" y="459" type="curve" smooth="yes"/>
	</contour>
  </outline>
</glyph>
<glyph name="cedilla" format="1">
  <advance width="300"/>
  <unicode hex="00B8"/>
  <outline>
    <contour>
      <point x="111" y="0" type="line"/>
      <point x="101" y="-35"/>
      <point x="96" y="-65"/>
      <point x="96" y="-97" type="curve"/>
      <point x="101" y="-96"/>
      <point x="118" y="-94"/>
      <point x="126" y="-94" type="curve" smooth="yes"/>
      <point x="178" y="-94"/>
      <point x="214" y="-111"/>
      <point x="214" y="-154" type="curve" smooth="yes"/>
      <point x="214" y="-210"/>
      <point x="167" y="-217"/>
      <point x="130" y="-217" type="curve" smooth="yes"/>
      <point x="116" y="-217"/>
      <point x="84" y="-213"/>
      <point x="66" y="-208" type="curve"/>
      <point x="66" y="-219"/>
      <point x="65" y="-236"/>
      <point x="65" y="-247" type="curve"/>
      <point x="90" y="-253"/>
      <point x="111" y="-260"/>
      <point x="162" y="-257" type="curve" smooth="yes"/>
      <point x="228" y="-255"/>
      <point x="285" y="-219"/>
      <point x="285" y="-154" type="curve" smooth="yes"/>
      <point x="285" y="-104"/>
      <point x="243" y="-58"/>
      <point x="151" y="-62" type="curve"/>
      <point x="149" y="-42"/>
      <point x="152" y="-16"/>
      <point x="154" y="0" type="curve"/>
    </contour>
  </outline>
</glyph>
<glyph name="ordmasculine" format="1">
  <advance width="487"/>
  <unicode hex="00BA"/>
  <outline>
	<contour>
	  <point x="157" y="778"/>
	  <point x="50" y="715"/>
	  <point x="48" y="569" type="curve" smooth="yes"/>
	  <point x="45" y="435"/>
	  <point x="129" y="359"/>
	  <point x="238" y="359" type="curve" smooth="yes"/>
	  <point x="329" y="359"/>
	  <point x="440" y="418"/>
	  <point x="441" y="564" type="curve" smooth="yes"/>
	  <point x="443" y="699"/>
	  <point x="372" y="778"/>
	  <point x="250" y="778" type="curve" smooth="yes"/>
	</contour>
	<contour>
	  <point x="329" y="739"/>
	  <point x="370" y="668"/>
	  <point x="370" y="558" type="curve" smooth="yes"/>
	  <point x="370" y="446"/>
	  <point x="325" y="398"/>
	  <point x="239" y="398" type="curve" smooth="yes"/>
	  <point x="167" y="398"/>
	  <point x="119" y="466"/>
	  <point x="119" y="574" type="curve" smooth="yes"/>
	  <point x="119" y="674"/>
	  <point x="162" y="739"/>
	  <point x="246" y="739" type="curve" smooth="yes"/>
	</contour>
  </outline>
</glyph>
<glyph name="guillemotright" format="1">
  <advance width="926"/>
  <unicode hex="00BB"/>
  <outline>
    <contour>
      <point x="471" y="112" type="line"/>
      <point x="491" y="80" type="line"/>
      <point x="807" y="274" type="line"/>
      <point x="807" y="336" type="line"/>
      <point x="491" y="525" type="line"/>
      <point x="471" y="490" type="line"/>
      <point x="739" y="303" type="line"/>
    </contour>
    <contour>
      <point x="145" y="80" type="line"/>
      <point x="461" y="274" type="line"/>
      <point x="461" y="336" type="line"/>
      <point x="145" y="525" type="line"/>
      <point x="125" y="490" type="line"/>
      <point x="393" y="303" type="line"/>
      <point x="125" y="112" type="line"/>
    </contour>
  </outline>
</glyph>
<glyph name="onequarter" format="1">
  <advance width="1282"/>
  <unicode hex="00BC"/>
  <outline>
	<contour>
	  <point x="395" y="-153" type="line"/>
	  <point x="445" y="-167" type="line"/>
	  <point x="799" y="904" type="line"/>
	  <point x="750" y="918" type="line"/>
	</contour>
	<contour>
	  <point x="120" y="351" type="line"/>
	  <point x="467" y="351" type="line"/>
	  <point x="467" y="384" type="line"/>
	  <point x="333" y="395" type="line"/>
	  <point x="333" y="834" type="line"/>
	  <point x="309" y="842" type="line"/>
	  <point x="286" y="821"/>
	  <point x="170" y="764"/>
	  <point x="111" y="746" type="curve"/>
	  <point x="118" y="707" type="line"/>
	  <point x="167" y="719"/>
	  <point x="215" y="737"/>
	  <point x="262" y="755" type="curve"/>
	  <point x="262" y="394" type="line"/>
	  <point x="120" y="384" type="line"/>
	</contour>
	<contour>
	  <point x="677" y="127" type="line"/>
	  <point x="696" y="91" type="line"/>
	  <point x="976" y="91" type="line"/>
	  <point x="975" y="-88" type="line"/>
	  <point x="1042" y="-88" type="line"/>
	  <point x="1042" y="91" type="line"/>
	  <point x="1181" y="91" type="line"/>
	  <point x="1179" y="154" type="line"/>
	  <point x="1042" y="146" type="line"/>
	  <point x="1042" y="294" type="line"/>
	  <point x="977" y="285" type="line"/>
	  <point x="976" y="143" type="line"/>
	  <point x="742" y="130" type="line"/>
	  <point x="765" y="163" type="line"/>
	  <point x="1020" y="509" type="line"/>
	  <point x="980" y="545" type="line"/>
	  <point x="954" y="544" type="line"/>
	</contour>
  </outline>
</glyph>
<glyph name="onehalf" format="1">
  <advance width="1282"/>
  <unicode hex="00BD"/>
  <outline>
	<contour>
	  <point x="387" y="-157" type="line"/>
	  <point x="437" y="-167" type="line"/>
	  <point x="791" y="906" type="line"/>
	  <point x="743" y="918" type="line"/>
	</contour>
	<contour>
	  <point x="120" y="351" type="line"/>
	  <point x="467" y="351" type="line"/>
	  <point x="467" y="384" type="line"/>
	  <point x="333" y="395" type="line"/>
	  <point x="333" y="834" type="line"/>
	  <point x="309" y="842" type="line"/>
	  <point x="286" y="821"/>
	  <point x="170" y="764"/>
	  <point x="111" y="746" type="curve"/>
	  <point x="118" y="707" type="line"/>
	  <point x="167" y="719"/>
	  <point x="215" y="737"/>
	  <point x="262" y="755" type="curve"/>
	  <point x="262" y="394" type="line"/>
	  <point x="120" y="384" type="line"/>
	</contour>
	<contour>
	  <point x="723" y="0" type="line"/>
	  <point x="1142" y="0" type="line"/>
	  <point x="1171" y="127" type="line"/>
	  <point x="1133" y="143" type="line"/>
	  <point x="1081" y="59" type="line"/>
	  <point x="797" y="44" type="line"/>
	  <point x="975" y="138"/>
	  <point x="1110" y="234"/>
	  <point x="1111" y="357" type="curve" smooth="yes"/>
	  <point x="1111" y="417"/>
	  <point x="1063" y="492"/>
	  <point x="927" y="492" type="curve" smooth="yes"/>
	  <point x="828" y="492"/>
	  <point x="737" y="434"/>
	  <point x="705" y="382" type="curve"/>
	  <point x="733" y="349" type="line"/>
	  <point x="773" y="403"/>
	  <point x="851" y="438"/>
	  <point x="912" y="438" type="curve" smooth="yes"/>
	  <point x="979" y="438"/>
	  <point x="1032" y="405"/>
	  <point x="1032" y="335" type="curve" smooth="yes"/>
	  <point x="1032" y="234"/>
	  <point x="827" y="103"/>
	  <point x="707" y="42" type="curve"/>
	</contour>
  </outline>
</glyph>
<glyph name="threequarters" format="1">
  <advance width="1309"/>
  <unicode hex="00BE"/>
  <outline>
	<contour>
	  <point x="398" y="-157" type="line"/>
	  <point x="448" y="-167" type="line"/>
	  <point x="802" y="906" type="line"/>
	  <point x="754" y="918" type="line"/>
	</contour>
	<contour>
	  <point x="111" y="335" type="line"/>
	  <point x="158" y="316"/>
	  <point x="213" y="307"/>
	  <point x="252" y="307" type="curve" smooth="yes"/>
	  <point x="391" y="307"/>
	  <point x="479" y="373"/>
	  <point x="479" y="467" type="curve" smooth="yes"/>
	  <point x="479" y="518"/>
	  <point x="446" y="599"/>
	  <point x="323" y="593" type="curve"/>
	  <point x="403" y="618"/>
	  <point x="441" y="667"/>
	  <point x="441" y="722" type="curve" smooth="yes"/>
	  <point x="441" y="786"/>
	  <point x="388" y="837"/>
	  <point x="292" y="837" type="curve" smooth="yes"/>
	  <point x="210" y="837"/>
	  <point x="128" y="801"/>
	  <point x="93" y="773" type="curve"/>
	  <point x="112" y="739" type="line"/>
	  <point x="143" y="765"/>
	  <point x="219" y="789"/>
	  <point x="270" y="789" type="curve" smooth="yes"/>
	  <point x="323" y="789"/>
	  <point x="368" y="768"/>
	  <point x="368" y="718" type="curve" smooth="yes"/>
	  <point x="368" y="648"/>
	  <point x="292" y="605"/>
	  <point x="188" y="588" type="curve"/>
	  <point x="188" y="542" type="line"/>
	  <point x="270" y="559" type="line"/>
	  <point x="278" y="560"/>
	  <point x="285" y="560"/>
	  <point x="292" y="560" type="curve" smooth="yes"/>
	  <point x="365" y="560"/>
	  <point x="407" y="527"/>
	  <point x="407" y="471" type="curve" smooth="yes"/>
	  <point x="407" y="403"/>
	  <point x="352" y="355"/>
	  <point x="249" y="354" type="curve" smooth="yes"/>
	  <point x="208" y="354"/>
	  <point x="153" y="362"/>
	  <point x="111" y="378" type="curve"/>
	</contour>
	<contour>
	  <point x="677" y="127" type="line"/>
	  <point x="696" y="91" type="line"/>
	  <point x="976" y="91" type="line"/>
	  <point x="975" y="-88" type="line"/>
	  <point x="1042" y="-88" type="line"/>
	  <point x="1042" y="91" type="line"/>
	  <point x="1180" y="91" type="line"/>
	  <point x="1179" y="154" type="line"/>
	  <point x="1042" y="146" type="line"/>
	  <point x="1042" y="294" type="line"/>
	  <point x="977" y="285" type="line"/>
	  <point x="976" y="143" type="line"/>
	  <point x="741" y="130" type="line"/>
	  <point x="765" y="163" type="line"/>
	  <point x="1019" y="509" type="line"/>
	  <point x="980" y="545" type="line"/>
	  <point x="953" y="544" type="line"/>
	</contour>
  </outline>
</glyph>
<glyph name="questiondown" format="1">
  <advance width="493"/>
  <unicode hex="00BF"/>
  <outline>
    <contour>
      <point x="230" y="452" type="line"/>
      <point x="253" y="397"/>
      <point x="288" y="339"/>
      <point x="281" y="283" type="curve"/>
      <point x="263" y="222"/>
      <point x="45" y="189"/>
      <point x="45" y="104" type="curve"/>
      <point x="34" y="-31"/>
      <point x="116" y="-204"/>
      <point x="341" y="-204" type="curve" smooth="yes"/>
      <point x="377" y="-204"/>
      <point x="423" y="-193"/>
      <point x="432" y="-182" type="curve"/>
      <point x="432" y="-125" type="line"/>
      <point x="414" y="-135"/>
      <point x="375" y="-140"/>
      <point x="349" y="-140" type="curve" smooth="yes"/>
      <point x="209" y="-140"/>
      <point x="94" y="-28"/>
      <point x="100" y="109" type="curve"/>
      <point x="110" y="172"/>
      <point x="351" y="207"/>
      <point x="351" y="285" type="curve" smooth="yes"/>
      <point x="351" y="339"/>
      <point x="299" y="426"/>
      <point x="271" y="452" type="curve"/>
    </contour>
    <contour>
      <point x="213" y="699"/>
      <point x="184" y="682"/>
      <point x="180" y="654" type="curve" smooth="yes"/>
      <point x="176" y="629"/>
      <point x="191" y="610"/>
      <point x="213" y="607" type="curve" smooth="yes"/>
      <point x="238" y="603"/>
      <point x="265" y="620"/>
      <point x="269" y="648" type="curve" smooth="yes"/>
      <point x="273" y="671"/>
      <point x="265" y="692"/>
      <point x="235" y="696" type="curve" smooth="yes"/>
    </contour>
  </outline>
</glyph>
<glyph name="Agrave" format="1">
  <advance width="729"/>
  <unicode hex="00C0"/>
  <outline>
	<contour>
	  <point x="386" y="806" type="line"/>
	  <point x="242" y="938" type="line"/>
	  <point x="189" y="884" type="line"/>
	  <point x="236" y="848"/>
	  <point x="307" y="809"/>
	  <point x="366" y="785" type="curve"/>
	</contour>
	<contour>
	  <point x="1" y="0" type="line"/>
	  <point x="221" y="0" type="line"/>
	  <point x="221" y="33" type="line"/>
	  <point x="136" y="44" type="line"/>
	  <point x="197" y="222" type="line"/>
	  <point x="512" y="222" type="line"/>
	  <point x="574" y="44" type="line"/>
	  <point x="492" y="33" type="line"/>
	  <point x="492" y="0" type="line"/>
	  <point x="730" y="0" type="line"/>
	  <point x="730" y="33" type="line"/>
	  <point x="649" y="44" type="line"/>
	  <point x="394" y="762" type="line"/>
	  <point x="335" y="762" type="line"/>
	  <point x="72" y="44" type="line"/>
	  <point x="1" y="33" type="line"/>
	</contour>
	<contour>
	  <point x="212" y="267" type="line"/>
	  <point x="356" y="680" type="line"/>
	  <point x="392" y="566" type="line"/>
	  <point x="497" y="267" type="line"/>
	</contour>
  </outline>
</glyph>
<glyph name="Aacute" format="1">
  <advance width="729"/>
  <unicode hex="00C1"/>
  <outline>
	<contour>
	  <point x="361" y="785" type="line"/>
	  <point x="420" y="809"/>
	  <point x="491" y="848"/>
	  <point x="538" y="884" type="curve"/>
	  <point x="485" y="938" type="line"/>
	  <point x="341" y="806" type="line"/>
	</contour>
	<contour>
	  <point x="1" y="0" type="line"/>
	  <point x="221" y="0" type="line"/>
	  <point x="221" y="33" type="line"/>
	  <point x="136" y="44" type="line"/>
	  <point x="197" y="222" type="line"/>
	  <point x="512" y="222" type="line"/>
	  <point x="574" y="44" type="line"/>
	  <point x="492" y="33" type="line"/>
	  <point x="492" y="0" type="line"/>
	  <point x="730" y="0" type="line"/>
	  <point x="730" y="33" type="line"/>
	  <point x="649" y="44" type="line"/>
	  <point x="394" y="762" type="line"/>
	  <point x="335" y="762" type="line"/>
	  <point x="72" y="44" type="line"/>
	  <point x="1" y="33" type="line"/>
	</contour>
	<contour>
	  <point x="212" y="267" type="line"/>
	  <point x="356" y="680" type="line"/>
	  <point x="392" y="566" type="line"/>
	  <point x="497" y="267" type="line"/>
	</contour>
  </outline>
</glyph>
<glyph name="Acircumflex" format="1">
  <advance width="729"/>
  <unicode hex="00C2"/>
  <outline>
	<contour>
	  <point x="228" y="790" type="line"/>
	  <point x="364" y="887" type="line"/>
	  <point x="497" y="790" type="line"/>
	  <point x="531" y="809" type="line"/>
	  <point x="400" y="938" type="line"/>
	  <point x="329" y="938" type="line"/>
	  <point x="197" y="808" type="line"/>
	</contour>
	<contour>
	  <point x="1" y="0" type="line"/>
	  <point x="221" y="0" type="line"/>
	  <point x="221" y="33" type="line"/>
	  <point x="136" y="44" type="line"/>
	  <point x="197" y="222" type="line"/>
	  <point x="512" y="222" type="line"/>
	  <point x="574" y="44" type="line"/>
	  <point x="492" y="33" type="line"/>
	  <point x="492" y="0" type="line"/>
	  <point x="730" y="0" type="line"/>
	  <point x="730" y="33" type="line"/>
	  <point x="649" y="44" type="line"/>
	  <point x="394" y="762" type="line"/>
	  <point x="335" y="762" type="line"/>
	  <point x="72" y="44" type="line"/>
	  <point x="1" y="33" type="line"/>
	</contour>
	<contour>
	  <point x="212" y="267" type="line"/>
	  <point x="356" y="680" type="line"/>
	  <point x="392" y="566" type="line"/>
	  <point x="497" y="267" type="line"/>
	</contour>
  </outline>
</glyph>
<glyph name="Atilde" format="1">
  <advance width="729"/>
  <unicode hex="00C3"/>
  <outline>
	<contour>
	  <point x="191" y="831" type="line"/>
	  <point x="214" y="855"/>
	  <point x="246" y="879"/>
	  <point x="285" y="879" type="curve" smooth="yes"/>
	  <point x="335" y="879"/>
	  <point x="358" y="807"/>
	  <point x="421" y="807" type="curve" smooth="yes"/>
	  <point x="474" y="807"/>
	  <point x="525" y="844"/>
	  <point x="550" y="885" type="curve"/>
	  <point x="529" y="915" type="line"/>
	  <point x="507" y="890"/>
	  <point x="477" y="867"/>
	  <point x="436" y="867" type="curve" smooth="yes"/>
	  <point x="387" y="867"/>
	  <point x="363" y="938"/>
	  <point x="300" y="938" type="curve" smooth="yes"/>
	  <point x="248" y="938"/>
	  <point x="196" y="902"/>
	  <point x="171" y="859" type="curve"/>
	</contour>
	<contour>
	  <point x="1" y="0" type="line"/>
	  <point x="221" y="0" type="line"/>
	  <point x="221" y="33" type="line"/>
	  <point x="136" y="44" type="line"/>
	  <point x="197" y="222" type="line"/>
	  <point x="512" y="222" type="line"/>
	  <point x="574" y="44" type="line"/>
	  <point x="492" y="33" type="line"/>
	  <point x="492" y="0" type="line"/>
	  <point x="730" y="0" type="line"/>
	  <point x="730" y="33" type="line"/>
	  <point x="649" y="44" type="line"/>
	  <point x="394" y="762" type="line"/>
	  <point x="335" y="762" type="line"/>
	  <point x="72" y="44" type="line"/>
	  <point x="1" y="33" type="line"/>
	</contour>
	<contour>
	  <point x="212" y="267" type="line"/>
	  <point x="356" y="680" type="line"/>
	  <point x="392" y="566" type="line"/>
	  <point x="497" y="267" type="line"/>
	</contour>
  </outline>
</glyph>
<glyph name="AE" format="1">
  <advance width="947"/>
  <unicode hex="00C6"/>
  <outline>
	<contour>
	  <point x="1" y="0" type="line"/>
	  <point x="221" y="0" type="line"/>
	  <point x="221" y="33" type="line"/>
	  <point x="131" y="44" type="line"/>
	  <point x="204" y="234" type="line"/>
	  <point x="509" y="234" type="line"/>
	  <point x="567" y="44" type="line"/>
	  <point x="480" y="33" type="line"/>
	  <point x="480" y="0" type="line"/>
	  <point x="882" y="0" type="line"/>
	  <point x="904" y="142" type="line"/>
	  <point x="871" y="158" type="line"/>
	  <point x="827" y="48" type="line"/>
	  <point x="647" y="42" type="line"/>
	  <point x="544" y="379" type="line"/>
	  <point x="746" y="377" type="line"/>
	  <point x="758" y="298" type="line"/>
	  <point x="794" y="298" type="line"/>
	  <point x="794" y="503" type="line"/>
	  <point x="758" y="503" type="line"/>
	  <point x="746" y="423" type="line"/>
	  <point x="532" y="420" type="line"/>
	  <point x="442" y="718" type="line"/>
	  <point x="771" y="713" type="line"/>
	  <point x="793" y="618" type="line"/>
	  <point x="832" y="619" type="line"/>
	  <point x="817" y="758" type="line"/>
	  <point x="356" y="758" type="line"/>
	  <point x="68" y="44" type="line"/>
	  <point x="1" y="33" type="line"/>
	</contour>
	<contour>
	  <point x="220" y="278" type="line"/>
	  <point x="376" y="686" type="line"/>
	  <point x="395" y="600" type="line"/>
	  <point x="495" y="278" type="line"/>
	</contour>
  </outline>
</glyph>
<glyph name="Ccedilla" format="1">
  <advance width="688"/>
  <unicode hex="00C7"/>
  <outline>
    <contour>
      <point x="227" y="765"/>
      <point x="42" y="605"/>
      <point x="42" y="357" type="curve" smooth="yes"/>
      <point x="42" y="149"/>
      <point x="178" y="0"/>
      <point x="366" y="-13" type="curve"/>
      <point x="358" y="-42"/>
      <point x="355" y="-69"/>
      <point x="355" y="-97" type="curve"/>
      <point x="360" y="-96"/>
      <point x="376" y="-94"/>
      <point x="385" y="-94" type="curve" smooth="yes"/>
      <point x="437" y="-94"/>
      <point x="473" y="-111"/>
      <point x="473" y="-154" type="curve" smooth="yes"/>
      <point x="473" y="-210"/>
      <point x="425" y="-217"/>
      <point x="389" y="-217" type="curve" smooth="yes"/>
      <point x="375" y="-217"/>
      <point x="343" y="-213"/>
      <point x="325" y="-208" type="curve"/>
      <point x="325" y="-219"/>
      <point x="324" y="-236"/>
      <point x="324" y="-247" type="curve"/>
      <point x="349" y="-253"/>
      <point x="370" y="-260"/>
      <point x="420" y="-257" type="curve" smooth="yes"/>
      <point x="487" y="-255"/>
      <point x="544" y="-219"/>
      <point x="544" y="-154" type="curve" smooth="yes"/>
      <point x="544" y="-104"/>
      <point x="501" y="-58"/>
      <point x="410" y="-62" type="curve"/>
      <point x="409" y="-47"/>
      <point x="409" y="-28"/>
      <point x="411" y="-13" type="curve"/>
      <point x="538" y="-9"/>
      <point x="595" y="28"/>
      <point x="640" y="31" type="curve"/>
      <point x="640" y="163" type="line"/>
      <point x="630" y="163"/>
      <point x="616" y="164"/>
      <point x="606" y="164" type="curve"/>
      <point x="585" y="81" type="line"/>
      <point x="556" y="50"/>
      <point x="494" y="27"/>
      <point x="414" y="27" type="curve" smooth="yes"/>
      <point x="221" y="25"/>
      <point x="117" y="189"/>
      <point x="117" y="380" type="curve" smooth="yes"/>
      <point x="117" y="599"/>
      <point x="262" y="722"/>
      <point x="415" y="722" type="curve" smooth="yes"/>
      <point x="483" y="722"/>
      <point x="533" y="709"/>
      <point x="574" y="684" type="curve"/>
      <point x="592" y="596" type="line"/>
      <point x="632" y="596" type="line"/>
      <point x="639" y="730" type="line"/>
      <point x="596" y="740"/>
      <point x="530" y="765"/>
      <point x="436" y="765" type="curve" smooth="yes"/>
    </contour>
  </outline>
</glyph>
<glyph name="Iacute" format="1">
  <advance width="373"/>
  <unicode hex="00CD"/>
  <outline>
    <contour>
      <point x="184" y="785" type="line"/>
      <point x="243" y="809"/>
      <point x="313" y="848"/>
      <point x="360" y="884" type="curve"/>
      <point x="308" y="938" type="line"/>
      <point x="163" y="806" type="line"/>
    </contour>
    <contour>
      <point x="66" y="0" type="line"/>
      <point x="307" y="0" type="line"/>
      <point x="307" y="33" type="line"/>
      <point x="221" y="44" type="line"/>
      <point x="221" y="714" type="line"/>
      <point x="303" y="721" type="line"/>
      <point x="303" y="758" type="line"/>
      <point x="68" y="758" type="line"/>
      <point x="68" y="721" type="line"/>
      <point x="149" y="714" type="line"/>
      <point x="149" y="44" type="line"/>
      <point x="66" y="33" type="line"/>
    </contour>
  </outline>
</glyph>
<glyph name="Icircumflex" format="1">
  <advance width="373"/>
  <unicode hex="00CE"/>
  <outline>
	<contour>
	  <point x="50" y="790" type="line"/>
	  <point x="187" y="887" type="line"/>
	  <point x="320" y="790" type="line"/>
	  <point x="354" y="809" type="line"/>
	  <point x="222" y="938" type="line"/>
	  <point x="151" y="938" type="line"/>
	  <point x="20" y="808" type="line"/>
	</contour>
	<contour>
	  <point x="66" y="0" type="line"/>
	  <point x="307" y="0" type="line"/>
	  <point x="307" y="33" type="line"/>
	  <point x="221" y="44" type="line"/>
	  <point x="221" y="714" type="line"/>
	  <point x="303" y="721" type="line"/>
	  <point x="303" y="758" type="line"/>
	  <point x="68" y="758" type="line"/>
	  <point x="68" y="721" type="line"/>
	  <point x="149" y="714" type="line"/>
	  <point x="149" y="44" type="line"/>
	  <point x="66" y="33" type="line"/>
	</contour>
  </outline>
</glyph>
<glyph name="Eth" format="1">
  <advance width="778"/>
  <unicode hex="00D0"/>
  <outline>
    <contour>
      <point x="52" y="0" type="line"/>
      <point x="82" y="0"/>
      <point x="146" y="0"/>
      <point x="176" y="0" type="curve" smooth="yes"/>
      <point x="229" y="0"/>
      <point x="291" y="-5"/>
      <point x="338" y="-5" type="curve" smooth="yes"/>
      <point x="569" y="-9"/>
      <point x="732" y="144"/>
      <point x="732" y="399" type="curve" smooth="yes"/>
      <point x="732" y="629"/>
      <point x="610" y="766"/>
      <point x="363" y="765" type="curve" smooth="yes"/>
      <point x="302" y="765"/>
      <point x="251" y="758"/>
      <point x="175" y="758" type="curve" smooth="yes"/>
      <point x="54" y="758" type="line"/>
      <point x="54" y="721" type="line"/>
      <point x="140" y="713" type="line"/>
      <point x="140" y="425" type="line"/>
      <point x="47" y="425" type="line"/>
      <point x="47" y="371" type="line"/>
      <point x="140" y="371" type="line"/>
      <point x="140" y="45" type="line"/>
      <point x="52" y="33" type="line"/>
    </contour>
    <contour>
      <point x="212" y="371" type="line"/>
      <point x="345" y="371" type="line"/>
      <point x="345" y="425" type="line"/>
      <point x="212" y="425" type="line"/>
      <point x="212" y="713" type="line"/>
      <point x="244" y="718"/>
      <point x="288" y="721"/>
      <point x="341" y="722" type="curve" smooth="yes"/>
      <point x="541" y="728"/>
      <point x="657" y="611"/>
      <point x="657" y="379" type="curve" smooth="yes"/>
      <point x="657" y="144"/>
      <point x="514" y="40"/>
      <point x="348" y="37" type="curve" smooth="yes"/>
      <point x="298" y="36"/>
      <point x="257" y="41"/>
      <point x="212" y="49" type="curve"/>
    </contour>
  </outline>
</glyph>
<glyph name="Otilde" format="1">
  <advance width="759"/>
  <unicode hex="00D5"/>
  <outline>
    <contour>
      <point x="207" y="761"/>
      <point x="51" y="624"/>
      <point x="45" y="369" type="curve" smooth="yes"/>
      <point x="42" y="142"/>
      <point x="176" y="-18"/>
      <point x="379" y="-14" type="curve" smooth="yes"/>
      <point x="562" y="-10"/>
      <point x="711" y="132"/>
      <point x="716" y="386" type="curve" smooth="yes"/>
      <point x="720" y="609"/>
      <point x="592" y="769"/>
      <point x="393" y="765" type="curve" smooth="yes"/>
    </contour>
    <contour>
      <point x="547" y="724"/>
      <point x="638" y="573"/>
      <point x="638" y="386" type="curve" smooth="yes"/>
      <point x="638" y="165"/>
      <point x="536" y="27"/>
      <point x="386" y="27" type="curve" smooth="yes"/>
      <point x="224" y="27"/>
      <point x="125" y="176"/>
      <point x="125" y="369" type="curve" smooth="yes"/>
      <point x="125" y="595"/>
      <point x="234" y="724"/>
      <point x="385" y="724" type="curve" smooth="yes"/>
    </contour>
    <contour>
      <point x="272" y="938"/>
      <point x="220" y="902"/>
      <point x="195" y="859" type="curve"/>
      <point x="216" y="831" type="line"/>
      <point x="238" y="855"/>
      <point x="271" y="879"/>
      <point x="310" y="879" type="curve" smooth="yes"/>
      <point x="360" y="879"/>
      <point x="383" y="807"/>
      <point x="446" y="807" type="curve" smooth="yes"/>
      <point x="498" y="807"/>
      <point x="549" y="844"/>
      <point x="574" y="885" type="curve"/>
      <point x="554" y="915" type="line"/>
      <point x="531" y="890"/>
      <point x="501" y="867"/>
      <point x="460" y="867" type="curve" smooth="yes"/>
      <point x="411" y="867"/>
      <point x="387" y="938"/>
      <point x="325" y="938" type="curve" smooth="yes"/>
    </contour>
  </outline>
</glyph>
<glyph name="Oslash" format="1">
  <advance width="759"/>
  <unicode hex="00D8"/>
  <outline>
	<contour>
	  <point x="217" y="-81" type="line"/>
	  <point x="252" y="-94" type="line"/>
	  <point x="283" y="-2" type="line"/>
	  <point x="313" y="-10"/>
	  <point x="346" y="-14"/>
	  <point x="379" y="-14" type="curve" smooth="yes"/>
	  <point x="562" y="-10"/>
	  <point x="711" y="132"/>
	  <point x="716" y="386" type="curve" smooth="yes"/>
	  <point x="719" y="549"/>
	  <point x="652" y="677"/>
	  <point x="538" y="733" type="curve"/>
	  <point x="565" y="812" type="line"/>
	  <point x="532" y="825" type="line"/>
	  <point x="505" y="748" type="line"/>
	  <point x="470" y="759"/>
	  <point x="433" y="765"/>
	  <point x="393" y="765" type="curve" smooth="yes"/>
	  <point x="207" y="761"/>
	  <point x="51" y="624"/>
	  <point x="45" y="369" type="curve" smooth="yes"/>
	  <point x="42" y="195"/>
	  <point x="121" y="61"/>
	  <point x="248" y="9" type="curve"/>
	</contour>
	<contour>
	  <point x="267" y="59" type="line"/>
	  <point x="177" y="113"/>
	  <point x="125" y="229"/>
	  <point x="125" y="369" type="curve" smooth="yes"/>
	  <point x="125" y="595"/>
	  <point x="234" y="724"/>
	  <point x="385" y="724" type="curve" smooth="yes"/>
	  <point x="424" y="724"/>
	  <point x="458" y="715"/>
	  <point x="487" y="700" type="curve"/>
	</contour>
	<contour>
	  <point x="519" y="681" type="line"/>
	  <point x="596" y="624"/>
	  <point x="638" y="512"/>
	  <point x="638" y="386" type="curve" smooth="yes"/>
	  <point x="638" y="165"/>
	  <point x="536" y="27"/>
	  <point x="386" y="27" type="curve" smooth="yes"/>
	  <point x="355" y="27"/>
	  <point x="327" y="32"/>
	  <point x="301" y="42" type="curve"/>
	</contour>
  </outline>
</glyph>
<glyph name="Ugrave" format="1">
  <advance width="770"/>
  <unicode hex="00D9"/>
  <outline>
    <contour>
      <point x="522" y="758" type="line"/>
      <point x="522" y="721" type="line"/>
      <point x="606" y="713" type="line"/>
      <point x="606" y="324" type="line" smooth="yes"/>
      <point x="606" y="134"/>
      <point x="541" y="25"/>
      <point x="396" y="25" type="curve" smooth="yes"/>
      <point x="261" y="25"/>
      <point x="164" y="89"/>
      <point x="164" y="313" type="curve" smooth="yes"/>
      <point x="164" y="713" type="line"/>
      <point x="249" y="721" type="line"/>
      <point x="249" y="758" type="line"/>
      <point x="16" y="758" type="line"/>
      <point x="16" y="721" type="line"/>
      <point x="91" y="714" type="line"/>
      <point x="91" y="581"/>
      <point x="91" y="449"/>
      <point x="91" y="316" type="curve" smooth="yes"/>
      <point x="91" y="94"/>
      <point x="175" y="-14"/>
      <point x="382" y="-14" type="curve" smooth="yes"/>
      <point x="548" y="-14"/>
      <point x="663" y="81"/>
      <point x="663" y="324" type="curve" smooth="yes"/>
      <point x="663" y="713" type="line"/>
      <point x="739" y="721" type="line"/>
      <point x="739" y="758" type="line"/>
    </contour>
    <contour>
      <point x="214" y="884" type="line"/>
      <point x="260" y="848"/>
      <point x="331" y="809"/>
      <point x="390" y="785" type="curve"/>
      <point x="411" y="806" type="line"/>
      <point x="266" y="938" type="line"/>
    </contour>
  </outline>
</glyph>
<glyph name="Ucircumflex" format="1">
  <advance width="770"/>
  <unicode hex="00DB"/>
  <outline>
	<contour>
	  <point x="522" y="758" type="line"/>
	  <point x="522" y="721" type="line"/>
	  <point x="606" y="713" type="line"/>
	  <point x="606" y="324" type="line" smooth="yes"/>
	  <point x="606" y="134"/>
	  <point x="541" y="25"/>
	  <point x="396" y="25" type="curve" smooth="yes"/>
	  <point x="261" y="25"/>
	  <point x="164" y="89"/>
	  <point x="164" y="313" type="curve" smooth="yes"/>
	  <point x="164" y="713" type="line"/>
	  <point x="249" y="721" type="line"/>
	  <point x="249" y="758" type="line"/>
	  <point x="16" y="758" type="line"/>
	  <point x="16" y="721" type="line"/>
	  <point x="91" y="714" type="line"/>
	  <point x="91" y="581"/>
	  <point x="91" y="449"/>
	  <point x="91" y="316" type="curve" smooth="yes"/>
	  <point x="91" y="94"/>
	  <point x="175" y="-14"/>
	  <point x="382" y="-14" type="curve" smooth="yes"/>
	  <point x="548" y="-14"/>
	  <point x="663" y="81"/>
	  <point x="663" y="324" type="curve" smooth="yes"/>
	  <point x="663" y="713" type="line"/>
	  <point x="739" y="721" type="line"/>
	  <point x="739" y="758" type="line"/>
	</contour>
	<contour>
	  <point x="353" y="938" type="line"/>
	  <point x="222" y="808" type="line"/>
	  <point x="252" y="790" type="line"/>
	  <point x="389" y="887" type="line"/>
	  <point x="522" y="790" type="line"/>
	  <point x="556" y="809" type="line"/>
	  <point x="424" y="938" type="line"/>
	</contour>
  </outline>
</glyph>
<glyph name="Udieresis" format="1">
  <advance width="770"/>
  <unicode hex="00DC"/>
  <outline>
    <contour>
      <point x="522" y="758" type="line"/>
      <point x="522" y="721" type="line"/>
      <point x="606" y="713" type="line"/>
      <point x="606" y="324" type="line" smooth="yes"/>
      <point x="606" y="134"/>
      <point x="541" y="25"/>
      <point x="396" y="25" type="curve" smooth="yes"/>
      <point x="261" y="25"/>
      <point x="164" y="89"/>
      <point x="164" y="313" type="curve" smooth="yes"/>
      <point x="164" y="713" type="line"/>
      <point x="249" y="721" type="line"/>
      <point x="249" y="758" type="line"/>
      <point x="16" y="758" type="line"/>
      <point x="16" y="721" type="line"/>
      <point x="91" y="714" type="line"/>
      <point x="91" y="581"/>
      <point x="91" y="449"/>
      <point x="91" y="316" type="curve" smooth="yes"/>
      <point x="91" y="94"/>
      <point x="175" y="-14"/>
      <point x="382" y="-14" type="curve" smooth="yes"/>
      <point x="548" y="-14"/>
      <point x="663" y="81"/>
      <point x="663" y="324" type="curve" smooth="yes"/>
      <point x="663" y="713" type="line"/>
      <point x="739" y="721" type="line"/>
      <point x="739" y="758" type="line"/>
    </contour>
    <contour>
      <point x="253" y="926"/>
      <point x="223" y="903"/>
      <point x="223" y="872" type="curve" smooth="yes"/>
      <point x="223" y="843"/>
      <point x="247" y="825"/>
      <point x="271" y="825" type="curve" smooth="yes"/>
      <point x="301" y="825"/>
      <point x="329" y="847"/>
      <point x="329" y="880" type="curve" smooth="yes"/>
      <point x="329" y="905"/>
      <point x="314" y="926"/>
      <point x="281" y="926" type="curve" smooth="yes"/>
    </contour>
    <contour>
      <point x="476" y="926"/>
      <point x="446" y="902"/>
      <point x="446" y="871" type="curve" smooth="yes"/>
      <point x="446" y="842"/>
      <point x="470" y="825"/>
      <point x="495" y="825" type="curve" smooth="yes"/>
      <point x="524" y="825"/>
      <point x="552" y="847"/>
      <point x="552" y="879" type="curve" smooth="yes"/>
      <point x="552" y="905"/>
      <point x="537" y="926"/>
      <point x="504" y="926" type="curve" smooth="yes"/>
    </contour>
  </outline>
</glyph>
<glyph name="Thorn" format="1">
  <advance width="633"/>
  <unicode hex="00DE"/>
  <outline>
    <contour>
      <point x="42" y="0" type="line"/>
      <point x="347" y="0" type="line"/>
      <point x="347" y="33" type="line"/>
      <point x="212" y="45" type="line"/>
      <point x="212" y="162" type="line"/>
      <point x="233" y="162"/>
      <point x="267" y="159"/>
      <point x="321" y="159" type="curve" smooth="yes"/>
      <point x="464" y="157"/>
      <point x="604" y="239"/>
      <point x="604" y="398" type="curve" smooth="yes"/>
      <point x="604" y="550"/>
      <point x="495" y="612"/>
      <point x="345" y="612" type="curve" smooth="yes"/>
      <point x="298" y="612"/>
      <point x="250" y="603"/>
      <point x="212" y="599" type="curve"/>
      <point x="212" y="714" type="line"/>
      <point x="295" y="721" type="line"/>
      <point x="295" y="758" type="line"/>
      <point x="60" y="758" type="line"/>
      <point x="60" y="721" type="line"/>
      <point x="140" y="714" type="line"/>
      <point x="140" y="45" type="line"/>
      <point x="42" y="33" type="line"/>
    </contour>
    <contour>
      <point x="212" y="555" type="line"/>
      <point x="241" y="563"/>
      <point x="284" y="568"/>
      <point x="315" y="570" type="curve" smooth="yes"/>
      <point x="458" y="575"/>
      <point x="531" y="511"/>
      <point x="531" y="397" type="curve" smooth="yes"/>
      <point x="531" y="251"/>
      <point x="435" y="199"/>
      <point x="319" y="197" type="curve" smooth="yes"/>
      <point x="289" y="197"/>
      <point x="249" y="198"/>
      <point x="212" y="204" type="curve"/>
    </contour>
  </outline>
</glyph>
<glyph name="agrave" format="1">
  <advance width="559"/>
  <unicode hex="00E0"/>
  <outline>
    <contour>
      <point x="226" y="556"/>
      <point x="126" y="537"/>
      <point x="78" y="497" type="curve"/>
      <point x="92" y="462" type="line"/>
      <point x="128" y="485"/>
      <point x="200" y="506"/>
      <point x="249" y="506" type="curve" smooth="yes"/>
      <point x="338" y="506"/>
      <point x="393" y="477"/>
      <point x="393" y="368" type="curve" smooth="yes"/>
      <point x="393" y="325" type="line"/>
      <point x="271" y="325"/>
      <point x="68" y="288"/>
      <point x="57" y="152" type="curve" smooth="yes"/>
      <point x="50" y="47"/>
      <point x="134" y="-11"/>
      <point x="221" y="-11" type="curve" smooth="yes"/>
      <point x="308" y="-11"/>
      <point x="361" y="18"/>
      <point x="397" y="59" type="curve"/>
      <point x="397" y="39" type="line" smooth="yes"/>
      <point x="397" y="-5"/>
      <point x="420" y="-8"/>
      <point x="443" y="-8" type="curve" smooth="yes"/>
      <point x="477" y="-8"/>
      <point x="508" y="-1"/>
      <point x="527" y="8" type="curve"/>
      <point x="527" y="35" type="line"/>
      <point x="463" y="35" type="line"/>
      <point x="464" y="377" type="line" smooth="yes"/>
      <point x="464" y="521"/>
      <point x="377" y="556"/>
      <point x="273" y="556" type="curve" smooth="yes"/>
    </contour>
    <contour>
      <point x="393" y="216"/>
      <point x="393" y="135"/>
      <point x="393" y="88" type="curve"/>
      <point x="375" y="73"/>
      <point x="327" y="37"/>
      <point x="257" y="37" type="curve" smooth="yes"/>
      <point x="181" y="37"/>
      <point x="127" y="71"/>
      <point x="128" y="151" type="curve" smooth="yes"/>
      <point x="128" y="257"/>
      <point x="288" y="285"/>
      <point x="393" y="285" type="curve"/>
    </contour>
    <contour>
      <point x="145" y="811" type="line"/>
      <point x="177" y="761"/>
      <point x="269" y="697"/>
      <point x="328" y="656" type="curve"/>
      <point x="349" y="677" type="line"/>
      <point x="196" y="864" type="line"/>
    </contour>
  </outline>
</glyph>
<glyph name="ccedilla" format="1">
  <advance width="513"/>
  <unicode hex="00E7"/>
  <outline>
    <contour>
      <point x="167" y="555"/>
      <point x="51" y="443"/>
      <point x="52" y="263" type="curve" smooth="yes"/>
      <point x="54" y="116"/>
      <point x="126" y="3"/>
      <point x="259" y="-9" type="curve"/>
      <point x="251" y="-40"/>
      <point x="248" y="-67"/>
      <point x="247" y="-97" type="curve"/>
      <point x="252" y="-95"/>
      <point x="268" y="-94"/>
      <point x="278" y="-94" type="curve" smooth="yes"/>
      <point x="329" y="-94"/>
      <point x="365" y="-111"/>
      <point x="365" y="-154" type="curve" smooth="yes"/>
      <point x="365" y="-210"/>
      <point x="318" y="-217"/>
      <point x="281" y="-217" type="curve" smooth="yes"/>
      <point x="267" y="-217"/>
      <point x="235" y="-213"/>
      <point x="217" y="-208" type="curve"/>
      <point x="217" y="-247" type="line"/>
      <point x="241" y="-253"/>
      <point x="263" y="-260"/>
      <point x="313" y="-257" type="curve" smooth="yes"/>
      <point x="379" y="-255"/>
      <point x="437" y="-219"/>
      <point x="437" y="-154" type="curve" smooth="yes"/>
      <point x="437" y="-104"/>
      <point x="394" y="-58"/>
      <point x="303" y="-62" type="curve"/>
      <point x="301" y="-45"/>
      <point x="302" y="-25"/>
      <point x="304" y="-10" type="curve"/>
      <point x="372" y="-6"/>
      <point x="438" y="12"/>
      <point x="473" y="43" type="curve"/>
      <point x="459" y="78" type="line"/>
      <point x="428" y="55"/>
      <point x="357" y="41"/>
      <point x="313" y="41" type="curve" smooth="yes"/>
      <point x="217" y="41"/>
      <point x="119" y="111"/>
      <point x="121" y="296" type="curve" smooth="yes"/>
      <point x="122" y="439"/>
      <point x="210" y="517"/>
      <point x="311" y="517" type="curve" smooth="yes"/>
      <point x="344" y="517"/>
      <point x="379" y="512"/>
      <point x="402" y="495" type="curve"/>
      <point x="422" y="432" type="line"/>
      <point x="458" y="432" type="line"/>
      <point x="458" y="537" type="line"/>
      <point x="432" y="554"/>
      <point x="371" y="563"/>
      <point x="317" y="561" type="curve" smooth="yes"/>
    </contour>
  </outline>
</glyph>
<glyph name="igrave" format="1">
  <advance width="333"/>
  <unicode hex="00EC"/>
  <outline>
	<contour>
	  <point x="246" y="677" type="line"/>
	  <point x="93" y="864" type="line"/>
	  <point x="41" y="811" type="line"/>
	  <point x="74" y="762"/>
	  <point x="166" y="696"/>
	  <point x="225" y="656" type="curve"/>
	</contour>
	<contour>
	  <point x="68" y="0" type="line"/>
	  <point x="298" y="0" type="line"/>
	  <point x="298" y="33" type="line"/>
	  <point x="217" y="42" type="line"/>
	  <point x="217" y="544" type="line"/>
	  <point x="198" y="553" type="line"/>
	  <point x="79" y="523" type="line"/>
	  <point x="79" y="499" type="line"/>
	  <point x="149" y="474" type="line"/>
	  <point x="149" y="41" type="line"/>
	  <point x="68" y="33" type="line"/>
	</contour>
  </outline>
</glyph>
<glyph name="iacute" format="1">
  <advance width="333"/>
  <unicode hex="00ED"/>
  <outline>
    <contour>
      <point x="140" y="656" type="line"/>
      <point x="200" y="696"/>
      <point x="292" y="764"/>
      <point x="324" y="811" type="curve"/>
      <point x="272" y="864" type="line"/>
      <point x="119" y="677" type="line"/>
    </contour>
    <contour>
      <point x="68" y="0" type="line"/>
      <point x="298" y="0" type="line"/>
      <point x="298" y="33" type="line"/>
      <point x="217" y="42" type="line"/>
      <point x="217" y="544" type="line"/>
      <point x="198" y="553" type="line"/>
      <point x="79" y="523" type="line"/>
      <point x="79" y="499" type="line"/>
      <point x="149" y="474" type="line"/>
      <point x="149" y="41" type="line"/>
      <point x="68" y="33" type="line"/>
    </contour>
  </outline>
</glyph>
<glyph name="icircumflex" format="1">
  <advance width="333"/>
  <unicode hex="00EE"/>
  <outline>
	<contour>
	  <point x="35" y="653" type="line"/>
	  <point x="177" y="802" type="line"/>
	  <point x="312" y="653" type="line"/>
	  <point x="345" y="671" type="line"/>
	  <point x="212" y="865" type="line"/>
	  <point x="143" y="865" type="line"/>
	  <point x="5" y="670" type="line"/>
	</contour>
	<contour>
	  <point x="68" y="0" type="line"/>
	  <point x="298" y="0" type="line"/>
	  <point x="298" y="33" type="line"/>
	  <point x="217" y="42" type="line"/>
	  <point x="217" y="544" type="line"/>
	  <point x="198" y="553" type="line"/>
	  <point x="79" y="523" type="line"/>
	  <point x="79" y="499" type="line"/>
	  <point x="149" y="474" type="line"/>
	  <point x="149" y="41" type="line"/>
	  <point x="68" y="33" type="line"/>
	</contour>
  </outline>
</glyph>
<glyph name="idieresis" format="1">
  <advance width="333"/>
  <unicode hex="00EF"/>
  <outline>
    <contour>
      <point x="79" y="523" type="line"/>
      <point x="79" y="499" type="line"/>
      <point x="149" y="474" type="line"/>
      <point x="149" y="41" type="line"/>
      <point x="68" y="33" type="line"/>
      <point x="68" y="0" type="line"/>
      <point x="298" y="0" type="line"/>
      <point x="298" y="33" type="line"/>
      <point x="217" y="42" type="line"/>
      <point x="217" y="544" type="line"/>
      <point x="198" y="553" type="line"/>
    </contour>
    <contour>
      <point x="41" y="795"/>
      <point x="12" y="771"/>
      <point x="12" y="741" type="curve" smooth="yes"/>
      <point x="12" y="712"/>
      <point x="34" y="696"/>
      <point x="60" y="696" type="curve" smooth="yes"/>
      <point x="88" y="696"/>
      <point x="117" y="716"/>
      <point x="117" y="749" type="curve" smooth="yes"/>
      <point x="117" y="774"/>
      <point x="102" y="795"/>
      <point x="68" y="795" type="curve" smooth="yes"/>
    </contour>
    <contour>
      <point x="263" y="795"/>
      <point x="234" y="771"/>
      <point x="234" y="741" type="curve" smooth="yes"/>
      <point x="234" y="712"/>
      <point x="256" y="696"/>
      <point x="282" y="696" type="curve" smooth="yes"/>
      <point x="311" y="696"/>
      <point x="339" y="716"/>
      <point x="339" y="749" type="curve" smooth="yes"/>
      <point x="339" y="774"/>
      <point x="324" y="795"/>
      <point x="291" y="795" type="curve" smooth="yes"/>
    </contour>
  </outline>
</glyph>
<glyph name="ograve" format="1">
  <advance width="601"/>
  <unicode hex="00F2"/>
  <outline>
    <contour>
      <point x="173" y="561"/>
      <point x="54" y="456"/>
      <point x="51" y="284" type="curve" smooth="yes"/>
      <point x="49" y="131"/>
      <point x="118" y="-12"/>
      <point x="297" y="-12" type="curve" smooth="yes"/>
      <point x="440" y="-12"/>
      <point x="549" y="110"/>
      <point x="551" y="282" type="curve" smooth="yes"/>
      <point x="551" y="428"/>
      <point x="481" y="564"/>
      <point x="310" y="563" type="curve" smooth="yes"/>
    </contour>
    <contour>
      <point x="428" y="520"/>
      <point x="476" y="409"/>
      <point x="476" y="277" type="curve" smooth="yes"/>
      <point x="476" y="116"/>
      <point x="414" y="28"/>
      <point x="301" y="31" type="curve" smooth="yes"/>
      <point x="177" y="33"/>
      <point x="126" y="151"/>
      <point x="126" y="288" type="curve" smooth="yes"/>
      <point x="126" y="436"/>
      <point x="192" y="524"/>
      <point x="305" y="522" type="curve" smooth="yes"/>
    </contour>
    <contour>
      <point x="171" y="811" type="line"/>
      <point x="204" y="761"/>
      <point x="296" y="697"/>
      <point x="355" y="656" type="curve"/>
      <point x="376" y="677" type="line"/>
      <point x="223" y="864" type="line"/>
    </contour>
  </outline>
</glyph>
<glyph name="oacute" format="1">
  <advance width="601"/>
  <unicode hex="00F3"/>
  <outline>
    <contour>
      <point x="173" y="561"/>
      <point x="54" y="456"/>
      <point x="51" y="284" type="curve" smooth="yes"/>
      <point x="49" y="131"/>
      <point x="118" y="-12"/>
      <point x="297" y="-12" type="curve" smooth="yes"/>
      <point x="440" y="-12"/>
      <point x="549" y="110"/>
      <point x="551" y="282" type="curve" smooth="yes"/>
      <point x="551" y="428"/>
      <point x="481" y="564"/>
      <point x="310" y="563" type="curve" smooth="yes"/>
    </contour>
    <contour>
      <point x="428" y="520"/>
      <point x="476" y="409"/>
      <point x="476" y="277" type="curve" smooth="yes"/>
      <point x="476" y="116"/>
      <point x="414" y="28"/>
      <point x="301" y="31" type="curve" smooth="yes"/>
      <point x="177" y="33"/>
      <point x="126" y="151"/>
      <point x="126" y="288" type="curve" smooth="yes"/>
      <point x="126" y="436"/>
      <point x="192" y="524"/>
      <point x="305" y="522" type="curve" smooth="yes"/>
    </contour>
    <contour>
      <point x="249" y="677" type="line"/>
      <point x="270" y="656" type="line"/>
      <point x="330" y="697"/>
      <point x="422" y="764"/>
      <point x="454" y="811" type="curve"/>
      <point x="402" y="864" type="line"/>
    </contour>
  </outline>
</glyph>
<glyph name="divide" format="1">
  <advance width="620"/>
  <unicode hex="00F7"/>
  <outline>
	<contour>
	  <point x="84" y="417" type="line"/>
	  <point x="84" y="363" type="line"/>
	  <point x="536" y="363" type="line"/>
	  <point x="536" y="417" type="line"/>
	</contour>
	<contour>
	  <point x="298" y="247"/>
	  <point x="270" y="230"/>
	  <point x="266" y="203" type="curve" smooth="yes"/>
	  <point x="262" y="177"/>
	  <point x="278" y="159"/>
	  <point x="299" y="155" type="curve"/>
	  <point x="325" y="153"/>
	  <point x="352" y="167"/>
	  <point x="355" y="197" type="curve"/>
	  <point x="359" y="220"/>
	  <point x="351" y="241"/>
	  <point x="322" y="245" type="curve" smooth="yes"/>
	</contour>
	<contour>
	  <point x="288" y="628"/>
	  <point x="258" y="605"/>
	  <point x="258" y="574" type="curve" smooth="yes"/>
	  <point x="258" y="545"/>
	  <point x="281" y="527"/>
	  <point x="306" y="527" type="curve" smooth="yes"/>
	  <point x="335" y="527"/>
	  <point x="364" y="549"/>
	  <point x="364" y="582" type="curve" smooth="yes"/>
	  <point x="364" y="607"/>
	  <point x="349" y="628"/>
	  <point x="315" y="628" type="curve" smooth="yes"/>
	</contour>
  </outline>
</glyph>
<glyph name="oslash" format="1">
  <advance width="601"/>
  <unicode hex="00F8"/>
  <outline>
    <contour>
      <point x="165" y="-81" type="line"/>
      <point x="199" y="-94" type="line"/>
      <point x="229" y="-4" type="line"/>
      <point x="250" y="-9"/>
      <point x="272" y="-12"/>
      <point x="297" y="-12" type="curve" smooth="yes"/>
      <point x="440" y="-12"/>
      <point x="549" y="110"/>
      <point x="551" y="282" type="curve" smooth="yes"/>
      <point x="551" y="393"/>
      <point x="511" y="499"/>
      <point x="416" y="542" type="curve"/>
      <point x="443" y="623" type="line"/>
      <point x="411" y="635" type="line"/>
      <point x="383" y="553" type="line"/>
      <point x="362" y="560"/>
      <point x="337" y="563"/>
      <point x="310" y="563" type="curve" smooth="yes"/>
      <point x="173" y="561"/>
      <point x="54" y="456"/>
      <point x="51" y="284" type="curve" smooth="yes"/>
      <point x="50" y="165"/>
      <point x="91" y="50"/>
      <point x="195" y="7" type="curve"/>
    </contour>
    <contour>
      <point x="214" y="58" type="line"/>
      <point x="152" y="101"/>
      <point x="126" y="189"/>
      <point x="126" y="288" type="curve" smooth="yes"/>
      <point x="126" y="436"/>
      <point x="192" y="524"/>
      <point x="305" y="522" type="curve" smooth="yes"/>
      <point x="328" y="522"/>
      <point x="349" y="518"/>
      <point x="367" y="510" type="curve"/>
    </contour>
    <contour>
      <point x="397" y="493" type="line"/>
      <point x="453" y="451"/>
      <point x="476" y="368"/>
      <point x="476" y="277" type="curve" smooth="yes"/>
      <point x="476" y="116"/>
      <point x="414" y="28"/>
      <point x="301" y="31" type="curve" smooth="yes"/>
      <point x="281" y="31"/>
      <point x="262" y="35"/>
      <point x="246" y="41" type="curve"/>
    </contour>
  </outline>
</glyph>
<glyph name="ugrave" format="1">
  <advance width="631"/>
  <unicode hex="00F9"/>
  <outline>
    <contour>
      <point x="371" y="677" type="line"/>
      <point x="218" y="864" type="line"/>
      <point x="166" y="811" type="line"/>
      <point x="199" y="762"/>
      <point x="291" y="696"/>
      <point x="350" y="656" type="curve"/>
    </contour>
    <contour>
      <point x="104" y="225" type="line" smooth="yes"/>
      <point x="104" y="90"/>
      <point x="110" y="-10"/>
      <point x="263" y="-10" type="curve" smooth="yes"/>
      <point x="330" y="-10"/>
      <point x="396" y="17"/>
      <point x="460" y="69" type="curve"/>
      <point x="460" y="25" type="line" smooth="yes"/>
      <point x="460" y="0"/>
      <point x="476" y="-12"/>
      <point x="505" y="-12" type="curve" smooth="yes"/>
      <point x="529" y="-12"/>
      <point x="566" y="-3"/>
      <point x="584" y="5" type="curve"/>
      <point x="584" y="35" type="line"/>
      <point x="523" y="35" type="line"/>
      <point x="523" y="547" type="line"/>
      <point x="509" y="556" type="line"/>
      <point x="392" y="534" type="line"/>
      <point x="392" y="502" type="line"/>
      <point x="453" y="492" type="line"/>
      <point x="453" y="107" type="line"/>
      <point x="434" y="89"/>
      <point x="366" y="41"/>
      <point x="291" y="41" type="curve" smooth="yes"/>
      <point x="192" y="41"/>
      <point x="174" y="92"/>
      <point x="174" y="211" type="curve" smooth="yes"/>
      <point x="174" y="547" type="line"/>
      <point x="159" y="556" type="line"/>
      <point x="54" y="536" type="line"/>
      <point x="54" y="506" type="line"/>
      <point x="104" y="497" type="line"/>
    </contour>
  </outline>
</glyph>
<glyph name="uacute" format="1">
  <advance width="631"/>
  <unicode hex="00FA"/>
  <outline>
	<contour>
	  <point x="265" y="656" type="line"/>
	  <point x="325" y="696"/>
	  <point x="417" y="764"/>
	  <point x="449" y="811" type="curve"/>
	  <point x="396" y="864" type="line"/>
	  <point x="244" y="677" type="line"/>
	</contour>
	<contour>
	  <point x="104" y="225" type="line" smooth="yes"/>
	  <point x="104" y="90"/>
	  <point x="110" y="-10"/>
	  <point x="263" y="-10" type="curve" smooth="yes"/>
	  <point x="330" y="-10"/>
	  <point x="396" y="17"/>
	  <point x="460" y="69" type="curve"/>
	  <point x="460" y="25" type="line" smooth="yes"/>
	  <point x="460" y="0"/>
	  <point x="476" y="-12"/>
	  <point x="505" y="-12" type="curve" smooth="yes"/>
	  <point x="529" y="-12"/>
	  <point x="566" y="-3"/>
	  <point x="584" y="5" type="curve"/>
	  <point x="584" y="35" type="line"/>
	  <point x="523" y="35" type="line"/>
	  <point x="523" y="547" type="line"/>
	  <point x="509" y="556" type="line"/>
	  <point x="392" y="534" type="line"/>
	  <point x="392" y="502" type="line"/>
	  <point x="453" y="492" type="line"/>
	  <point x="453" y="107" type="line"/>
	  <point x="434" y="89"/>
	  <point x="366" y="41"/>
	  <point x="291" y="41" type="curve" smooth="yes"/>
	  <point x="192" y="41"/>
	  <point x="174" y="92"/>
	  <point x="174" y="211" type="curve" smooth="yes"/>
	  <point x="174" y="547" type="line"/>
	  <point x="159" y="556" type="line"/>
	  <point x="54" y="536" type="line"/>
	  <point x="54" y="506" type="line"/>
	  <point x="104" y="497" type="line"/>
	</contour>
  </outline>
</glyph>
<glyph name="udieresis" format="1">
  <advance width="631"/>
  <unicode hex="00FC"/>
  <outline>
    <contour>
      <point x="392" y="534" type="line"/>
      <point x="392" y="502" type="line"/>
      <point x="453" y="492" type="line"/>
      <point x="453" y="107" type="line"/>
      <point x="434" y="89"/>
      <point x="366" y="41"/>
      <point x="291" y="41" type="curve" smooth="yes"/>
      <point x="192" y="41"/>
      <point x="174" y="92"/>
      <point x="174" y="211" type="curve" smooth="yes"/>
      <point x="174" y="547" type="line"/>
      <point x="159" y="556" type="line"/>
      <point x="54" y="536" type="line"/>
      <point x="54" y="506" type="line"/>
      <point x="104" y="497" type="line"/>
      <point x="104" y="225" type="line" smooth="yes"/>
      <point x="104" y="90"/>
      <point x="110" y="-10"/>
      <point x="263" y="-10" type="curve" smooth="yes"/>
      <point x="330" y="-10"/>
      <point x="396" y="17"/>
      <point x="460" y="69" type="curve"/>
      <point x="460" y="25" type="line" smooth="yes"/>
      <point x="460" y="0"/>
      <point x="476" y="-12"/>
      <point x="505" y="-12" type="curve" smooth="yes"/>
      <point x="529" y="-12"/>
      <point x="566" y="-3"/>
      <point x="584" y="5" type="curve"/>
      <point x="584" y="35" type="line"/>
      <point x="523" y="35" type="line"/>
      <point x="523" y="547" type="line"/>
      <point x="509" y="556" type="line"/>
    </contour>
    <contour>
      <point x="166" y="795"/>
      <point x="137" y="771"/>
      <point x="137" y="741" type="curve" smooth="yes"/>
      <point x="137" y="712"/>
      <point x="159" y="696"/>
      <point x="185" y="696" type="curve" smooth="yes"/>
      <point x="213" y="696"/>
      <point x="242" y="716"/>
      <point x="242" y="749" type="curve" smooth="yes"/>
      <point x="242" y="774"/>
      <point x="227" y="795"/>
      <point x="193" y="795" type="curve" smooth="yes"/>
    </contour>
    <contour>
      <point x="388" y="795"/>
      <point x="359" y="771"/>
      <point x="359" y="741" type="curve" smooth="yes"/>
      <point x="359" y="712"/>
      <point x="381" y="696"/>
      <point x="407" y="696" type="curve" smooth="yes"/>
      <point x="436" y="696"/>
      <point x="464" y="716"/>
      <point x="464" y="749" type="curve" smooth="yes"/>
      <point x="464" y="774"/>
      <point x="449" y="795"/>
      <point x="416" y="795" type="curve" smooth="yes"/>
    </contour>
  </outline>
</glyph>
<glyph name="thorn" format="1">
  <advance width="620"/>
  <unicode hex="00FE"/>
  <outline>
    <contour>
      <point x="24" y="778" type="line"/>
      <point x="24" y="745" type="line"/>
      <point x="107" y="732" type="line"/>
      <point x="107" y="-207" type="line"/>
      <point x="32" y="-217" type="line"/>
      <point x="32" y="-250" type="line"/>
      <point x="290" y="-250" type="line"/>
      <point x="290" y="-217" type="line"/>
      <point x="177" y="-208" type="line"/>
      <point x="177" y="-49" type="line"/>
      <point x="175" y="-1" type="line"/>
      <point x="208" y="-8"/>
      <point x="248" y="-14"/>
      <point x="292" y="-14" type="curve" smooth="yes"/>
      <point x="456" y="-14"/>
      <point x="568" y="124"/>
      <point x="568" y="295" type="curve" smooth="yes"/>
      <point x="568" y="490"/>
      <point x="461" y="563"/>
      <point x="350" y="563" type="curve" smooth="yes"/>
      <point x="274" y="563"/>
      <point x="216" y="529"/>
      <point x="178" y="498" type="curve"/>
      <point x="178" y="784" type="line"/>
      <point x="161" y="792" type="line"/>
    </contour>
    <contour>
      <point x="414" y="511"/>
      <point x="499" y="450"/>
      <point x="498" y="278" type="curve" smooth="yes"/>
      <point x="496" y="108"/>
      <point x="399" y="27"/>
      <point x="300" y="27" type="curve" smooth="yes"/>
      <point x="244" y="27"/>
      <point x="188" y="38"/>
      <point x="178" y="65" type="curve"/>
      <point x="178" y="458" type="line"/>
      <point x="209" y="488"/>
      <point x="267" y="511"/>
      <point x="322" y="511" type="curve" smooth="yes"/>
    </contour>
  </outline>
</glyph>
<glyph name="Aogonek" format="1">
  <advance width="729"/>
  <unicode hex="0104"/>
  <outline>
    <contour>
      <point x="1" y="0" type="line"/>
      <point x="221" y="0" type="line"/>
      <point x="221" y="33" type="line"/>
      <point x="136" y="44" type="line"/>
      <point x="197" y="222" type="line"/>
      <point x="512" y="222" type="line"/>
      <point x="574" y="44" type="line"/>
      <point x="492" y="33" type="line"/>
      <point x="492" y="0" type="line"/>
      <point x="573" y="0" type="line"/>
      <point x="497" y="-30"/>
      <point x="420" y="-101"/>
      <point x="420" y="-165" type="curve" smooth="yes"/>
      <point x="420" y="-212"/>
      <point x="452" y="-255"/>
      <point x="518" y="-257" type="curve" smooth="yes"/>
      <point x="598" y="-260"/>
      <point x="646" y="-228"/>
      <point x="672" y="-208" type="curve"/>
      <point x="663" y="-173" type="line"/>
      <point x="644" y="-185"/>
      <point x="599" y="-211"/>
      <point x="556" y="-209" type="curve" smooth="yes"/>
      <point x="509" y="-207"/>
      <point x="486" y="-190"/>
      <point x="486" y="-145" type="curve" smooth="yes"/>
      <point x="486" y="-85"/>
      <point x="589" y="-16"/>
      <point x="646" y="0" type="curve"/>
      <point x="730" y="0" type="line"/>
      <point x="730" y="33" type="line"/>
      <point x="649" y="44" type="line"/>
      <point x="394" y="762" type="line"/>
      <point x="335" y="762" type="line"/>
      <point x="72" y="44" type="line"/>
      <point x="1" y="33" type="line"/>
    </contour>
    <contour>
      <point x="212" y="267" type="line"/>
      <point x="356" y="680" type="line"/>
      <point x="392" y="566" type="line"/>
      <point x="497" y="267" type="line"/>
    </contour>
  </outline>
</glyph>
<glyph name="aogonek" format="1">
  <advance width="559"/>
  <unicode hex="0105"/>
  <outline>
    <contour>
      <point x="226" y="556"/>
      <point x="126" y="537"/>
      <point x="78" y="497" type="curve"/>
      <point x="92" y="462" type="line"/>
      <point x="128" y="485"/>
      <point x="200" y="506"/>
      <point x="249" y="506" type="curve" smooth="yes"/>
      <point x="338" y="506"/>
      <point x="393" y="477"/>
      <point x="393" y="368" type="curve" smooth="yes"/>
      <point x="393" y="325" type="line"/>
      <point x="268" y="325"/>
      <point x="57" y="286"/>
      <point x="57" y="140" type="curve" smooth="yes"/>
      <point x="57" y="43"/>
      <point x="137" y="-11"/>
      <point x="221" y="-11" type="curve" smooth="yes"/>
      <point x="308" y="-11"/>
      <point x="361" y="18"/>
      <point x="397" y="59" type="curve"/>
      <point x="397" y="12"/>
      <point x="399" y="-4"/>
      <point x="435" y="-8" type="curve"/>
      <point x="385" y="-27"/>
      <point x="303" y="-83"/>
      <point x="303" y="-155" type="curve" smooth="yes"/>
      <point x="303" y="-225"/>
      <point x="358" y="-252"/>
      <point x="417" y="-252" type="curve" smooth="yes"/>
      <point x="458" y="-252"/>
      <point x="502" y="-239"/>
      <point x="529" y="-217" type="curve"/>
      <point x="529" y="-183" type="line"/>
      <point x="506" y="-196"/>
      <point x="475" y="-205"/>
      <point x="446" y="-205" type="curve" smooth="yes"/>
      <point x="405" y="-205"/>
      <point x="370" y="-187"/>
      <point x="370" y="-136" type="curve" smooth="yes"/>
      <point x="370" y="-70"/>
      <point x="454" y="-22"/>
      <point x="527" y="6" type="curve"/>
      <point x="527" y="35" type="line"/>
      <point x="463" y="35" type="line"/>
      <point x="464" y="377" type="line" smooth="yes"/>
      <point x="464" y="521"/>
      <point x="377" y="556"/>
      <point x="273" y="556" type="curve" smooth="yes"/>
    </contour>
    <contour>
      <point x="393" y="88" type="line"/>
      <point x="375" y="73"/>
      <point x="327" y="37"/>
      <point x="257" y="37" type="curve" smooth="yes"/>
      <point x="181" y="37"/>
      <point x="127" y="71"/>
      <point x="128" y="151" type="curve" smooth="yes"/>
      <point x="128" y="257"/>
      <point x="288" y="285"/>
      <point x="393" y="285" type="curve"/>
    </contour>
  </outline>
</glyph>
<glyph name="dcroat" format="1">
  <advance width="620"/>
  <unicode hex="0111"/>
  <outline>
	<contour>
	  <point x="239" y="602" type="line"/>
	  <point x="600" y="602" type="line"/>
	  <point x="600" y="647" type="line"/>
	  <point x="239" y="647" type="line"/>
	</contour>
	<contour>
	  <point x="342" y="776" type="line"/>
	  <point x="342" y="743" type="line"/>
	  <point x="442" y="731" type="line"/>
	  <point x="442" y="502" type="line"/>
	  <point x="421" y="509"/>
	  <point x="391" y="523"/>
	  <point x="332" y="523" type="curve" smooth="yes"/>
	  <point x="177" y="523"/>
	  <point x="52" y="416"/>
	  <point x="52" y="244" type="curve" smooth="yes"/>
	  <point x="52" y="67"/>
	  <point x="154" y="-12"/>
	  <point x="268" y="-12" type="curve" smooth="yes"/>
	  <point x="359" y="-12"/>
	  <point x="419" y="23"/>
	  <point x="445" y="46" type="curve"/>
	  <point x="445" y="3"/>
	  <point x="450" y="-11"/>
	  <point x="490" y="-11" type="curve" smooth="yes"/>
	  <point x="517" y="-11"/>
	  <point x="558" y="-4"/>
	  <point x="579" y="5" type="curve"/>
	  <point x="579" y="35" type="line"/>
	  <point x="513" y="35" type="line"/>
	  <point x="513" y="782" type="line"/>
	  <point x="494" y="792" type="line"/>
	</contour>
	<contour>
	  <point x="403" y="481"/>
	  <point x="429" y="454"/>
	  <point x="442" y="440" type="curve"/>
	  <point x="442" y="89" type="line"/>
	  <point x="404" y="54"/>
	  <point x="348" y="40"/>
	  <point x="295" y="40" type="curve" smooth="yes"/>
	  <point x="199" y="40"/>
	  <point x="120" y="112"/>
	  <point x="123" y="261" type="curve" smooth="yes"/>
	  <point x="126" y="425"/>
	  <point x="228" y="481"/>
	  <point x="324" y="481" type="curve" smooth="yes"/>
	</contour>
  </outline>
</glyph>
<glyph name="Eogonek" format="1">
  <advance width="644"/>
  <unicode hex="0118"/>
  <outline>
	<contour>
	  <point x="50" y="0" type="line"/>
	  <point x="516" y="0" type="line"/>
	  <point x="440" y="-30"/>
	  <point x="363" y="-101"/>
	  <point x="363" y="-165" type="curve" smooth="yes"/>
	  <point x="363" y="-212"/>
	  <point x="395" y="-255"/>
	  <point x="461" y="-257" type="curve" smooth="yes"/>
	  <point x="542" y="-260"/>
	  <point x="589" y="-228"/>
	  <point x="615" y="-208" type="curve"/>
	  <point x="606" y="-173" type="line"/>
	  <point x="586" y="-185"/>
	  <point x="542" y="-211"/>
	  <point x="500" y="-209" type="curve" smooth="yes"/>
	  <point x="453" y="-207"/>
	  <point x="429" y="-190"/>
	  <point x="429" y="-145" type="curve" smooth="yes"/>
	  <point x="429" y="-86"/>
	  <point x="532" y="-17"/>
	  <point x="588" y="0" type="curve"/>
	  <point x="589" y="0" type="line"/>
	  <point x="611" y="154" type="line"/>
	  <point x="575" y="163" type="line"/>
	  <point x="531" y="49" type="line"/>
	  <point x="209" y="41" type="line"/>
	  <point x="209" y="382" type="line"/>
	  <point x="409" y="379" type="line"/>
	  <point x="421" y="297" type="line"/>
	  <point x="460" y="297" type="line"/>
	  <point x="460" y="504" type="line"/>
	  <point x="421" y="504" type="line"/>
	  <point x="409" y="426" type="line"/>
	  <point x="209" y="422" type="line"/>
	  <point x="209" y="719" type="line"/>
	  <point x="508" y="713" type="line"/>
	  <point x="531" y="619" type="line"/>
	  <point x="572" y="619" type="line"/>
	  <point x="558" y="758" type="line"/>
	  <point x="52" y="758" type="line"/>
	  <point x="52" y="721" type="line"/>
	  <point x="138" y="713" type="line"/>
	  <point x="138" y="44" type="line"/>
	  <point x="50" y="33" type="line"/>
	</contour>
  </outline>
</glyph>
<glyph name="eogonek" format="1">
  <advance width="559"/>
  <unicode hex="0119"/>
  <outline>
	<contour>
	  <point x="164" y="563"/>
	  <point x="50" y="439"/>
	  <point x="50" y="271" type="curve" smooth="yes"/>
	  <point x="50" y="100"/>
	  <point x="136" y="-12"/>
	  <point x="293" y="-12" type="curve" smooth="yes"/>
	  <point x="321" y="-12"/>
	  <point x="349" y="-9"/>
	  <point x="377" y="-3" type="curve"/>
	  <point x="317" y="-40"/>
	  <point x="270" y="-96"/>
	  <point x="270" y="-148" type="curve" smooth="yes"/>
	  <point x="270" y="-221"/>
	  <point x="329" y="-250"/>
	  <point x="389" y="-250" type="curve" smooth="yes"/>
	  <point x="429" y="-250"/>
	  <point x="470" y="-237"/>
	  <point x="496" y="-217" type="curve"/>
	  <point x="496" y="-180" type="line"/>
	  <point x="474" y="-194"/>
	  <point x="445" y="-202"/>
	  <point x="418" y="-202" type="curve" smooth="yes"/>
	  <point x="375" y="-202"/>
	  <point x="336" y="-182"/>
	  <point x="336" y="-131" type="curve" smooth="yes"/>
	  <point x="336" y="-71"/>
	  <point x="412" y="-20"/>
	  <point x="494" y="41" type="curve"/>
	  <point x="478" y="77" type="line"/>
	  <point x="450" y="58"/>
	  <point x="381" y="39"/>
	  <point x="319" y="39" type="curve" smooth="yes"/>
	  <point x="187" y="39"/>
	  <point x="122" y="135"/>
	  <point x="122" y="280" type="curve"/>
	  <point x="501" y="280" type="line"/>
	  <point x="505" y="301"/>
	  <point x="508" y="326"/>
	  <point x="506" y="359" type="curve" smooth="yes"/>
	  <point x="504" y="488"/>
	  <point x="431" y="563"/>
	  <point x="320" y="563" type="curve" smooth="yes"/>
	</contour>
	<contour>
	  <point x="397" y="522"/>
	  <point x="433" y="452"/>
	  <point x="433" y="352" type="curve" smooth="yes"/>
	  <point x="433" y="343"/>
	  <point x="433" y="334"/>
	  <point x="432" y="324" type="curve"/>
	  <point x="124" y="324" type="line"/>
	  <point x="137" y="456"/>
	  <point x="210" y="522"/>
	  <point x="300" y="522" type="curve" smooth="yes"/>
	</contour>
  </outline>
</glyph>
<glyph name="Itilde" format="1">
  <advance width="373"/>
  <unicode hex="0128"/>
  <outline>
	<contour>
	  <point x="18" y="831" type="line"/>
	  <point x="39" y="855"/>
	  <point x="73" y="879"/>
	  <point x="111" y="879" type="curve" smooth="yes"/>
	  <point x="161" y="879"/>
	  <point x="184" y="807"/>
	  <point x="248" y="807" type="curve" smooth="yes"/>
	  <point x="300" y="807"/>
	  <point x="351" y="844"/>
	  <point x="375" y="885" type="curve"/>
	  <point x="355" y="915" type="line"/>
	  <point x="333" y="890"/>
	  <point x="303" y="867"/>
	  <point x="262" y="867" type="curve" smooth="yes"/>
	  <point x="212" y="867"/>
	  <point x="189" y="938"/>
	  <point x="126" y="938" type="curve" smooth="yes"/>
	  <point x="74" y="938"/>
	  <point x="22" y="902"/>
	  <point x="-3" y="859" type="curve"/>
	</contour>
	<contour>
	  <point x="66" y="0" type="line"/>
	  <point x="307" y="0" type="line"/>
	  <point x="307" y="33" type="line"/>
	  <point x="221" y="44" type="line"/>
	  <point x="221" y="714" type="line"/>
	  <point x="303" y="721" type="line"/>
	  <point x="303" y="758" type="line"/>
	  <point x="68" y="758" type="line"/>
	  <point x="68" y="721" type="line"/>
	  <point x="149" y="714" type="line"/>
	  <point x="149" y="44" type="line"/>
	  <point x="66" y="33" type="line"/>
	</contour>
  </outline>
</glyph>
<glyph name="itilde" format="1">
  <advance width="333"/>
  <unicode hex="0129"/>
  <outline>
    <contour>
      <point x="4" y="703" type="line"/>
      <point x="26" y="727"/>
      <point x="56" y="755"/>
      <point x="98" y="755" type="curve" smooth="yes"/>
      <point x="148" y="755"/>
      <point x="171" y="681"/>
      <point x="234" y="681" type="curve" smooth="yes"/>
      <point x="286" y="681"/>
      <point x="338" y="719"/>
      <point x="362" y="761" type="curve"/>
      <point x="342" y="790" type="line"/>
      <point x="320" y="766"/>
      <point x="289" y="738"/>
      <point x="248" y="738" type="curve" smooth="yes"/>
      <point x="199" y="738"/>
      <point x="175" y="812"/>
      <point x="113" y="812" type="curve" smooth="yes"/>
      <point x="61" y="812"/>
      <point x="8" y="774"/>
      <point x="-17" y="731" type="curve"/>
    </contour>
    <contour>
      <point x="68" y="0" type="line"/>
      <point x="298" y="0" type="line"/>
      <point x="298" y="33" type="line"/>
      <point x="217" y="42" type="line"/>
      <point x="217" y="544" type="line"/>
      <point x="198" y="553" type="line"/>
      <point x="79" y="523" type="line"/>
      <point x="79" y="499" type="line"/>
      <point x="149" y="474" type="line"/>
      <point x="149" y="41" type="line"/>
      <point x="68" y="33" type="line"/>
    </contour>
  </outline>
</glyph>
<glyph name="iogonek" format="1">
  <advance width="333"/>
  <unicode hex="012F"/>
  <outline>
	<contour>
	  <point x="147" y="794"/>
	  <point x="118" y="771"/>
	  <point x="118" y="738" type="curve" smooth="yes"/>
	  <point x="118" y="709"/>
	  <point x="141" y="691"/>
	  <point x="166" y="691" type="curve" smooth="yes"/>
	  <point x="195" y="691"/>
	  <point x="224" y="713"/>
	  <point x="224" y="747" type="curve" smooth="yes"/>
	  <point x="224" y="773"/>
	  <point x="208" y="794"/>
	  <point x="175" y="794" type="curve" smooth="yes"/>
	</contour>
	<component base="idotless"/>
	<component base="ogonek" xOffset="71"/>
  </outline>
</glyph>
<glyph name="idotless" format="1">
  <advance width="333"/>
  <unicode hex="0131"/>
  <outline>
    <contour>
      <point x="68" y="0" type="line"/>
      <point x="298" y="0" type="line"/>
      <point x="298" y="33" type="line"/>
      <point x="217" y="42" type="line"/>
      <point x="217" y="544" type="line"/>
      <point x="198" y="553" type="line"/>
      <point x="79" y="523" type="line"/>
      <point x="79" y="499" type="line"/>
      <point x="149" y="474" type="line"/>
      <point x="149" y="41" type="line"/>
      <point x="68" y="33" type="line"/>
    </contour>
  </outline>
</glyph>
<glyph name="IJ" format="1">
  <advance width="725"/>
  <unicode hex="0132"/>
  <outline>
	<contour>
	  <point x="352" y="-189" type="line"/>
	  <point x="451" y="-175"/>
	  <point x="556" y="-100"/>
	  <point x="579" y="17" type="curve" smooth="yes"/>
	  <point x="591" y="78"/>
	  <point x="588" y="151"/>
	  <point x="588" y="232" type="curve" smooth="yes"/>
	  <point x="588" y="714" type="line"/>
	  <point x="676" y="721" type="line"/>
	  <point x="676" y="758" type="line"/>
	  <point x="430" y="758" type="line"/>
	  <point x="430" y="721" type="line"/>
	  <point x="516" y="714" type="line"/>
	  <point x="516" y="196" type="line" smooth="yes"/>
	  <point x="516" y="96"/>
	  <point x="514" y="28"/>
	  <point x="495" y="-29" type="curve"/>
	  <point x="470" y="-92"/>
	  <point x="411" y="-139"/>
	  <point x="331" y="-160" type="curve"/>
	</contour>
	<contour>
	  <point x="66" y="0" type="line"/>
	  <point x="307" y="0" type="line"/>
	  <point x="307" y="33" type="line"/>
	  <point x="221" y="44" type="line"/>
	  <point x="221" y="714" type="line"/>
	  <point x="303" y="721" type="line"/>
	  <point x="303" y="758" type="line"/>
	  <point x="68" y="758" type="line"/>
	  <point x="68" y="721" type="line"/>
	  <point x="149" y="714" type="line"/>
	  <point x="149" y="44" type="line"/>
	  <point x="66" y="33" type="line"/>
	</contour>
  </outline>
</glyph>
<glyph name="ij" format="1">
  <advance width="650"/>
  <unicode hex="0133"/>
  <outline>
    <contour>
      <point x="408" y="523" type="line"/>
      <point x="408" y="499" type="line"/>
      <point x="481" y="474" type="line"/>
      <point x="481" y="-1" type="line" smooth="yes"/>
      <point x="481" y="-156"/>
      <point x="445" y="-198"/>
      <point x="382" y="-198" type="curve" smooth="yes"/>
      <point x="371" y="-198"/>
      <point x="339" y="-197"/>
      <point x="329" y="-193" type="curve"/>
      <point x="329" y="-244" type="line"/>
      <point x="334" y="-249"/>
      <point x="368" y="-251"/>
      <point x="382" y="-251" type="curve" smooth="yes"/>
      <point x="489" y="-251"/>
      <point x="550" y="-160"/>
      <point x="550" y="-8" type="curve" smooth="yes"/>
      <point x="550" y="544" type="line"/>
      <point x="532" y="553" type="line"/>
    </contour>
    <contour>
      <point x="79" y="523" type="line"/>
      <point x="79" y="499" type="line"/>
      <point x="149" y="474" type="line"/>
      <point x="149" y="41" type="line"/>
      <point x="68" y="33" type="line"/>
      <point x="68" y="0" type="line"/>
      <point x="298" y="0" type="line"/>
      <point x="298" y="33" type="line"/>
      <point x="217" y="42" type="line"/>
      <point x="217" y="544" type="line"/>
      <point x="198" y="553" type="line"/>
    </contour>
    <contour>
      <point x="147" y="794"/>
      <point x="118" y="771"/>
      <point x="118" y="738" type="curve" smooth="yes"/>
      <point x="118" y="709"/>
      <point x="141" y="691"/>
      <point x="166" y="691" type="curve" smooth="yes"/>
      <point x="195" y="691"/>
      <point x="224" y="713"/>
      <point x="224" y="747" type="curve" smooth="yes"/>
      <point x="224" y="773"/>
      <point x="208" y="794"/>
      <point x="175" y="794" type="curve" smooth="yes"/>
    </contour>
    <contour>
      <point x="479" y="791"/>
      <point x="450" y="768"/>
      <point x="450" y="735" type="curve" smooth="yes"/>
      <point x="450" y="705"/>
      <point x="473" y="688"/>
      <point x="498" y="688" type="curve" smooth="yes"/>
      <point x="527" y="688"/>
      <point x="556" y="709"/>
      <point x="556" y="743" type="curve" smooth="yes"/>
      <point x="556" y="770"/>
      <point x="541" y="791"/>
      <point x="507" y="791" type="curve" smooth="yes"/>
    </contour>
  </outline>
</glyph>
<glyph name="Kcommaaccent" format="1">
  <advance width="693"/>
  <unicode hex="0136"/>
  <outline>
    <contour>
      <point x="52" y="0" type="line"/>
      <point x="290" y="0" type="line"/>
      <point x="290" y="33" type="line"/>
      <point x="204" y="44" type="line"/>
      <point x="204" y="283" type="line"/>
      <point x="297" y="389" type="line"/>
      <point x="366" y="323"/>
      <point x="534" y="0"/>
      <point x="568" y="0" type="curve" smooth="yes"/>
      <point x="696" y="0" type="line"/>
      <point x="696" y="33" type="line"/>
      <point x="622" y="47" type="line"/>
      <point x="588" y="47"/>
      <point x="400" y="373"/>
      <point x="339" y="437" type="curve"/>
      <point x="584" y="713" type="line"/>
      <point x="662" y="721" type="line"/>
      <point x="662" y="758" type="line"/>
      <point x="437" y="758" type="line"/>
      <point x="437" y="747"/>
      <point x="438" y="732"/>
      <point x="438" y="721" type="curve"/>
      <point x="516" y="713" type="line"/>
      <point x="204" y="350" type="line"/>
      <point x="204" y="714" type="line"/>
      <point x="282" y="721" type="line"/>
      <point x="282" y="758" type="line"/>
      <point x="53" y="758" type="line"/>
      <point x="53" y="721" type="line"/>
      <point x="131" y="714" type="line"/>
      <point x="131" y="44" type="line"/>
      <point x="52" y="33" type="line"/>
    </contour>
    <contour>
      <point x="336" y="-73" type="line"/>
      <point x="336" y="-94" type="line"/>
      <point x="359" y="-94"/>
      <point x="395" y="-120"/>
      <point x="395" y="-163" type="curve" smooth="yes"/>
      <point x="395" y="-212"/>
      <point x="375" y="-264"/>
      <point x="335" y="-281" type="curve"/>
      <point x="335" y="-294" type="line"/>
      <point x="356" y="-313" type="line"/>
      <point x="404" y="-296"/>
      <point x="471" y="-229"/>
      <point x="469" y="-147" type="curve"/>
      <point x="469" y="-101"/>
      <point x="435" y="-48"/>
      <point x="372" y="-36" type="curve"/>
    </contour>
  </outline>
</glyph>
<glyph name="kgreenlandic" format="1">
  <advance width="622"/>
  <unicode hex="0138"/>
  <outline>
	<contour>
	  <point x="59" y="0" type="line"/>
	  <point x="285" y="0" type="line"/>
	  <point x="285" y="33" type="line"/>
	  <point x="209" y="42" type="line"/>
	  <point x="209" y="96" type="line"/>
	  <point x="207" y="211" type="line"/>
	  <point x="296" y="295" type="line"/>
	  <point x="479" y="42" type="line"/>
	  <point x="407" y="33" type="line"/>
	  <point x="407" y="0" type="line"/>
	  <point x="630" y="0" type="line"/>
	  <point x="630" y="33" type="line"/>
	  <point x="558" y="42" type="line"/>
	  <point x="339" y="331" type="line"/>
	  <point x="521" y="505" type="line"/>
	  <point x="596" y="512" type="line"/>
	  <point x="596" y="551" type="line"/>
	  <point x="382" y="551" type="line"/>
	  <point x="382" y="511" type="line"/>
	  <point x="455" y="505" type="line"/>
	  <point x="207" y="264" type="line"/>
	  <point x="209" y="344" type="line"/>
	  <point x="209" y="546" type="line"/>
	  <point x="192" y="557" type="line"/>
	  <point x="52" y="541" type="line"/>
	  <point x="52" y="507" type="line"/>
	  <point x="138" y="495" type="line"/>
	  <point x="138" y="42" type="line"/>
	  <point x="59" y="33" type="line"/>
	</contour>
  </outline>
</glyph>
<glyph name="ldot" format="1">
  <advance width="494"/>
  <unicode hex="0140"/>
  <outline>
    <contour>
      <point x="69" y="776" type="line"/>
      <point x="69" y="742" type="line"/>
      <point x="148" y="730" type="line"/>
      <point x="148" y="42" type="line"/>
      <point x="67" y="33" type="line"/>
      <point x="67" y="0" type="line"/>
      <point x="305" y="0" type="line"/>
      <point x="305" y="33" type="line"/>
      <point x="219" y="41" type="line"/>
      <point x="219" y="782" type="line"/>
      <point x="202" y="792" type="line"/>
    </contour>
    <contour>
      <point x="411" y="442"/>
      <point x="383" y="425"/>
      <point x="379" y="398" type="curve" smooth="yes"/>
      <point x="375" y="373"/>
      <point x="391" y="354"/>
      <point x="412" y="351" type="curve" smooth="yes"/>
      <point x="437" y="347"/>
      <point x="464" y="364"/>
      <point x="468" y="392" type="curve"/>
      <point x="472" y="415"/>
      <point x="463" y="436"/>
      <point x="435" y="440" type="curve" smooth="yes"/>
    </contour>
  </outline>
</glyph>
<glyph name="Lslash" format="1">
  <advance width="607"/>
  <unicode hex="0141"/>
  <outline>
	<contour>
	  <point x="54" y="758" type="line"/>
	  <point x="54" y="717" type="line"/>
	  <point x="140" y="710" type="line"/>
	  <point x="140" y="343" type="line"/>
	  <point x="43" y="303" type="line"/>
	  <point x="43" y="275" type="line"/>
	  <point x="43" y="266"/>
	  <point x="43" y="258"/>
	  <point x="43" y="249" type="curve"/>
	  <point x="140" y="287" type="line"/>
	  <point x="140" y="45" type="line"/>
	  <point x="52" y="33" type="line"/>
	  <point x="52" y="0" type="line"/>
	  <point x="561" y="0" type="line"/>
	  <point x="593" y="155" type="line"/>
	  <point x="560" y="171" type="line"/>
	  <point x="507" y="51" type="line"/>
	  <point x="211" y="42" type="line"/>
	  <point x="211" y="316" type="line"/>
	  <point x="475" y="422" type="line"/>
	  <point x="475" y="481" type="line"/>
	  <point x="389" y="445" type="line"/>
	  <point x="330" y="421"/>
	  <point x="270" y="397"/>
	  <point x="211" y="373" type="curve"/>
	  <point x="212" y="710" type="line"/>
	  <point x="307" y="717" type="line"/>
	  <point x="307" y="758" type="line"/>
	</contour>
  </outline>
</glyph>
<glyph name="lslash" format="1">
  <advance width="341"/>
  <unicode hex="0142"/>
  <outline>
	<contour>
	  <point x="67" y="0" type="line"/>
	  <point x="305" y="0" type="line"/>
	  <point x="305" y="33" type="line"/>
	  <point x="219" y="41" type="line"/>
	  <point x="219" y="417" type="line"/>
	  <point x="316" y="456" type="line"/>
	  <point x="316" y="511" type="line"/>
	  <point x="219" y="470" type="line"/>
	  <point x="219" y="782" type="line"/>
	  <point x="202" y="792" type="line"/>
	  <point x="69" y="776" type="line"/>
	  <point x="69" y="742" type="line"/>
	  <point x="148" y="730" type="line"/>
	  <point x="148" y="441" type="line"/>
	  <point x="60" y="405" type="line"/>
	  <point x="60" y="354" type="line"/>
	  <point x="148" y="389" type="line"/>
	  <point x="148" y="42" type="line"/>
	  <point x="67" y="33" type="line"/>
	</contour>
  </outline>
</glyph>
<glyph name="nacute" format="1">
  <advance width="682"/>
  <unicode hex="0144"/>
  <outline>
    <contour>
      <point x="322" y="656" type="line"/>
      <point x="382" y="697"/>
      <point x="475" y="764"/>
      <point x="506" y="811" type="curve"/>
      <point x="454" y="864" type="line"/>
      <point x="301" y="677" type="line"/>
    </contour>
    <contour>
      <point x="67" y="0" type="line"/>
      <point x="285" y="0" type="line"/>
      <point x="285" y="33" type="line"/>
      <point x="208" y="42" type="line"/>
      <point x="208" y="443" type="line"/>
      <point x="257" y="477"/>
      <point x="323" y="501"/>
      <point x="374" y="503" type="curve" smooth="yes"/>
      <point x="472" y="507"/>
      <point x="501" y="454"/>
      <point x="501" y="315" type="curve" smooth="yes"/>
      <point x="501" y="42" type="line"/>
      <point x="426" y="33" type="line"/>
      <point x="426" y="0" type="line"/>
      <point x="651" y="0" type="line"/>
      <point x="651" y="33" type="line"/>
      <point x="572" y="42" type="line"/>
      <point x="572" y="324" type="line" smooth="yes"/>
      <point x="572" y="499"/>
      <point x="528" y="562"/>
      <point x="405" y="558" type="curve" smooth="yes"/>
      <point x="337" y="555"/>
      <point x="244" y="512"/>
      <point x="199" y="477" type="curve"/>
      <point x="199" y="544" type="line"/>
      <point x="181" y="553" type="line"/>
      <point x="65" y="523" type="line"/>
      <point x="65" y="499" type="line"/>
      <point x="137" y="473" type="line"/>
      <point x="137" y="42" type="line"/>
      <point x="67" y="33" type="line"/>
    </contour>
  </outline>
</glyph>
<glyph name="OE" format="1">
  <advance width="1015"/>
  <unicode hex="0152"/>
  <outline>
    <contour>
      <point x="204" y="761"/>
      <point x="51" y="619"/>
      <point x="45" y="371" type="curve" smooth="yes"/>
      <point x="42" y="143"/>
      <point x="176" y="-16"/>
      <point x="378" y="-14" type="curve" smooth="yes"/>
      <point x="414" y="-13"/>
      <point x="446" y="-8"/>
      <point x="476" y="0" type="curve"/>
      <point x="962" y="0" type="line"/>
      <point x="984" y="154" type="line"/>
      <point x="948" y="163" type="line"/>
      <point x="903" y="49" type="line"/>
      <point x="595" y="41" type="line"/>
      <point x="595" y="383" type="line"/>
      <point x="792" y="380" type="line"/>
      <point x="806" y="298" type="line"/>
      <point x="844" y="298" type="line"/>
      <point x="844" y="505" type="line"/>
      <point x="806" y="505" type="line"/>
      <point x="792" y="427" type="line"/>
      <point x="595" y="423" type="line"/>
      <point x="595" y="719" type="line"/>
      <point x="884" y="713" type="line"/>
      <point x="907" y="619" type="line"/>
      <point x="948" y="619" type="line"/>
      <point x="934" y="758" type="line"/>
      <point x="472" y="758" type="line"/>
      <point x="447" y="763"/>
      <point x="422" y="765"/>
      <point x="393" y="765" type="curve" smooth="yes"/>
    </contour>
    <contour>
      <point x="442" y="724"/>
      <point x="488" y="701"/>
      <point x="523" y="664" type="curve"/>
      <point x="523" y="82" type="line"/>
      <point x="488" y="45"/>
      <point x="443" y="26"/>
      <point x="386" y="26" type="curve" smooth="yes"/>
      <point x="224" y="26"/>
      <point x="125" y="178"/>
      <point x="125" y="371" type="curve" smooth="yes"/>
      <point x="125" y="591"/>
      <point x="231" y="724"/>
      <point x="385" y="724" type="curve" smooth="yes"/>
    </contour>
  </outline>
</glyph>
<glyph name="oe" format="1">
  <advance width="1006"/>
  <unicode hex="0153"/>
  <outline>
    <contour>
      <point x="659" y="560"/>
      <point x="573" y="503"/>
      <point x="529" y="413" type="curve"/>
      <point x="497" y="500"/>
      <point x="427" y="564"/>
      <point x="310" y="563" type="curve" smooth="yes"/>
      <point x="173" y="561"/>
      <point x="54" y="456"/>
      <point x="51" y="284" type="curve" smooth="yes"/>
      <point x="49" y="131"/>
      <point x="118" y="-12"/>
      <point x="297" y="-12" type="curve" smooth="yes"/>
      <point x="396" y="-12"/>
      <point x="479" y="45"/>
      <point x="520" y="137" type="curve"/>
      <point x="555" y="43"/>
      <point x="629" y="-12"/>
      <point x="741" y="-12" type="curve" smooth="yes"/>
      <point x="815" y="-12"/>
      <point x="903" y="9"/>
      <point x="941" y="43" type="curve"/>
      <point x="926" y="77" type="line"/>
      <point x="898" y="58"/>
      <point x="829" y="39"/>
      <point x="767" y="39" type="curve" smooth="yes"/>
      <point x="634" y="39"/>
      <point x="570" y="134"/>
      <point x="570" y="280" type="curve"/>
      <point x="950" y="280" type="line"/>
      <point x="952" y="301"/>
      <point x="956" y="326"/>
      <point x="954" y="359" type="curve" smooth="yes"/>
      <point x="952" y="489"/>
      <point x="878" y="564"/>
      <point x="767" y="563" type="curve" smooth="yes"/>
    </contour>
    <contour>
      <point x="428" y="520"/>
      <point x="476" y="409"/>
      <point x="476" y="277" type="curve" smooth="yes"/>
      <point x="476" y="116"/>
      <point x="414" y="28"/>
      <point x="301" y="31" type="curve" smooth="yes"/>
      <point x="177" y="33"/>
      <point x="126" y="151"/>
      <point x="126" y="288" type="curve" smooth="yes"/>
      <point x="126" y="436"/>
      <point x="192" y="524"/>
      <point x="305" y="522" type="curve" smooth="yes"/>
    </contour>
    <contour>
      <point x="773" y="522"/>
      <point x="796" y="517"/>
      <point x="814" y="507" type="curve" smooth="yes"/>
      <point x="870" y="477"/>
      <point x="885" y="406"/>
      <point x="880" y="324" type="curve"/>
      <point x="572" y="324" type="line"/>
      <point x="585" y="456"/>
      <point x="658" y="522"/>
      <point x="748" y="522" type="curve" smooth="yes"/>
    </contour>
  </outline>
</glyph>
<glyph name="Scaron" format="1">
  <advance width="600"/>
  <unicode hex="0160"/>
  <outline>
    <contour>
      <point x="283" y="796" type="line"/>
      <point x="352" y="796" type="line"/>
      <point x="478" y="918" type="line"/>
      <point x="449" y="938" type="line"/>
      <point x="317" y="848" type="line"/>
      <point x="188" y="938" type="line"/>
      <point x="155" y="917" type="line"/>
    </contour>
    <contour>
      <point x="73" y="31" type="line"/>
      <point x="101" y="14"/>
      <point x="199" y="-11"/>
      <point x="296" y="-11" type="curve" smooth="yes"/>
      <point x="433" y="-11"/>
      <point x="548" y="49"/>
      <point x="548" y="192" type="curve" smooth="yes"/>
      <point x="548" y="307"/>
      <point x="432" y="364"/>
      <point x="325" y="415" type="curve" smooth="yes"/>
      <point x="232" y="459"/>
      <point x="145" y="503"/>
      <point x="145" y="586" type="curve" smooth="yes"/>
      <point x="145" y="689"/>
      <point x="238" y="727"/>
      <point x="309" y="727" type="curve" smooth="yes"/>
      <point x="361" y="727"/>
      <point x="412" y="718"/>
      <point x="441" y="693" type="curve"/>
      <point x="470" y="596" type="line"/>
      <point x="503" y="596" type="line"/>
      <point x="503" y="726" type="line"/>
      <point x="474" y="743"/>
      <point x="415" y="765"/>
      <point x="315" y="765" type="curve" smooth="yes"/>
      <point x="214" y="765"/>
      <point x="78" y="712"/>
      <point x="78" y="575" type="curve" smooth="yes"/>
      <point x="78" y="464"/>
      <point x="185" y="408"/>
      <point x="289" y="358" type="curve" smooth="yes"/>
      <point x="386" y="311"/>
      <point x="480" y="263"/>
      <point x="480" y="173" type="curve" smooth="yes"/>
      <point x="480" y="66"/>
      <point x="389" y="28"/>
      <point x="305" y="28" type="curve" smooth="yes"/>
      <point x="248" y="28"/>
      <point x="172" y="38"/>
      <point x="132" y="77" type="curve"/>
      <point x="109" y="177" type="line"/>
      <point x="73" y="177" type="line"/>
    </contour>
  </outline>
</glyph>
<glyph name="scaron" format="1">
  <advance width="502"/>
  <unicode hex="0161"/>
  <outline>
	<contour>
	  <point x="224" y="653" type="line"/>
	  <point x="293" y="653" type="line"/>
	  <point x="427" y="847" type="line"/>
	  <point x="397" y="865" type="line"/>
	  <point x="259" y="715" type="line"/>
	  <point x="120" y="865" type="line"/>
	  <point x="87" y="847" type="line"/>
	</contour>
	<contour>
	  <point x="77" y="30" type="line"/>
	  <point x="126" y="2"/>
	  <point x="188" y="-12"/>
	  <point x="247" y="-12" type="curve" smooth="yes"/>
	  <point x="366" y="-12"/>
	  <point x="454" y="42"/>
	  <point x="454" y="146" type="curve" smooth="yes"/>
	  <point x="454" y="243"/>
	  <point x="361" y="275"/>
	  <point x="288" y="308" type="curve" smooth="yes"/>
	  <point x="213" y="343"/>
	  <point x="150" y="367"/>
	  <point x="151" y="431" type="curve" smooth="yes"/>
	  <point x="153" y="486"/>
	  <point x="198" y="524"/>
	  <point x="277" y="524" type="curve" smooth="yes"/>
	  <point x="320" y="524"/>
	  <point x="356" y="510"/>
	  <point x="377" y="490" type="curve"/>
	  <point x="394" y="429" type="line"/>
	  <point x="427" y="429" type="line"/>
	  <point x="427" y="527" type="line"/>
	  <point x="400" y="545"/>
	  <point x="338" y="564"/>
	  <point x="274" y="563" type="curve" smooth="yes"/>
	  <point x="188" y="560"/>
	  <point x="85" y="517"/>
	  <point x="83" y="418" type="curve" smooth="yes"/>
	  <point x="82" y="332"/>
	  <point x="157" y="290"/>
	  <point x="235" y="255" type="curve" smooth="yes"/>
	  <point x="308" y="222"/>
	  <point x="387" y="200"/>
	  <point x="387" y="130" type="curve" smooth="yes"/>
	  <point x="387" y="57"/>
	  <point x="325" y="27"/>
	  <point x="245" y="30" type="curve" smooth="yes"/>
	  <point x="201" y="32"/>
	  <point x="160" y="42"/>
	  <point x="127" y="70" type="curve"/>
	  <point x="111" y="136" type="line"/>
	  <point x="77" y="136" type="line"/>
	</contour>
  </outline>
</glyph>
<glyph name="Zacute" format="1">
  <advance width="660"/>
  <unicode hex="0179"/>
  <outline>
    <contour>
      <point x="93" y="759" type="line"/>
      <point x="79" y="606" type="line"/>
      <point x="119" y="600" type="line"/>
      <point x="157" y="709" type="line"/>
      <point x="540" y="718" type="line"/>
      <point x="482" y="647" type="line"/>
      <point x="48" y="34" type="line"/>
      <point x="60" y="0" type="line"/>
      <point x="595" y="0" type="line"/>
      <point x="630" y="170" type="line"/>
      <point x="591" y="179" type="line"/>
      <point x="535" y="56" type="line"/>
      <point x="131" y="42" type="line"/>
      <point x="193" y="121" type="line"/>
      <point x="620" y="726" type="line"/>
      <point x="608" y="759" type="line"/>
    </contour>
    <contour>
      <point x="334" y="806" type="line"/>
      <point x="355" y="785" type="line"/>
      <point x="414" y="809"/>
      <point x="484" y="848"/>
      <point x="531" y="884" type="curve"/>
      <point x="479" y="938" type="line"/>
    </contour>
  </outline>
</glyph>
<glyph name="circumflex" format="1">
  <advance width="519"/>
  <unicode hex="02C6"/>
  <outline>
    <contour>
      <point x="118" y="653" type="line"/>
      <point x="259" y="802" type="line"/>
      <point x="395" y="653" type="line"/>
      <point x="428" y="671" type="line"/>
      <point x="294" y="865" type="line"/>
      <point x="225" y="865" type="line"/>
      <point x="88" y="670" type="line"/>
    </contour>
  </outline>
</glyph>
<glyph name="caron" format="1">
  <advance width="519"/>
  <unicode hex="02C7"/>
  <outline>
    <contour>
      <point x="224" y="653" type="line"/>
      <point x="294" y="653" type="line"/>
      <point x="428" y="847" type="line"/>
      <point x="398" y="865" type="line"/>
      <point x="259" y="715" type="line"/>
      <point x="121" y="865" type="line"/>
      <point x="88" y="847" type="line"/>
    </contour>
  </outline>
</glyph>
<glyph name="breve" format="1">
  <advance width="519"/>
  <unicode hex="02D8"/>
  <outline>
	<contour>
	  <point x="386" y="833" type="line"/>
	  <point x="378" y="804"/>
	  <point x="355" y="733"/>
	  <point x="260" y="733" type="curve" smooth="yes"/>
	  <point x="167" y="733"/>
	  <point x="141" y="802"/>
	  <point x="134" y="833" type="curve"/>
	  <point x="98" y="833" type="line"/>
	  <point x="98" y="753"/>
	  <point x="159" y="680"/>
	  <point x="258" y="680" type="curve" smooth="yes"/>
	  <point x="354" y="680"/>
	  <point x="421" y="752"/>
	  <point x="421" y="833" type="curve"/>
	</contour>
  </outline>
</glyph>
<glyph name="dotaccent" format="1">
  <advance width="246"/>
  <unicode hex="02D9"/>
  <outline>
    <contour>
      <point x="99" y="790"/>
      <point x="69" y="766"/>
      <point x="69" y="735" type="curve" smooth="yes"/>
      <point x="69" y="706"/>
      <point x="93" y="688"/>
      <point x="118" y="688" type="curve" smooth="yes"/>
      <point x="146" y="688"/>
      <point x="175" y="710"/>
      <point x="175" y="743" type="curve" smooth="yes"/>
      <point x="175" y="768"/>
      <point x="160" y="790"/>
      <point x="126" y="790" type="curve" smooth="yes"/>
    </contour>
  </outline>
</glyph>
<glyph name="ring" format="1">
  <advance width="273"/>
  <unicode hex="02DA"/>
  <outline>
	<contour>
	  <point x="70" y="875"/>
	  <point x="17" y="824"/>
	  <point x="17" y="760" type="curve" smooth="yes"/>
	  <point x="17" y="696"/>
	  <point x="70" y="645"/>
	  <point x="136" y="645" type="curve" smooth="yes"/>
	  <point x="203" y="645"/>
	  <point x="256" y="696"/>
	  <point x="256" y="760" type="curve" smooth="yes"/>
	  <point x="256" y="824"/>
	  <point x="203" y="875"/>
	  <point x="136" y="875" type="curve" smooth="yes"/>
	</contour>
	<contour>
	  <point x="177" y="833"/>
	  <point x="211" y="801"/>
	  <point x="211" y="759" type="curve" smooth="yes"/>
	  <point x="211" y="716"/>
	  <point x="177" y="685"/>
	  <point x="136" y="685" type="curve" smooth="yes"/>
	  <point x="96" y="685"/>
	  <point x="62" y="716"/>
	  <point x="62" y="759" type="curve" smooth="yes"/>
	  <point x="62" y="801"/>
	  <point x="96" y="833"/>
	  <point x="136" y="833" type="curve" smooth="yes"/>
	</contour>
  </outline>
</glyph>
<glyph name="ogonek" format="1">
  <advance width="346"/>
  <unicode hex="02DB"/>
  <outline>
    <contour>
      <point x="129" y="0" type="line"/>
      <point x="53" y="-30"/>
      <point x="-24" y="-101"/>
      <point x="-24" y="-165" type="curve" smooth="yes"/>
      <point x="-24" y="-212"/>
      <point x="8" y="-255"/>
      <point x="74" y="-257" type="curve" smooth="yes"/>
      <point x="154" y="-260"/>
      <point x="201" y="-228"/>
      <point x="228" y="-208" type="curve"/>
      <point x="219" y="-173" type="line"/>
      <point x="199" y="-185"/>
      <point x="155" y="-211"/>
      <point x="112" y="-209" type="curve" smooth="yes"/>
      <point x="65" y="-207"/>
      <point x="42" y="-190"/>
      <point x="42" y="-145" type="curve" smooth="yes"/>
      <point x="42" y="-85"/>
      <point x="145" y="-16"/>
      <point x="202" y="0" type="curve"/>
      <point x="163" y="4" type="line"/>
    </contour>
  </outline>
</glyph>
<glyph name="tilde" format="1">
  <advance width="433"/>
  <unicode hex="02DC"/>
  <outline>
	<contour>
	  <point x="47" y="703" type="line"/>
	  <point x="69" y="727"/>
	  <point x="100" y="755"/>
	  <point x="141" y="755" type="curve" smooth="yes"/>
	  <point x="191" y="755"/>
	  <point x="215" y="681"/>
	  <point x="277" y="681" type="curve" smooth="yes"/>
	  <point x="329" y="681"/>
	  <point x="381" y="719"/>
	  <point x="406" y="761" type="curve"/>
	  <point x="385" y="790" type="line"/>
	  <point x="363" y="766"/>
	  <point x="333" y="738"/>
	  <point x="292" y="738" type="curve" smooth="yes"/>
	  <point x="243" y="738"/>
	  <point x="219" y="812"/>
	  <point x="156" y="812" type="curve" smooth="yes"/>
	  <point x="104" y="812"/>
	  <point x="51" y="774"/>
	  <point x="27" y="731" type="curve"/>
	</contour>
  </outline>
</glyph>
<glyph name="commaaccent" format="1">
  <advance width="345"/>
  <unicode hex="0326"/>
  <outline>
    <contour>
      <point x="135" y="-73" type="line"/>
      <point x="135" y="-94" type="line"/>
      <point x="159" y="-94"/>
      <point x="194" y="-120"/>
      <point x="194" y="-163" type="curve" smooth="yes"/>
      <point x="194" y="-212"/>
      <point x="173" y="-265"/>
      <point x="135" y="-281" type="curve"/>
      <point x="135" y="-294" type="line"/>
      <point x="155" y="-313" type="line"/>
      <point x="203" y="-295"/>
      <point x="270" y="-229"/>
      <point x="269" y="-147" type="curve" smooth="yes"/>
      <point x="267" y="-101"/>
      <point x="234" y="-48"/>
      <point x="171" y="-36" type="curve"/>
    </contour>
  </outline>
</glyph>
<glyph name="Omega" format="1">
  <advance width="951"/>
  <unicode hex="03A9"/>
  <outline>
    <contour>
      <point x="69" y="0" type="line"/>
      <point x="386" y="0" type="line"/>
      <point x="386" y="62" type="line"/>
      <point x="298" y="112"/>
      <point x="195" y="242"/>
      <point x="195" y="398" type="curve" smooth="yes"/>
      <point x="195" y="613"/>
      <point x="307" y="724"/>
      <point x="455" y="724" type="curve" smooth="yes"/>
      <point x="596" y="724"/>
      <point x="706" y="620"/>
      <point x="706" y="414" type="curve" smooth="yes"/>
      <point x="706" y="255"/>
      <point x="624" y="118"/>
      <point x="523" y="59" type="curve"/>
      <point x="523" y="0" type="line"/>
      <point x="835" y="0" type="line"/>
      <point x="856" y="174" type="line"/>
      <point x="819" y="177" type="line"/>
      <point x="786" y="66" type="line"/>
      <point x="604" y="66" type="line"/>
      <point x="690" y="134"/>
      <point x="783" y="284"/>
      <point x="786" y="414" type="curve" smooth="yes"/>
      <point x="790" y="632"/>
      <point x="653" y="757"/>
      <point x="462" y="757" type="curve" smooth="yes"/>
      <point x="286" y="757"/>
      <point x="122" y="644"/>
      <point x="116" y="398" type="curve" smooth="yes"/>
      <point x="114" y="254"/>
      <point x="210" y="125"/>
      <point x="300" y="66" type="curve"/>
      <point x="122" y="66" type="line"/>
      <point x="106" y="167" type="line"/>
      <point x="69" y="164" type="line"/>
    </contour>
  </outline>
</glyph>
